<svg width="21" height="20" viewBox="0 0 21 20" fill="none" xmlns="http://www.w3.org/2000/svg">
<path d="M20.1582 8.15157L20.1598 2.2C20.1598 1.42813 19.5003 0.800003 18.6898 0.800003L12.4423 0.801565L12.1782 0.800003C11.6335 0.800003 11.1151 0.829691 10.741 1.18594L1.19586 10.2766C0.966172 10.4938 0.839844 10.7844 0.839844 11.0938C0.839844 11.4031 0.966172 11.6938 1.19586 11.9109L8.49336 18.8609C8.72141 19.0797 9.02656 19.2 9.35141 19.2C9.67461 19.2 9.98141 19.0797 10.2095 18.8609L19.7546 9.77032C20.1648 9.38125 20.1615 8.82032 20.1598 8.27969L20.1582 8.15157ZM16.3798 5.6C15.6842 5.6 15.1198 5.0625 15.1198 4.4C15.1198 3.7375 15.6842 3.2 16.3798 3.2C17.0755 3.2 17.6398 3.7375 17.6398 4.4C17.6398 5.0625 17.0755 5.6 16.3798 5.6Z" fill="white"/>
</svg>
