<svg width="20" height="19" viewBox="0 0 20 19" fill="none" xmlns="http://www.w3.org/2000/svg">
<path d="M19.6582 7.65137L19.6598 1.6998C19.6598 0.92793 19.0003 0.299805 18.1898 0.299805L11.9423 0.301367L11.6782 0.299805C11.1335 0.299805 10.6151 0.329492 10.241 0.685742L0.695859 9.77637C0.466172 9.99356 0.339844 10.2842 0.339844 10.5936C0.339844 10.9029 0.466172 11.1936 0.695859 11.4107L7.99336 18.3607C8.22141 18.5795 8.52656 18.6998 8.85141 18.6998C9.17461 18.6998 9.48141 18.5795 9.70945 18.3607L19.2546 9.27012C19.6648 8.88105 19.6615 8.32012 19.6598 7.77949L19.6582 7.65137ZM15.8798 5.0998C15.1842 5.0998 14.6198 4.5623 14.6198 3.8998C14.6198 3.2373 15.1842 2.6998 15.8798 2.6998C16.5755 2.6998 17.1398 3.2373 17.1398 3.8998C17.1398 4.5623 16.5755 5.0998 15.8798 5.0998Z" fill="black"/>
</svg>
