<?xml version="1.0" standalone="no"?>
<!DOCTYPE svg PUBLIC "-//W3C//DTD SVG 20010904//EN"
 "http://www.w3.org/TR/2001/REC-SVG-20010904/DTD/svg10.dtd">
<svg version="1.0" xmlns="http://www.w3.org/2000/svg"
 width="82.000000pt" height="102.000000pt" viewBox="0 0 82.000000 102.000000"
 preserveAspectRatio="xMidYMid meet">

<g transform="translate(0.000000,102.000000) scale(0.100000,-0.100000)"
fill="rgba(173, 173, 173, 1)" stroke="none">
<path d="M444 852 c-55 -66 -77 -121 -78 -189 0 -37 6 -68 14 -77 19 -24 22
-14 9 37 -16 64 7 139 67 211 25 31 39 56 32 56 -7 0 -27 -17 -44 -38z"/>
<path d="M472 763 c2 -10 10 -18 18 -18 8 0 16 8 18 18 2 12 -3 17 -18 17 -15
0 -20 -5 -18 -17z"/>
<path d="M583 727 c-13 -18 -25 -53 -29 -77 -5 -39 0 -57 41 -140 48 -98 53
-134 30 -210 -7 -24 -7 -24 11 -8 12 12 19 36 22 75 3 53 0 66 -42 148 -25 50
-46 102 -46 116 0 14 11 47 25 73 27 51 29 56 18 56 -5 0 -18 -15 -30 -33z"/>
<path d="M235 667 c-38 -66 -34 -119 16 -219 42 -83 49 -122 35 -188 -7 -33
-7 -34 8 -16 11 13 16 40 16 77 0 48 -7 71 -41 136 -48 94 -51 134 -15 199 29
52 30 54 16 54 -5 0 -21 -20 -35 -43z"/>
<path d="M303 584 c-8 -20 8 -36 26 -25 15 10 8 41 -9 41 -6 0 -13 -7 -17 -16z"/>
<path d="M410 553 c-46 -6 -60 -19 -60 -55 0 -16 -4 -37 -9 -46 -13 -26 5 -62
31 -62 13 0 29 -9 36 -20 19 -30 50 -24 93 19 41 41 49 70 24 91 -8 7 -15 22
-15 34 0 12 -5 27 -12 34 -12 12 -22 13 -88 5z m75 -19 c8 -9 13 -24 10 -34
-3 -11 0 -20 10 -24 24 -9 18 -36 -17 -72 -37 -38 -64 -43 -73 -15 -4 13 -12
17 -24 14 -24 -6 -49 33 -32 50 6 6 11 25 11 43 0 34 15 46 48 37 11 -2 23 0
26 6 10 15 22 14 41 -5z"/>
<path d="M430 460 c0 -5 5 -10 10 -10 6 0 10 5 10 10 0 6 -4 10 -10 10 -5 0
-10 -4 -10 -10z"/>
<path d="M455 293 c-3 -21 -18 -59 -32 -86 -32 -58 -24 -73 11 -20 28 42 50
123 37 136 -5 5 -12 -9 -16 -30z"/>
</g>
</svg>
