<?xml version="1.0" standalone="no"?>
<!DOCTYPE svg PUBLIC "-//W3C//DTD SVG 20010904//EN"
 "http://www.w3.org/TR/2001/REC-SVG-20010904/DTD/svg10.dtd">
<svg version="1.0" xmlns="http://www.w3.org/2000/svg"
 width="103.000000pt" height="83.000000pt" viewBox="0 0 103.000000 83.000000"
 preserveAspectRatio="xMidYMid meet">

<g transform="translate(0.000000,83.000000) scale(0.100000,-0.100000)"
fill="rgba(173, 173, 173, 1)" stroke="none">
<path d="M402 736 c-158 -52 -243 -227 -187 -385 67 -189 318 -253 469 -120
100 88 130 234 73 351 -49 99 -138 159 -247 164 -38 2 -83 -2 -108 -10z m221
-39 c160 -94 193 -290 72 -425 -62 -69 -127 -96 -220 -90 -153 10 -255 117
-255 271 0 169 118 281 286 273 56 -2 82 -9 117 -29z"/>
<path d="M365 620 c-10 -11 -13 -20 -7 -20 7 0 12 5 12 10 0 6 10 15 23 20 14
6 16 9 6 9 -9 1 -24 -8 -34 -19z"/>
<path d="M437 628 c12 -6 27 -22 32 -37 5 -14 10 -19 10 -11 1 23 -28 60 -47
59 -13 0 -12 -3 5 -11z"/>
<path d="M569 589 c-11 -11 -18 -23 -15 -26 3 -3 14 4 24 17 24 30 65 21 86
-18 9 -15 15 -20 15 -12 1 21 -10 35 -36 49 -31 16 -50 14 -74 -10z"/>
<path d="M340 513 c0 -5 11 -25 25 -45 29 -43 97 -78 151 -78 45 0 113 28 134
56 11 15 11 16 0 7 -21 -19 -27 -16 -27 13 0 53 -56 57 -88 7 -41 -65 -110
-63 -162 6 -18 23 -33 39 -33 34z"/>
</g>
</svg>
