<?xml version="1.0" standalone="no"?>
<!DOCTYPE svg PUBLIC "-//W3C//DTD SVG 20010904//EN"
 "http://www.w3.org/TR/2001/REC-SVG-20010904/DTD/svg10.dtd">
<svg version="1.0" xmlns="http://www.w3.org/2000/svg"
 width="102.000000pt" height="83.000000pt" viewBox="0 0 102.000000 83.000000"
 preserveAspectRatio="xMidYMid meet">

<g transform="translate(0.000000,83.000000) scale(0.100000,-0.100000)"
fill="rgba(173, 173, 173, 1)" stroke="none">
<path d="M423 701 c-73 -53 -110 -114 -121 -198 l-7 -58 -48 -7 c-27 -3 -60
-14 -74 -23 -23 -16 -25 -22 -21 -75 6 -78 40 -129 109 -164 63 -31 126 -34
183 -8 38 17 41 17 75 0 22 -11 57 -18 92 -18 111 0 198 77 207 184 4 53 3 55
-29 75 -18 11 -52 23 -75 27 l-41 6 -6 57 c-6 67 -24 106 -74 162 -39 43 -81
69 -111 69 -10 0 -37 -13 -59 -29z m134 -33 c126 -116 125 -291 -3 -408 l-49
-45 -3 39 c-4 51 3 66 32 66 32 0 50 30 33 53 -9 12 -33 17 -92 19 -63 2 -80
6 -80 18 0 12 16 16 75 18 83 3 102 13 98 51 -3 25 -6 26 -70 29 -60 3 -68 5
-68 22 0 11 6 20 14 20 24 0 46 29 46 61 0 16 -4 29 -10 29 -5 0 -10 -14 -10
-31 0 -25 -5 -32 -31 -41 -26 -9 -30 -15 -27 -42 l3 -31 68 -3 c58 -2 68 -6
65 -20 -3 -14 -18 -18 -82 -22 -61 -4 -81 -9 -90 -22 -8 -13 -8 -23 0 -35 9
-14 29 -19 93 -23 83 -5 107 -20 50 -32 -39 -8 -49 -22 -49 -75 0 -24 -4 -43
-8 -43 -21 0 -93 75 -116 122 -36 72 -36 168 -1 237 29 58 108 131 142 131 14
0 42 -17 70 -42z m-247 -291 c16 -56 60 -118 104 -148 20 -13 36 -27 36 -30 0
-12 -52 -29 -91 -29 -44 0 -103 21 -132 48 -38 34 -63 103 -58 159 2 22 88 56
117 46 6 -2 17 -23 24 -46z m465 19 c31 -20 33 -70 6 -124 -22 -42 -43 -63
-88 -86 -38 -19 -128 -21 -161 -3 -23 13 -23 13 18 46 53 43 97 104 111 154
10 39 11 39 50 34 22 -3 51 -12 64 -21z"/>
</g>
</svg>
