<svg width="22" height="23" viewBox="0 0 22 23" fill="none" xmlns="http://www.w3.org/2000/svg">
<path d="M6.29824 0.700195C2.82514 0.700195 0 3.52795 0 7.00195V16.002C0 19.4751 2.82776 22.3002 6.30176 22.3002H15.3018C18.7749 22.3002 21.6 19.4724 21.6 15.9984V6.99844C21.6 3.52534 18.7722 0.700195 15.2982 0.700195H6.29824ZM17.1 4.3002C17.5968 4.3002 18 4.7034 18 5.2002C18 5.697 17.5968 6.1002 17.1 6.1002C16.6032 6.1002 16.2 5.697 16.2 5.2002C16.2 4.7034 16.6032 4.3002 17.1 4.3002ZM10.8 6.1002C13.7781 6.1002 16.2 8.5221 16.2 11.5002C16.2 14.4783 13.7781 16.9002 10.8 16.9002C7.8219 16.9002 5.4 14.4783 5.4 11.5002C5.4 8.5221 7.8219 6.1002 10.8 6.1002ZM10.8 7.9002C9.84522 7.9002 8.92955 8.27948 8.25442 8.95461C7.57928 9.62974 7.2 10.5454 7.2 11.5002C7.2 12.455 7.57928 13.3706 8.25442 14.0458C8.92955 14.7209 9.84522 15.1002 10.8 15.1002C11.7548 15.1002 12.6705 14.7209 13.3456 14.0458C14.0207 13.3706 14.4 12.455 14.4 11.5002C14.4 10.5454 14.0207 9.62974 13.3456 8.95461C12.6705 8.27948 11.7548 7.9002 10.8 7.9002Z" fill="#252525"/>
</svg>
