<svg width="23" height="22" viewBox="0 0 23 22" fill="none" xmlns="http://www.w3.org/2000/svg">
<path d="M6.99844 0.199997C3.52534 0.199997 0.700195 3.02776 0.700195 6.50176V15.5018C0.700195 18.9749 3.52795 21.8 7.00195 21.8H16.002C19.4751 21.8 22.3002 18.9722 22.3002 15.4982V6.49824C22.3002 3.02514 19.4724 0.199997 15.9984 0.199997H6.99844ZM17.8002 3.8C18.297 3.8 18.7002 4.2032 18.7002 4.7C18.7002 5.1968 18.297 5.6 17.8002 5.6C17.3034 5.6 16.9002 5.1968 16.9002 4.7C16.9002 4.2032 17.3034 3.8 17.8002 3.8ZM11.5002 5.6C14.4783 5.6 16.9002 8.0219 16.9002 11C16.9002 13.9781 14.4783 16.4 11.5002 16.4C8.5221 16.4 6.1002 13.9781 6.1002 11C6.1002 8.0219 8.5221 5.6 11.5002 5.6ZM11.5002 7.4C10.5454 7.4 9.62974 7.77928 8.95461 8.45441C8.27948 9.12954 7.9002 10.0452 7.9002 11C7.9002 11.9548 8.27948 12.8705 8.95461 13.5456C9.62974 14.2207 10.5454 14.6 11.5002 14.6C12.455 14.6 13.3706 14.2207 14.0458 13.5456C14.7209 12.8705 15.1002 11.9548 15.1002 11C15.1002 10.0452 14.7209 9.12954 14.0458 8.45441C13.3706 7.77928 12.455 7.4 11.5002 7.4Z" fill="white"/>
</svg>
