<svg width="198" height="112" viewBox="0 0 198 112" fill="none" xmlns="http://www.w3.org/2000/svg">
<g clip-path="url(#clip0_650_4822)">
<path d="M197.431 112H0C2.16336 106.483 6.15836 101.803 11.7902 100.414C20.0286 98.3859 28.7472 103.963 36.9678 101.866C41.6379 100.676 45.3146 97.2078 49.1779 94.3277C63.7532 83.4609 83.7268 80.2491 100.974 86.0009C109.989 89.006 118.204 94.261 127.439 96.496C139.381 99.3859 151.87 96.9894 164.15 96.5947C176.109 96.2096 193.246 101.083 197.431 112Z" fill="#F3F5FD"/>
<path d="M172.979 84.2321C172.027 87.1161 168.742 89.6789 169.723 91.7999C170.096 92.6061 170.471 93.4492 170.643 94.3106C170.755 94.8241 170.774 95.3536 170.698 95.8738C170.344 98.1198 168.243 99.6115 166.288 100.773C166.168 100.845 166.046 100.918 165.924 100.99C164.072 102.1 162.133 103.378 161.538 105.426C161.208 106.564 161.353 107.78 161.216 108.957C161.087 110.038 160.719 111.077 160.141 112H147.66C146.552 110.779 146.645 108.726 147.488 107.286C148.39 105.746 149.915 104.698 151.291 103.559C152.48 102.574 153.638 101.389 154.092 99.9433C154.164 99.7145 154.217 99.4802 154.251 99.2428C154.361 98.4604 154.302 94.4638 155.658 92.0037C157.755 88.2049 161.157 89.1404 162.197 86.9971C162.595 86.1761 162.939 76.0871 169.565 77.9509C170.211 78.1237 170.815 78.4262 171.341 78.8401C171.866 79.2539 172.302 79.7704 172.621 80.358C172.941 80.9457 173.137 81.5922 173.199 82.2583C173.26 82.9243 173.186 83.5959 172.979 84.2321Z" fill="#DEE8F5"/>
<path d="M185.1 100.007C184.91 100.138 184.705 100.247 184.49 100.332C182.702 101.002 177.73 100.928 177.002 102.694C176.66 103.524 176.579 104.44 176.286 105.289C175.621 107.215 173.866 108.66 171.902 109.203C171.196 109.397 170.464 109.488 169.765 109.705C168.414 110.126 167.296 110.972 166.313 112H150.194C150.187 110.931 150.45 109.878 150.958 108.938C151.467 107.997 152.205 107.201 153.103 106.622C154.896 105.491 157.159 105.28 158.919 104.099C160.079 103.32 160.913 102.194 161.575 100.949C161.996 100.135 162.368 99.2956 162.689 98.4368C163.182 97.1591 163.696 95.7878 164.815 94.9971C165.347 94.6208 165.978 94.4095 166.61 94.2444C168.225 93.8215 169.467 94.0704 170.644 94.3114C172.072 94.6029 173.404 94.881 175.194 93.9307C178.368 92.244 183.008 83.8329 187.646 91.8246C189.505 95.0295 186.94 98.776 185.1 100.007Z" fill="#FAE77D"/>
<path d="M24.954 84.2321C25.906 87.1161 29.1916 89.6789 28.2104 91.7999C27.8371 92.6061 27.4623 93.4492 27.2897 94.3106C27.1778 94.8241 27.1591 95.3537 27.2348 95.8738C27.5887 98.1198 29.6905 99.6115 31.6448 100.773C31.7653 100.845 31.8873 100.918 32.0092 100.99C33.861 102.1 35.8005 103.378 36.3955 105.426C36.7257 106.564 36.5799 107.78 36.7168 108.957C36.8465 110.038 37.2137 111.077 37.7921 112H50.2728C51.3809 110.779 51.2887 108.726 50.4452 107.286C49.543 105.746 48.0178 104.698 46.6421 103.559C45.4536 102.574 44.2949 101.389 43.8413 99.9433C43.7692 99.7145 43.716 99.4802 43.6822 99.2428C43.5721 98.4604 43.6316 94.4638 42.2752 92.0037C40.177 88.2049 36.7757 89.1404 35.7364 86.9971C35.3377 86.1761 34.9941 76.0871 28.3679 77.9509C27.7217 78.1237 27.1175 78.4263 26.5921 78.8401C26.0666 79.2539 25.6309 79.7704 25.3115 80.3581C24.9921 80.9457 24.7957 81.5923 24.7342 82.2583C24.6728 82.9243 24.7475 83.5959 24.954 84.2321Z" fill="#DEE8F5"/>
<path d="M12.8334 100.007C13.0237 100.138 13.2283 100.247 13.4433 100.332C15.2311 101.002 20.2035 100.928 20.9307 102.694C21.2729 103.523 21.3546 104.44 21.6477 105.289C22.3125 107.215 24.0676 108.659 26.031 109.202C26.7375 109.397 27.4689 109.488 28.1684 109.705C29.5189 110.126 30.6374 110.972 31.6205 112H47.7392C47.7464 110.931 47.4835 109.878 46.9749 108.938C46.4663 107.997 45.7285 107.201 44.83 106.622C43.0377 105.491 40.7738 105.28 39.0143 104.099C37.8541 103.32 37.0197 102.194 36.3579 100.949C35.9369 100.134 35.565 99.2955 35.2442 98.4367C34.7519 97.159 34.2372 95.7876 33.1188 94.9969C32.5863 94.6207 31.9556 94.4094 31.3235 94.2443C29.7082 93.8214 28.4663 94.0703 27.2897 94.3112C25.8614 94.6022 24.5292 94.8803 22.7388 93.9298C19.5647 92.243 14.9241 83.8319 10.2865 91.8237C8.42779 95.0294 10.9936 98.7758 12.8334 100.007Z" fill="#FAE77D"/>
<path d="M151.839 22.9632C150.754 22.6112 149.586 22.6112 148.502 22.9632C147.878 23.1712 147.322 23.5419 146.889 24.0371C146.338 24.6905 145.931 25.5953 145.971 26.4618C146 26.9101 146.142 27.3439 146.383 27.7224C146.625 28.101 146.959 28.4119 147.354 28.6262C148.054 28.9848 149.106 29.0592 149.719 28.4852C150.186 28.0482 150.162 27.2975 149.861 26.7766C149.379 25.9442 148.328 25.6057 147.416 25.7216C146.895 25.7962 146.395 25.9747 145.945 26.2464C145.495 26.5181 145.104 26.8775 144.795 27.3033C144.504 27.7062 144.293 28.1613 144.174 28.6438C144.063 29.0916 144.018 29.6053 144.194 30.0432C144.226 30.1465 144.296 30.2338 144.39 30.2872C144.484 30.3405 144.595 30.356 144.7 30.3304C144.895 30.2767 145.07 30.0319 144.987 29.8247C144.936 29.708 144.907 29.5829 144.902 29.4558C144.895 29.2988 144.907 29.1415 144.939 28.9876C145.012 28.632 145.145 28.2914 145.332 27.9804C145.711 27.3606 146.296 26.8945 146.985 26.6644C147.644 26.4441 148.422 26.4462 148.951 26.9455C149.049 27.0341 149.13 27.1408 149.188 27.2599C149.195 27.2732 149.219 27.3334 149.191 27.2625C149.204 27.2947 149.215 27.3275 149.225 27.3612C149.231 27.3821 149.237 27.4035 149.242 27.4244C149.248 27.4526 149.258 27.5845 149.252 27.4643C149.254 27.4971 149.282 27.6909 149.251 27.7096C149.242 27.7151 149.275 27.5927 149.257 27.6646C149.254 27.6771 149.253 27.6904 149.25 27.7026C149.242 27.7376 149.232 27.772 149.22 27.8057C149.168 27.8913 149.088 27.9574 148.995 27.9939C149.055 27.9657 148.932 28.0155 148.933 28.0152C148.908 28.0229 148.882 28.0293 148.856 28.0355C148.781 28.0553 148.704 28.0672 148.626 28.071C148.492 28.0804 148.358 28.0769 148.225 28.0604C148.082 28.0351 147.943 27.9935 147.81 27.9364C147.519 27.7947 147.27 27.5776 147.091 27.3076C146.912 27.0377 146.809 26.7247 146.792 26.4012C146.8 26.0333 146.883 25.6709 147.036 25.3362C147.096 25.2003 147.166 25.0685 147.243 24.9414C147.311 24.828 147.387 24.7199 147.471 24.6179C147.557 24.5167 147.648 24.421 147.746 24.3314C147.793 24.2878 147.842 24.2458 147.892 24.2053C147.99 24.126 147.829 24.2494 147.93 24.1762C147.961 24.154 147.992 24.1321 148.023 24.1108C148.132 24.0373 148.245 23.9703 148.362 23.9104C148.422 23.8792 148.483 23.85 148.545 23.8223C148.558 23.8163 148.618 23.7924 148.549 23.8204C148.588 23.8044 148.628 23.7889 148.668 23.774C148.937 23.6782 149.214 23.6088 149.496 23.5667C149.614 23.5479 149.41 23.5744 149.529 23.5626C149.564 23.5591 149.599 23.5547 149.635 23.5513C149.706 23.5447 149.776 23.5395 149.847 23.5358C149.986 23.5285 150.125 23.5267 150.264 23.5304C150.398 23.5338 150.531 23.5421 150.665 23.5553C150.694 23.5582 150.893 23.5834 150.78 23.5671C150.842 23.576 150.903 23.5853 150.965 23.596C151.186 23.6339 151.405 23.687 151.62 23.755C152.125 23.9164 152.341 23.1229 151.838 22.9622L151.839 22.9632Z" fill="#0CBC8B"/>
<path d="M73.3275 7.88311C74.3764 7.50615 75.4703 8.26838 75.9637 9.20176C76.4494 10.1217 76.3362 11.4359 75.3857 12.0244C74.9818 12.2745 74.4163 12.3584 74.064 12.0374C73.6966 11.7026 73.719 11.2855 74.0822 10.9507C74.1672 10.8744 74.2598 10.8072 74.3586 10.7499C74.4161 10.7152 74.4749 10.6824 74.535 10.6522C74.557 10.6412 74.5792 10.6306 74.6015 10.6202C74.6624 10.592 74.5128 10.6522 74.6234 10.6111C74.7122 10.5775 74.803 10.5493 74.8951 10.5265C74.9388 10.5159 74.9829 10.5065 75.0274 10.4983C75.053 10.4935 75.0787 10.4893 75.1044 10.4852C75.0198 10.4986 75.1452 10.4814 75.1516 10.4808C75.3604 10.4616 75.5708 10.4651 75.7789 10.4912C75.8485 10.5 75.7234 10.4822 75.793 10.4938C75.8203 10.4984 75.8478 10.5029 75.875 10.5079C75.923 10.5167 75.9707 10.5267 76.0183 10.5379C76.1344 10.5651 76.2489 10.5987 76.3614 10.6384C76.3934 10.6497 76.4901 10.6868 76.4895 10.6865C76.4553 10.6724 76.5189 10.6997 76.5177 10.6993C76.5434 10.711 76.5691 10.723 76.5944 10.7354C76.7024 10.7878 76.8072 10.8465 76.9082 10.9112C77.0814 11.0206 77.238 11.1542 77.3734 11.3079C77.5065 11.4572 77.6168 11.6254 77.7008 11.8069C77.7174 11.8404 77.7316 11.875 77.7431 11.9105C77.7682 11.9799 77.7903 12.0505 77.8106 12.122C77.8555 12.2751 77.8892 12.4314 77.9114 12.5895C77.9833 13.1707 77.8906 13.7605 77.6439 14.2918C77.3971 14.823 77.0063 15.2743 76.5158 15.5944C76.3201 15.7168 76.0981 15.7907 75.8681 15.8101C75.6381 15.8296 75.4069 15.7939 75.1934 15.7061C75.1343 15.6775 75.0775 15.6446 75.0234 15.6074C74.9586 15.564 75.0539 15.6378 75.0165 15.603C75.0068 15.594 74.9968 15.5853 74.9875 15.5757C74.9752 15.5628 74.9642 15.5494 74.9525 15.5365C75.0597 15.6549 74.9649 15.5585 74.9716 15.5555C74.9623 15.5407 74.9539 15.5254 74.9465 15.5095C74.9694 15.5452 74.9644 15.5809 74.9536 15.5214C74.951 15.5073 74.9278 15.3876 74.9353 15.455C74.9422 15.5183 74.9369 15.415 74.9364 15.3945C74.936 15.3741 74.9393 15.3545 74.9398 15.3343C74.9398 15.35 74.9191 15.4236 74.9381 15.3507C74.9508 15.3023 74.96 15.254 74.9755 15.2062C74.9834 15.1821 75.0254 15.0861 74.9928 15.1554C75.0145 15.1094 75.038 15.0644 75.0633 15.0204C75.0905 14.9736 75.1197 14.9283 75.1516 14.8842C75.1548 14.8795 75.1974 14.8244 75.1657 14.8652C75.1841 14.8419 75.2036 14.8194 75.2232 14.7972C75.3934 14.6061 75.5923 14.4427 75.8127 14.3128C75.8805 14.272 75.9495 14.2326 76.0201 14.197C76.0439 14.1848 76.1546 14.1378 76.0644 14.1733C76.1509 14.1391 76.2394 14.11 76.3294 14.0862C76.5113 14.0317 76.7006 14.0059 76.8905 14.0096C76.9977 14.008 77.105 14.012 77.2119 14.0216C77.248 14.0224 77.2839 14.0271 77.319 14.0357C77.384 14.0477 77.4487 14.0611 77.5129 14.078C77.7267 14.1268 77.9283 14.2191 78.1049 14.3492C78.4305 14.6126 78.6599 14.9764 78.7571 15.3838C78.8674 15.8083 78.8775 16.2527 78.7865 16.6817C78.7017 17.1061 78.5158 17.5037 78.2445 17.8409C78.107 18.008 77.9451 18.1533 77.7644 18.2722C77.3228 18.5602 77.7345 19.2731 78.1794 18.9823C79.198 18.3176 79.7442 17.071 79.6638 15.8695C79.6349 15.2599 79.4298 14.6719 79.0736 14.1765C78.6891 13.6702 78.123 13.3329 77.4947 13.2358C76.3091 13.0414 75.0418 13.5138 74.3853 14.5545C74.1254 14.9661 73.9966 15.529 74.262 15.9707C74.599 16.531 75.4127 16.6896 76.0119 16.6158C76.7491 16.5254 77.356 16.0801 77.8178 15.5146C78.3306 14.9113 78.6522 14.1689 78.7417 13.3821C78.8222 12.65 78.6828 11.9105 78.3413 11.2578C78.0541 10.759 77.6314 10.3518 77.1222 10.0834C76.1478 9.55968 74.8873 9.45889 73.9206 10.0529C73.2882 10.4416 72.7928 11.127 73.0301 11.8983C73.1425 12.2454 73.364 12.5469 73.6616 12.7579C73.9592 12.969 74.317 13.0784 74.6817 13.0697C76.2465 13.0432 77.2323 11.4063 77.05 9.96836C76.8604 8.47688 75.6403 7.14075 74.1212 6.97186C73.7792 6.93395 73.433 6.9741 73.1088 7.08929C73.0051 7.12066 72.9175 7.19066 72.8641 7.28481C72.8106 7.37896 72.7954 7.49005 72.8216 7.5951C72.8514 7.69972 72.9211 7.78845 73.0157 7.84216C73.1104 7.89587 73.2223 7.91027 73.3274 7.88226L73.3275 7.88311Z" fill="#0CBC8B"/>
<path d="M119.011 18.8783C120.209 18.7657 121.335 18.2569 122.211 17.4326C122.715 16.9416 123.066 16.3156 123.222 15.6298C123.416 14.7823 123.339 13.7765 122.853 13.0388C122.627 12.7095 122.329 12.4358 121.981 12.238C121.634 12.0403 121.246 11.9237 120.847 11.8969C120.085 11.8646 119.112 12.2024 118.785 12.9532C118.523 13.5537 118.847 14.2664 119.365 14.6157C120.186 15.1698 121.258 15.042 122.071 14.5427C122.513 14.2576 122.893 13.8863 123.188 13.4509C123.484 13.0155 123.688 12.525 123.789 12.0088C123.966 11.0956 123.859 9.96262 123.169 9.27877C123.011 9.12229 122.718 9.18657 122.591 9.34672C122.525 9.43331 122.496 9.54168 122.509 9.64932C122.521 9.75696 122.575 9.85559 122.659 9.9247C122.597 9.86366 122.688 9.9615 122.692 9.96699C122.709 9.98913 122.726 10.012 122.742 10.0351C122.773 10.0768 122.799 10.1218 122.82 10.1691C122.887 10.3135 122.938 10.4648 122.972 10.6203C123.04 10.9507 123.054 11.2896 123.015 11.6245C122.927 12.3555 122.581 13.0311 122.04 13.5298C121.529 13.995 120.83 14.3099 120.145 14.0928C120.006 14.0543 119.878 13.9859 119.769 13.8925C119.748 13.875 119.728 13.8568 119.708 13.8379C119.771 13.8984 119.688 13.8137 119.681 13.805C119.666 13.7862 119.651 13.7674 119.638 13.7486C119.623 13.7288 119.552 13.602 119.605 13.7063C119.569 13.6358 119.554 13.5454 119.515 13.4789C119.517 13.4827 119.527 13.5752 119.519 13.4909C119.512 13.4484 119.51 13.4051 119.514 13.3622C119.534 13.2261 119.507 13.3756 119.53 13.3027C119.534 13.2928 119.575 13.2061 119.551 13.2499C119.571 13.2182 119.593 13.1877 119.618 13.1586C119.627 13.1458 119.692 13.0771 119.643 13.1245C119.744 13.0324 119.857 12.9554 119.98 12.8958C120.227 12.7631 120.505 12.6998 120.785 12.7126C120.727 12.7104 120.817 12.7164 120.83 12.7179C120.865 12.722 120.901 12.7251 120.937 12.7303C121.008 12.7403 121.079 12.7544 121.149 12.7726C121.101 12.7598 121.17 12.7792 121.175 12.7805C121.217 12.7946 121.259 12.8087 121.3 12.8258C121.377 12.8568 121.452 12.8918 121.525 12.9305C121.791 13.0745 122.018 13.2785 122.19 13.5263C122.56 14.0901 122.552 14.8811 122.408 15.5061C122.391 15.5818 122.38 15.6188 122.368 15.6576C122.347 15.7253 122.323 15.7921 122.297 15.8581C122.246 15.9863 122.187 16.1112 122.12 16.2318C122.056 16.3477 122.162 16.1684 122.091 16.2799C122.077 16.3026 122.063 16.3252 122.048 16.3475C122.011 16.4031 121.972 16.4575 121.932 16.5108C121.844 16.6265 121.75 16.7366 121.648 16.8405C121.63 16.8593 121.611 16.8779 121.593 16.896C121.654 16.836 121.556 16.9289 121.544 16.94C121.49 16.9877 121.436 17.0339 121.38 17.0786C121.259 17.1754 121.133 17.2655 121.002 17.3486C120.943 17.3865 120.883 17.4219 120.822 17.4578C120.805 17.4684 120.731 17.5096 120.803 17.4699C120.77 17.4881 120.736 17.5056 120.703 17.523C120.57 17.5908 120.435 17.6529 120.297 17.7093C120.053 17.8079 119.803 17.8903 119.549 17.956C119.526 17.9619 119.452 17.9784 119.541 17.9583C119.51 17.9653 119.478 17.9724 119.447 17.9791C119.386 17.9921 119.325 18.0038 119.264 18.0145C119.151 18.0343 119.037 18.0497 118.923 18.0609C118.395 18.1132 118.482 18.931 119.009 18.8785L119.011 18.8783Z" fill="#0CBC8B"/>
<path d="M85.0316 -0.000278312L83.7273 0.838379L85.7135 3.92753L87.0179 3.08887L85.0316 -0.000278312Z" fill="#0CBC8B"/>
<path d="M110.803 27.0121L108.56 30.3989L109.852 31.2552L112.096 27.8683L110.803 27.0121Z" fill="#0CBC8B"/>
<path d="M38.1829 9.92463L36.217 12.9341L37.5153 13.7821L39.4812 10.7727L38.1829 9.92463Z" fill="#0CBC8B"/>
<path d="M161.46 40.8632L159.954 41.2349L160.917 45.133L162.422 44.7614L161.46 40.8632Z" fill="#0CBC8B"/>
<path d="M164.564 9.90957L163.287 10.7896L165.653 14.2219L166.929 13.3419L164.564 9.90957Z" fill="#0CBC8B"/>
<path d="M51.0851 25.3532L48.186 28.7856L49.3707 29.7862L52.2698 26.3538L51.0851 25.3532Z" fill="#0CBC8B"/>
<path d="M74.8861 50.18L72.0845 53.0562L73.1953 54.1382L75.9969 51.262L74.8861 50.18Z" fill="#0CBC8B"/>
<path d="M135.253 46.5105L133.949 47.3491L135.935 50.4383L137.239 49.5996L135.253 46.5105Z" fill="#0CBC8B"/>
<path d="M170.884 25.3717C171.205 23.3001 170.57 21.8963 169.56 21.0297C168.564 20.175 165.211 19.0729 163.542 21.4133C162.453 22.9405 162.704 23.5788 162.082 26.1866C161.46 28.7945 160.494 28.9381 159.094 32.0058C157.994 34.4121 161.929 36.3408 165.52 36.7409C169.11 37.141 171.49 36.6763 172.025 34.4332C172.792 31.2142 170.256 29.4312 170.884 25.3717Z" fill="#0F1011"/>
<path d="M167.928 30.8004C167.928 30.8004 166.938 30.0637 167.629 27.1667L165.466 26.4121C165.466 26.4121 165.312 29.081 164.058 29.7433L167.928 30.8004Z" fill="#E98862"/>
<g opacity="0.15">
<path d="M164.599 29.2634L166.666 28.1326L165.215 27.8945C165.097 28.3852 164.888 28.8495 164.599 29.2634Z" fill="black"/>
</g>
<path d="M169.067 26.2233C168.776 27.0898 168.161 27.8585 167.332 28.025C166.424 28.2333 165.478 28.2163 164.578 27.9754C162.172 27.4014 163.505 21.9341 164.827 21.0355C166.15 20.1369 169.441 21.3399 169.577 23.2035C169.648 24.1673 169.344 25.3986 169.067 26.2233Z" fill="#E98862"/>
<path d="M165.717 25.0042C165.83 25.0042 165.921 24.9128 165.921 24.8C165.921 24.6872 165.83 24.5957 165.717 24.5957C165.604 24.5957 165.513 24.6872 165.513 24.8C165.513 24.9128 165.604 25.0042 165.717 25.0042Z" fill="#0F1011"/>
<path d="M164.144 24.6292C164.257 24.6292 164.348 24.5378 164.348 24.425C164.348 24.3122 164.257 24.2207 164.144 24.2207C164.031 24.2207 163.94 24.3122 163.94 24.425C163.94 24.5378 164.031 24.6292 164.144 24.6292Z" fill="#0F1011"/>
<path d="M164.411 24.0174C164.406 24.0174 164.402 24.0171 164.397 24.0164L163.861 23.941C163.849 23.9396 163.836 23.9357 163.825 23.9295C163.814 23.9232 163.804 23.9148 163.796 23.9046C163.788 23.8945 163.782 23.8828 163.779 23.8704C163.775 23.8579 163.775 23.8449 163.776 23.8322C163.778 23.8194 163.782 23.8072 163.789 23.7961C163.796 23.7851 163.804 23.7755 163.815 23.7679C163.825 23.7603 163.837 23.7549 163.85 23.752C163.862 23.7491 163.875 23.7487 163.888 23.751L164.424 23.8264C164.448 23.8298 164.469 23.8422 164.485 23.8611C164.5 23.88 164.507 23.9039 164.506 23.928C164.504 23.9522 164.493 23.9749 164.476 23.9914C164.458 24.008 164.435 24.0173 164.41 24.0174H164.411Z" fill="#0F1011"/>
<path d="M166.224 24.5023C166.211 24.5023 166.199 24.4999 166.187 24.4951L165.68 24.2873C165.668 24.2827 165.657 24.2758 165.648 24.267C165.638 24.2581 165.631 24.2475 165.626 24.2358C165.621 24.224 165.618 24.2114 165.618 24.1986C165.618 24.1857 165.62 24.173 165.625 24.1612C165.63 24.1493 165.637 24.1386 165.646 24.1295C165.655 24.1205 165.666 24.1134 165.678 24.1086C165.69 24.1038 165.703 24.1014 165.715 24.1016C165.728 24.1018 165.741 24.1045 165.753 24.1097L166.26 24.3176C166.281 24.326 166.298 24.3413 166.308 24.3609C166.319 24.3804 166.322 24.4031 166.318 24.4249C166.314 24.4468 166.302 24.4664 166.285 24.4806C166.268 24.4947 166.246 24.5023 166.224 24.5023H166.224Z" fill="#0F1011"/>
<path d="M165.379 26.3757C165.379 26.3757 164.622 26.3399 164.128 26.0771C164.128 26.0771 164.057 26.5687 164.639 26.7076C165.221 26.8464 165.379 26.3757 165.379 26.3757Z" fill="#8732E9"/>
<path d="M167.781 23.6649C167.313 25.7286 167.219 27.8595 167.504 29.9564C167.504 29.9564 169.655 27.2896 170.295 24.8913C170.894 22.643 169.417 21.0344 168.318 20.6057C164.14 18.9741 163.385 22.0838 163.385 22.0838C163.51 23.1997 168.133 24.5474 168.133 24.5474" fill="#0F1011"/>
<path d="M166.603 25.8272C166.575 25.9384 166.57 26.0539 166.587 26.1672C166.604 26.2805 166.643 26.3893 166.703 26.4873C166.762 26.5852 166.84 26.6704 166.933 26.7379C167.025 26.8054 167.131 26.8538 167.242 26.8804C167.353 26.907 167.469 26.9112 167.582 26.8927C167.695 26.8743 167.804 26.8336 167.901 26.773C167.998 26.7124 168.082 26.6332 168.149 26.5398C168.215 26.4464 168.262 26.3408 168.288 26.229C168.316 26.1183 168.322 26.0031 168.305 25.8901C168.288 25.7771 168.248 25.6687 168.188 25.5714C168.128 25.474 168.049 25.3897 167.956 25.3235C167.863 25.2573 167.758 25.2104 167.646 25.1858C167.039 25.0722 166.713 25.362 166.603 25.8272Z" fill="#E98862"/>
<g opacity="0.15">
<path d="M164.66 25.7837C164.649 25.7837 164.638 25.7813 164.629 25.7766L164.166 25.5528C164.157 25.5484 164.149 25.5422 164.142 25.5345C164.136 25.5268 164.131 25.5179 164.129 25.5083C164.126 25.4987 164.126 25.4886 164.127 25.4788C164.129 25.4689 164.132 25.4595 164.138 25.4511L164.566 24.7886C164.577 24.7729 164.592 24.7618 164.611 24.7579C164.629 24.754 164.648 24.7575 164.664 24.7676C164.68 24.7778 164.691 24.7938 164.695 24.812C164.698 24.8303 164.695 24.8494 164.685 24.8651L164.299 25.4607L164.691 25.6499C164.705 25.6569 164.717 25.6685 164.723 25.6829C164.73 25.6973 164.732 25.7136 164.729 25.7291C164.725 25.7447 164.716 25.7585 164.704 25.7685C164.691 25.7784 164.676 25.7838 164.66 25.7838L164.66 25.7837Z" fill="black"/>
</g>
<path d="M185.066 62.3424L173.097 64.5237C172.743 64.5884 172.377 64.5509 172.043 64.4155C171.709 64.2801 171.421 64.0525 171.211 63.7592L171.121 63.6323L165.829 56.2048L170.552 53.4785L173.849 60.7059L184.629 59.4148L185.066 62.3424Z" fill="#E98862"/>
<path d="M187.285 65.6111C187.303 65.6885 187.306 65.7689 187.292 65.8473C187.278 65.9257 187.248 66.0005 187.204 66.0669C187.161 66.1332 187.103 66.1898 187.037 66.2331C186.97 66.2764 186.895 66.3055 186.816 66.3185C186.707 66.3365 186.596 66.323 186.494 66.2796C186.393 66.2362 186.306 66.1648 186.244 66.0736L184.298 63.0043C184.261 62.9448 184.236 62.8778 184.227 62.8081C184.218 62.7384 184.224 62.6675 184.245 62.6004C184.451 62.0617 184.478 61.4713 184.323 60.9159C184.185 60.4877 183.929 60.107 183.585 59.8173C183.552 59.7925 183.526 59.7589 183.512 59.7202C183.497 59.6815 183.493 59.6395 183.502 59.599C183.51 59.5584 183.53 59.5211 183.558 59.4914C183.587 59.4616 183.624 59.4406 183.664 59.4309L185.3 59.0276C185.348 59.0157 185.398 59.0134 185.448 59.021C185.497 59.0285 185.544 59.0456 185.586 59.0714C185.629 59.0973 185.666 59.1312 185.695 59.1713C185.724 59.2115 185.745 59.257 185.757 59.3053L187.285 65.6111Z" fill="#C1D8ED"/>
<path d="M159.073 65.7461L163.411 82.4707L160.57 83.3049L155.178 66.9063L159.073 65.7461Z" fill="#E98862"/>
<path d="M157.495 85.7393C157.42 85.765 157.34 85.7749 157.261 85.7682C157.181 85.7616 157.104 85.7387 157.034 85.7008C156.964 85.663 156.902 85.6111 156.853 85.5484C156.804 85.4856 156.768 85.4134 156.748 85.3363C156.721 85.2295 156.724 85.117 156.758 85.0121C156.792 84.9073 156.856 84.8143 156.941 84.7442L159.823 82.5309C159.879 82.4883 159.944 82.4582 160.012 82.4428C160.081 82.4274 160.152 82.427 160.221 82.4417C160.776 82.5984 161.366 82.5729 161.905 82.3689C162.319 82.1927 162.676 81.9037 162.933 81.5348C162.955 81.4996 162.986 81.4713 163.023 81.4532C163.061 81.4351 163.102 81.4279 163.143 81.4325C163.184 81.4371 163.223 81.4534 163.256 81.4793C163.288 81.5052 163.312 81.5398 163.325 81.5789L163.874 83.1719C163.89 83.2189 163.897 83.2686 163.894 83.3182C163.89 83.3679 163.878 83.4164 163.856 83.461C163.834 83.5056 163.803 83.5455 163.766 83.5783C163.729 83.6111 163.685 83.6362 163.638 83.6522L157.495 85.7393Z" fill="#C1D8ED"/>
<path d="M157.919 44.2134C157.919 44.2134 154.195 56.2109 153.177 59.6357C150.874 67.3827 155.178 73.1669 155.178 73.1669C155.178 73.1669 161 73.9974 163.895 70.14C169.249 63.0055 176.102 67.971 176.396 60.0634C172.498 59.328 168.126 45.1958 168.126 45.1958L157.919 44.2134Z" fill="#262626"/>
<path d="M29.4773 31.9617C29.4773 31.9617 30.5375 31.3308 30.1485 28.378L32.3774 27.8501C32.3774 27.8501 32.2556 30.5207 33.4347 31.3086L29.4773 31.9617Z" fill="#E98862"/>
<g opacity="0.15">
<path d="M32.947 30.7757L31.0078 29.4381L32.4748 29.3506C32.542 29.8509 32.7022 30.3342 32.947 30.7757Z" fill="black"/>
</g>
<path d="M28.8157 27.2912C29.0157 28.183 29.5487 29.011 30.3562 29.2621C31.3148 29.5606 32.0139 29.5496 33.1 29.4961C34.5819 29.4231 34.4568 27.88 34.4217 26.3205C34.3865 24.7547 34.1795 23.0836 33.567 22.5675C32.3443 21.5374 28.9469 22.3952 28.6189 24.2349C28.4496 25.1863 28.6252 26.4423 28.8157 27.2912Z" fill="#E98862"/>
<path d="M35.0738 23.3994C35.0738 23.3994 35.674 23.2341 35.478 22.637C35.3481 22.2411 34.8382 22.3551 34.8382 22.3551C34.8382 22.3551 35.3208 22.2423 35.2998 21.817C35.2867 21.5492 35.0586 21.1055 34.4504 21.3955C33.7369 21.7357 32.9042 21.7375 32.2673 21.6624C31.9061 21.6017 31.5408 21.5684 31.1745 21.5626H31.1727C30.7526 21.5759 30.337 21.6524 29.9397 21.7897C28.8272 22.1831 27.1681 23.2797 27.6444 25.5573C28.176 28.0991 29.4264 29.0197 29.9705 29.3071C30.0027 29.3245 30.0384 29.3342 30.0749 29.3357C30.1115 29.3372 30.1479 29.3303 30.1814 29.3156C30.2149 29.301 30.2446 29.2789 30.2683 29.251C30.292 29.2232 30.3091 29.1903 30.3182 29.1549C30.4451 28.6674 30.6439 27.4466 30.4486 24.9591C33.9113 24.618 34.9074 24.5172 34.9074 24.5172C34.9074 24.5172 35.7261 24.5075 35.6969 23.911C35.6677 23.3146 35.0738 23.3994 35.0738 23.3994Z" fill="#0F1011"/>
<path d="M32.2944 26.4251C32.4072 26.4251 32.4986 26.3337 32.4986 26.2209C32.4986 26.1081 32.4072 26.0166 32.2944 26.0166C32.1815 26.0166 32.0901 26.1081 32.0901 26.2209C32.0901 26.3337 32.1815 26.4251 32.2944 26.4251Z" fill="#0F1011"/>
<path d="M33.8974 26.2142C34.0102 26.2142 34.1017 26.1227 34.1017 26.0099C34.1017 25.8971 34.0102 25.8057 33.8974 25.8057C33.7846 25.8057 33.6931 25.8971 33.6931 26.0099C33.6931 26.1227 33.7846 26.2142 33.8974 26.2142Z" fill="#0F1011"/>
<path d="M33.6839 25.5775C33.659 25.5771 33.6352 25.5671 33.6176 25.5495C33.5999 25.5319 33.5898 25.5082 33.5894 25.4833C33.5889 25.4584 33.5981 25.4343 33.6151 25.416C33.6321 25.3978 33.6555 25.3869 33.6804 25.3856L34.2211 25.3658C34.2464 25.3651 34.2709 25.3744 34.2893 25.3918C34.3078 25.4091 34.3186 25.4329 34.3195 25.4582C34.3205 25.4835 34.3114 25.5081 34.2943 25.5267C34.2772 25.5453 34.2534 25.5564 34.2282 25.5576L33.6874 25.5775H33.6839Z" fill="#0F1011"/>
<path d="M31.8315 25.8733C31.8085 25.8732 31.7862 25.8648 31.7688 25.8497C31.7514 25.8346 31.7401 25.8137 31.7368 25.7909C31.7335 25.7681 31.7386 25.7448 31.751 25.7254C31.7635 25.706 31.7825 25.6918 31.8046 25.6852L32.3313 25.5301C32.3555 25.5236 32.3813 25.5269 32.4032 25.5392C32.4251 25.5515 32.4413 25.5718 32.4483 25.5959C32.4554 25.62 32.4527 25.6459 32.4409 25.6681C32.4291 25.6902 32.4091 25.7068 32.3851 25.7144L31.8586 25.8688C31.8498 25.8716 31.8407 25.8731 31.8315 25.8733Z" fill="#0F1011"/>
<path d="M31.2573 26.7722C31.274 26.8858 31.2679 27.0016 31.2393 27.1128C31.2108 27.224 31.1605 27.3284 31.0913 27.42C31.022 27.5116 30.9353 27.5885 30.836 27.6463C30.7368 27.704 30.6271 27.7414 30.5133 27.7564C30.3994 27.7713 30.2838 27.7635 30.173 27.7334C30.0622 27.7032 29.9585 27.6513 29.868 27.5807C29.7775 27.5101 29.7019 27.4222 29.6456 27.3222C29.5893 27.2221 29.5535 27.1118 29.5403 26.9978C29.5235 26.8848 29.5296 26.7695 29.5582 26.6589C29.5868 26.5483 29.6374 26.4445 29.707 26.3539C29.7765 26.2632 29.8636 26.1875 29.9631 26.1311C30.0625 26.0748 30.1722 26.0391 30.2857 26.0261C30.9009 25.9763 31.1949 26.2981 31.2573 26.7722Z" fill="#E98862"/>
<g opacity="0.15">
<path d="M33.2522 27.3079C33.2357 27.3078 33.2197 27.3019 33.2071 27.2912C33.1945 27.2806 33.186 27.2658 33.1832 27.2496C33.1803 27.2333 33.1833 27.2166 33.1915 27.2023C33.1997 27.188 33.2127 27.177 33.2282 27.1713L33.637 27.0234L33.315 26.3913C33.3104 26.383 33.3074 26.3739 33.3064 26.3644C33.3053 26.355 33.3062 26.3454 33.3089 26.3363C33.3117 26.3272 33.3162 26.3187 33.3223 26.3114C33.3284 26.3041 33.3359 26.2981 33.3444 26.2938C33.3528 26.2895 33.3621 26.2869 33.3716 26.2863C33.3811 26.2856 33.3906 26.2869 33.3996 26.29C33.4085 26.2932 33.4168 26.2981 33.4238 26.3045C33.4309 26.3109 33.4365 26.3186 33.4405 26.3273L33.7988 27.0306C33.8034 27.0395 33.8061 27.0493 33.8066 27.0593C33.8071 27.0693 33.8055 27.0794 33.8018 27.0887C33.7982 27.098 33.7925 27.1065 33.7853 27.1135C33.7781 27.1205 33.7695 27.1259 33.7601 27.1293L33.2764 27.3042C33.2686 27.3069 33.2604 27.3081 33.2522 27.3079Z" fill="black"/>
</g>
<path d="M32.4675 27.823C32.4675 27.823 33.2245 27.8653 33.7433 27.6548C33.7433 27.6548 33.7636 28.151 33.1701 28.2292C32.5766 28.3075 32.4675 27.823 32.4675 27.823Z" fill="#8732E9"/>
<path d="M38.1932 18.5013L39.6912 17.7643C39.6912 17.7643 39.6665 15.6047 37.7534 14.6592C37.119 14.3458 36.7538 15.057 36.8853 15.2634C37.3201 15.9455 37.8157 16.5633 37.8789 17.2554C37.6265 17.0643 37.2661 16.8236 37.1785 16.934C36.9486 17.2244 38.1932 18.5013 38.1932 18.5013Z" fill="#E98862"/>
<path d="M13.348 62.7597C13.2619 62.7383 12.9997 62.6727 10.5286 61.7334L11.5805 58.9663C12.6278 59.3643 13.8882 59.8331 14.0983 59.8967C14.0849 59.8926 14.0736 59.89 14.0648 59.8877L13.348 62.7597Z" fill="#E98862"/>
<path d="M8.40598 64.9674C8.3838 65.0438 8.37763 65.124 8.38785 65.203C8.39807 65.282 8.42447 65.3579 8.46539 65.4262C8.50631 65.4945 8.56087 65.5537 8.62567 65.5999C8.69048 65.6462 8.76412 65.6786 8.84201 65.6951C8.94995 65.718 9.06219 65.7096 9.16551 65.6708C9.26884 65.6321 9.35894 65.5646 9.42521 65.4764L11.5072 62.4982C11.5473 62.4404 11.5744 62.3747 11.5868 62.3054C11.5991 62.2362 11.5964 62.1651 11.5787 62.097C11.3974 61.5497 11.3966 60.9587 11.5763 60.4109C11.7339 59.9894 12.0068 59.6207 12.3639 59.3468C12.3981 59.3235 12.425 59.291 12.4414 59.2531C12.4578 59.2151 12.4631 59.1733 12.4566 59.1325C12.4502 59.0916 12.4322 59.0534 12.4049 59.0224C12.3776 58.9914 12.342 58.9687 12.3023 58.9572L10.6856 58.4803C10.638 58.4662 10.588 58.4617 10.5386 58.467C10.4891 58.4723 10.4412 58.4873 10.3976 58.5112C10.354 58.5351 10.3156 58.5673 10.2845 58.6061C10.2534 58.6448 10.2302 58.6894 10.2163 58.7371L8.40598 64.9674Z" fill="#C1D8ED"/>
<path d="M25.4524 72.0614L24.9482 69.1443C26.0525 68.9534 27.3761 68.715 27.5891 68.6626C27.575 68.6658 27.5644 68.6692 27.5558 68.6718L28.4006 71.5091C28.3156 71.5345 28.0568 71.6116 25.4524 72.0614Z" fill="#E98862"/>
<path d="M25.2722 75.9258C25.292 76.0029 25.3276 76.0751 25.3766 76.1379C25.4256 76.2006 25.487 76.2526 25.557 76.2905C25.627 76.3285 25.7041 76.3516 25.7834 76.3584C25.8627 76.3652 25.9426 76.3556 26.0181 76.3301C26.1226 76.2949 26.2149 76.2305 26.2841 76.1445C26.3533 76.0585 26.3965 75.9546 26.4085 75.8449L26.6837 72.2219C26.6888 72.1518 26.6787 72.0814 26.6541 72.0155C26.6294 71.9496 26.5908 71.8899 26.5409 71.8403C26.1065 71.4614 25.8051 70.9532 25.681 70.3903C25.602 69.9473 25.649 69.4911 25.8169 69.0736C25.8345 69.0362 25.8411 68.9945 25.8359 68.9534C25.8307 68.9124 25.814 68.8737 25.7876 68.8418C25.7612 68.8099 25.7263 68.7862 25.687 68.7734C25.6476 68.7606 25.6055 68.7593 25.5654 68.7695L23.9318 69.1821C23.8836 69.1943 23.8383 69.2159 23.7985 69.2456C23.7586 69.2754 23.725 69.3127 23.6997 69.3554C23.6743 69.3981 23.6576 69.4455 23.6505 69.4947C23.6435 69.5439 23.6462 69.594 23.6586 69.6421L25.2722 75.9258Z" fill="#C1D8ED"/>
<path d="M41.4755 66.6974L41.4614 66.5781C41.0907 63.4976 39.0266 48.4804 38.7829 46.8931H28.1098C28.1098 46.8931 23.9567 60.4666 23.796 60.8427L13.5926 58.6672L12.312 63.7236L24.874 67.418C25.5408 67.6138 26.2551 67.5692 26.8923 67.292C27.5295 67.0148 28.0491 66.5227 28.3604 65.9014C28.3604 65.9014 32.921 54.2514 33.0125 54.0368L35.828 65.1649L26.3036 67.8756L27.7315 72.8924L39.6025 69.5137C40.1986 69.3437 40.7146 68.9668 41.0579 68.4506C41.4012 67.9345 41.5492 67.3129 41.4755 66.6974Z" fill="#262626"/>
<path d="M18.4448 21.0616L16.8479 21.5484C16.8479 21.5484 15.4981 19.6604 16.2471 17.6621C16.4953 16.9995 17.248 17.2687 17.2937 17.5091C17.443 18.3041 17.3945 19.3897 17.822 19.9377C17.8755 19.6256 17.9737 19.2035 18.1131 19.2241C18.4797 19.2785 18.4448 21.0616 18.4448 21.0616Z" fill="#E98862"/>
<path d="M159.256 15.4306L157.69 14.8513C157.69 14.8513 157.493 12.7006 159.299 11.5636C159.897 11.1866 160.334 11.8565 160.224 12.0754C159.862 12.7985 159.432 13.464 159.441 14.159C159.672 13.9429 160.006 13.6664 160.104 13.7672C160.363 14.0324 159.256 15.4306 159.256 15.4306Z" fill="#E98862"/>
<path d="M178.254 19.6866L179.921 19.7893C179.921 19.7893 180.795 17.6395 179.603 15.8696C179.208 15.2832 178.537 15.7195 178.549 15.9639C178.589 16.7718 178.888 17.8164 178.599 18.4488C178.475 18.1576 178.281 17.7699 178.15 17.8223C177.806 17.9599 178.254 19.6866 178.254 19.6866Z" fill="#E98862"/>
<path d="M180.9 19.3497L179.17 28.4254C179.129 28.6427 179.041 28.8486 178.913 29.0288C178.785 29.2091 178.619 29.3595 178.427 29.4699L171.862 33.2523C171.947 35.5049 169.71 38.0748 169.301 40.4222C168.793 43.3403 169.886 44.8769 169.529 46.3571C168.967 48.6847 157.628 46.14 157.279 44.7007C156.918 43.2192 158.284 42.5804 159.014 38.0624C159.362 35.9112 159.172 33.2229 159.737 31.3663L154.471 24.6701C154.316 24.4729 154.211 24.2409 154.167 23.9942C154.122 23.7476 154.138 23.4937 154.214 23.2547L157.145 14.0352L160.074 14.9656L157.39 23.4098L161.949 29.2066C162.354 29.1496 162.764 29.1505 163.169 29.2094C163.256 29.2207 163.397 29.2418 163.579 29.27C163.483 30.0411 168.212 30.8616 168.449 30.0989C169.05 30.197 169.631 30.3937 170.168 30.6811L176.283 27.1582L177.88 18.7746L180.9 19.3497Z" fill="#8732E9"/>
<path d="M111.067 98.9308C100.48 94.1786 99.4776 74.99 99.9736 73.1669C100.157 72.4926 99.8343 72.3178 99.3556 72.3645C98.7165 72.2902 97.531 72.8906 97.1448 73.0976C96.7587 72.8903 95.5731 72.2899 94.9341 72.3645C94.4548 72.3178 94.1328 72.4926 94.3161 73.1669C94.812 74.99 93.8096 94.1786 83.2231 98.9308C80.9987 99.9293 81.7649 101.118 81.7649 101.118H112.525C112.525 101.118 113.291 99.9293 111.067 98.9308Z" fill="#FCD439"/>
<g opacity="0.09">
<path d="M112.524 101.119H110.55C110.55 101.119 111.317 99.9296 109.093 98.9315C98.5057 94.1793 98.9132 74.9903 99.4094 73.1676C99.5532 72.6375 99.384 72.4162 99.071 72.3683C99.1651 72.3568 99.2601 72.3559 99.3544 72.3654C99.8337 72.3189 100.157 72.4937 99.9733 73.1676C99.477 74.9903 100.479 94.1793 111.066 98.9315C113.291 99.9291 112.524 101.119 112.524 101.119Z" fill="black"/>
</g>
<path d="M139.451 49.4884C136.368 54.2828 132.638 55.6221 128.475 56.8034C124.383 57.965 120.849 58.9673 118.611 62.7327C118.064 63.6265 117.659 64.6001 117.41 65.6184V65.6212C117.353 65.8646 117.308 66.1107 117.275 66.3588C117.238 66.6832 117.123 66.9939 116.94 67.2644C116.784 67.4927 116.573 67.6775 116.325 67.8012C116.078 67.9249 115.803 67.9834 115.527 67.9712C114.695 67.9712 114.209 67.6347 113.926 67.2163C113.675 66.831 113.572 66.3669 113.639 65.9115C113.652 65.8141 113.667 65.7164 113.683 65.6184C113.969 63.9342 114.572 62.3197 115.461 60.8606C118.442 55.8406 123.241 54.4788 127.474 53.2763C131.357 52.1753 134.035 51.1349 136.368 47.5063C137.528 45.699 138.765 41.5502 137.286 38.2529C136.134 35.6872 134.249 34.183 131.685 33.7799C124.684 32.6803 121.396 39.5005 121.259 39.7909C121.049 40.2222 120.678 40.5539 120.226 40.7148C119.774 40.8756 119.277 40.8529 118.841 40.6513C118.406 40.4498 118.067 40.0856 117.897 39.6369C117.728 39.1882 117.74 38.6908 117.933 38.2515C118.793 36.5378 119.942 34.9859 121.331 33.6643C124.414 30.732 128.192 29.5211 132.253 30.1597C136.012 30.749 138.986 33.0905 140.63 36.753C142.503 40.9285 141.435 46.4039 139.451 49.4884Z" fill="#FCD439"/>
<path d="M54.8449 49.4884C57.9279 54.2828 61.94 55.6221 66.1029 56.8034C70.1953 57.965 73.7295 58.9673 75.9667 62.7327C76.5141 63.6265 76.9193 64.6001 77.1678 65.6184V65.6212C77.2254 65.8646 77.2704 66.1107 77.3025 66.3588C77.3398 66.6832 77.4548 66.9939 77.6379 67.2644C77.7938 67.4927 78.0055 67.6775 78.2528 67.8012C78.5001 67.9249 78.7749 67.9834 79.0512 67.9712C79.8829 67.9712 80.3691 67.6347 80.6516 67.2163C80.9034 66.831 81.0055 66.3668 80.9385 65.9115C80.9254 65.8141 80.9109 65.7164 80.8951 65.6184C80.6091 63.9342 80.0058 62.3197 79.1174 60.8606C76.1359 55.8406 71.3372 54.4788 67.1038 53.2763C63.2214 52.1753 60.261 51.1349 57.9279 47.5063C56.7677 45.699 55.8133 41.5502 57.2921 38.2529C58.4439 35.6872 60.3287 34.183 62.8929 33.7799C69.8936 32.6803 73.1825 39.5005 73.3192 39.7909C73.5294 40.2222 73.9002 40.5539 74.3522 40.7148C74.8042 40.8756 75.3012 40.8529 75.7366 40.6513C76.172 40.4498 76.511 40.0856 76.6808 39.6369C76.8506 39.1882 76.8376 38.6908 76.6448 38.2515C75.7854 36.5378 74.636 34.9859 73.2473 33.6643C70.1643 30.732 66.3862 29.5211 62.3248 30.1597C58.5665 30.749 55.592 33.0905 53.9483 36.753C52.0752 40.9285 52.8614 46.4039 54.8449 49.4884Z" fill="#FCD439"/>
<path d="M120.599 27.9497C120.526 27.3167 120.224 26.7324 119.748 26.3082C119.273 25.884 118.658 25.6497 118.021 25.6499H76.5197C75.8825 25.6497 75.2676 25.884 74.7921 26.3082C74.3167 26.7324 74.0139 27.3167 73.9417 27.9497C73.2741 33.8504 72.0809 49.6735 77.1546 58.4039C83.4741 69.2782 93.065 73.1671 95.1309 73.1671H99.4089C101.475 73.1671 111.066 69.2782 117.385 58.4039C122.459 49.6738 121.266 33.8504 120.599 27.9497Z" fill="#FCD439"/>
<g opacity="0.09">
<path d="M120.599 27.9497C120.526 27.3167 120.224 26.7324 119.748 26.3082C119.273 25.884 118.658 25.6497 118.021 25.6499H109.708C109.708 25.6499 111.121 47.3499 108.475 58.224C105.83 69.0982 99.3356 73.1671 99.4096 73.1671C101.475 73.1671 111.066 69.2782 117.386 58.4039C122.459 49.6738 121.266 33.8504 120.599 27.9497Z" fill="black"/>
</g>
<path d="M112.525 101.119H81.7783V108.466H112.525V101.119Z" fill="#0F1011"/>
<path d="M114.398 108.466H79.905V110.233H114.398V108.466Z" fill="#0F1011"/>
<path d="M116.171 110.233H78.1323V112H116.171V110.233Z" fill="#0F1011"/>
<path d="M103.693 53.4067L97.2461 50.0162L90.794 53.4067L92.0286 46.2287L86.8108 41.1434L94.0198 40.0983L97.2461 33.5659L100.464 40.0983L107.676 41.1434L102.459 46.2287L103.693 53.4067Z" fill="white"/>
<path d="M43.5699 24.9468L40.1553 16.9087L37.3262 18.1105L40.3669 25.2683L35.6443 30.7448C35.2423 30.6699 34.8318 30.6522 34.4249 30.6924C34.3375 30.6994 34.1965 30.7149 34.0133 30.7347C33.9116 30.7461 33.794 30.7598 33.6682 30.7744L33.4943 29.8526L28.8534 30.4784L28.9815 31.3631C27.9873 31.5116 27.162 31.8679 26.5905 32.3451L19.9736 28.7712L18.8975 20.4137L15.8489 20.8063L17.0256 29.9454C17.0568 30.1872 17.1451 30.4182 17.2831 30.6192C17.4212 30.8202 17.6051 30.9854 17.8197 31.1013L25.6033 35.3047C25.9291 37.3264 27.5324 39.585 27.7919 41.6176C28.1669 44.5554 27.0067 46.0413 27.2957 47.5356C27.7524 49.8854 39.1937 47.857 39.6082 46.436C40.0353 44.9699 38.7003 44.2719 38.1745 39.7243C37.924 37.5604 38.2362 34.8828 37.7554 33.0029L43.3191 26.5513C43.5066 26.334 43.6295 26.0685 43.6738 25.7849C43.7181 25.5013 43.6821 25.211 43.5699 24.9468Z" fill="#8732E9"/>
<path d="M168.449 30.0984C168.213 30.8611 166.658 31.9522 164.969 31.542C163.703 31.2361 163.483 30.0406 163.579 29.2695C164.561 29.4246 166.762 29.8038 168.445 30.097C168.446 30.0969 168.447 30.097 168.447 30.0973C168.448 30.0975 168.449 30.0979 168.449 30.0984Z" fill="#E98862"/>
</g>
<defs>
<clipPath id="clip0_650_4822">
<rect width="197.431" height="112" fill="white"/>
</clipPath>
</defs>
</svg>
