<svg width="96" height="137" viewBox="0 0 96 137" fill="none" xmlns="http://www.w3.org/2000/svg">
<path fill-rule="evenodd" clip-rule="evenodd" d="M342.384 5.14215C310.673 42.2549 263.526 65.782 210.884 65.782C115.399 65.782 37.9934 -11.624 37.9934 -107.109C37.9934 -121.966 39.8672 -136.384 43.3915 -150.142C75.1021 -187.255 122.249 -210.782 174.891 -210.782C270.376 -210.782 347.782 -133.376 347.782 -37.891C347.782 -23.0345 345.908 -8.61557 342.384 5.14215ZM345.295 1.6434C348.23 -11.0608 349.782 -24.2947 349.782 -37.891C349.782 -134.481 271.481 -212.782 174.891 -212.782C123.12 -212.782 76.6021 -190.287 44.5799 -154.538C45.3724 -157.322 46.2331 -160.078 47.1598 -162.803C78.6041 -205.873 129.479 -233.855 186.889 -233.855C282.374 -233.855 359.78 -156.449 359.78 -60.9637C359.78 -41.478 356.556 -22.7453 350.613 -5.26965C348.898 -2.91968 347.124 -0.614624 345.295 1.6434ZM341.195 9.53766C309.173 45.2868 262.656 67.782 210.884 67.782C114.295 67.782 35.9934 -10.5194 35.9934 -107.109C35.9934 -120.705 37.5449 -133.939 40.4805 -146.643C38.6512 -144.385 36.8777 -142.08 35.162 -139.73C29.2191 -122.255 25.9956 -103.522 25.9956 -84.0363C25.9956 11.4487 103.402 88.8546 198.887 88.8546C256.297 88.8546 307.171 60.8726 338.616 17.8031C339.542 15.0779 340.403 12.3221 341.195 9.53766ZM41.5692 -151.087C42.1092 -153.172 42.6868 -155.242 43.3011 -157.297C42.1144 -155.531 40.9593 -153.743 39.8368 -151.932C39.0078 -149.993 38.2132 -148.035 37.4538 -146.06C38.795 -147.761 40.167 -149.437 41.5692 -151.087ZM50.054 -175.929C76.7791 -238.303 138.729 -282 210.884 -282C307.474 -282 385.775 -203.699 385.775 -107.109C385.775 -73.4007 376.239 -41.9197 359.717 -15.2168C356.282 -7.19955 352.265 0.509064 347.719 7.85599C344.284 15.8732 340.267 23.5818 335.721 30.9287C308.996 93.3033 247.047 137 174.891 137C78.3014 137 0 58.6987 0 -37.891C0 -71.5993 9.53637 -103.08 26.0584 -129.783C29.4934 -137.8 33.5104 -145.509 38.0562 -152.856C41.4912 -160.873 45.5082 -168.582 50.054 -175.929ZM57.5611 -187.081C86.4257 -242.307 144.253 -280 210.884 -280C306.369 -280 383.775 -202.594 383.775 -107.109C383.775 -78.4931 376.823 -51.5009 364.516 -27.7293C370.521 -45.3982 373.778 -64.3369 373.778 -84.0363C373.778 -180.626 295.476 -258.927 198.887 -258.927C140.824 -258.927 89.3707 -230.633 57.5611 -187.081ZM51.8346 -175.005C82.3182 -224.177 136.778 -256.927 198.887 -256.927C294.372 -256.927 371.778 -179.521 371.778 -84.0363C371.778 -59.9345 366.846 -36.9846 357.936 -16.1407C356.814 -14.3299 355.659 -12.5414 354.472 -10.776C359.226 -26.6731 361.78 -43.5202 361.78 -60.9637C361.78 -157.553 283.478 -235.855 186.889 -235.855C131.136 -235.855 81.4768 -209.767 49.4516 -169.132C50.211 -171.107 51.0056 -173.065 51.8346 -175.005ZM348.322 1.05957C347.562 3.03479 346.768 4.99252 345.939 6.93204C344.816 8.7428 343.661 10.5313 342.474 12.2967C343.089 10.2424 343.666 8.17236 344.206 6.08719C345.608 4.43741 346.98 2.76123 348.322 1.05957ZM198.887 90.8546C254.639 90.8546 304.299 64.7668 336.324 24.1323C335.564 26.1075 334.77 28.0652 333.941 30.0048C303.457 79.1775 248.998 111.927 186.889 111.927C91.4037 111.927 13.9978 34.5214 13.9978 -60.9637C13.9978 -85.0654 18.9296 -108.015 27.839 -128.859C28.9615 -130.67 30.1166 -132.458 31.3033 -134.224C26.5493 -118.327 23.9956 -101.48 23.9956 -84.0363C23.9956 12.5533 102.297 90.8546 198.887 90.8546ZM328.214 42.081C296.405 85.6333 244.951 113.927 186.889 113.927C90.2991 113.927 11.9978 35.626 11.9978 -60.9637C11.9978 -80.6631 15.2548 -99.6018 21.2596 -117.271C8.95217 -93.4991 2 -66.5069 2 -37.891C2 57.5941 79.4059 135 174.891 135C241.522 135 299.35 97.3072 328.214 42.081Z" fill="#FADF4B"/>
</svg>
