<svg width="390" height="500" viewBox="0 0 390 500" fill="none" xmlns="http://www.w3.org/2000/svg">
<path opacity="0.1" d="M396.647 209.849L397.094 209.624C397.084 209.604 397.073 209.585 397.06 209.567L396.647 209.849ZM435.518 310.115L436.007 310.008C436.003 309.989 435.997 309.97 435.991 309.952L435.518 310.115ZM419.671 264.082L420.144 263.919L420.143 263.917L419.671 264.082ZM409.881 236.101L410.353 235.936C410.346 235.916 410.337 235.895 410.327 235.876L409.881 236.101ZM355.757 147.898L356.177 147.627C356.161 147.602 356.142 147.578 356.122 147.556L355.757 147.898ZM338.078 129.058L338.443 128.716L338.436 128.71L338.078 129.058ZM289.37 83.9203L289.728 83.5716C289.688 83.5305 289.641 83.4966 289.59 83.4713L289.37 83.9203ZM306.572 96.6693L306.931 96.3207C306.911 96.3009 306.891 96.2828 306.868 96.2664L306.572 96.6693ZM267.035 67.6102L266.737 68.0117L266.739 68.0131L267.035 67.6102ZM202.602 32.2019L202.838 31.7609C202.819 31.7508 202.799 31.7419 202.779 31.7342L202.602 32.2019ZM253.889 57.8534L254.187 57.4519C254.155 57.4279 254.12 57.4078 254.083 57.3922L253.889 57.8534ZM162.672 17.101L162.829 16.6265C162.816 16.6222 162.803 16.6184 162.79 16.6152L162.672 17.101ZM120.526 6.82104L120.645 6.33528C120.625 6.3305 120.605 6.32691 120.585 6.32453L120.526 6.82104ZM166.808 19.0035C167.07 19.0906 167.353 18.9489 167.441 18.6868C167.528 18.4248 167.386 18.1417 167.124 18.0546L166.808 19.0035ZM77.8135 1.7483L77.8725 1.25166L77.8615 1.25061L77.8135 1.7483ZM70.0576 1L70.1056 0.502311C70.0883 0.500642 70.0709 0.499876 70.0535 0.500016L70.0576 1ZM22.4847 1.3838L22.4806 0.883812C22.4577 0.883997 22.4347 0.885766 22.412 0.889106L22.4847 1.3838ZM-22.0458 7.92595L-22.1185 7.43126C-22.1299 7.43294 -22.1413 7.43501 -22.1525 7.43747L-22.0458 7.92595ZM-40.5351 11.964L-40.6418 11.4756C-40.6562 11.4787 -40.6704 11.4825 -40.6844 11.4869L-40.5351 11.964ZM-84.8893 25.8422L-85.0386 25.365C-85.0542 25.3699 -85.0695 25.3755 -85.0845 25.3819L-84.8893 25.8422ZM-106.628 35.0598L-106.823 34.5995C-106.837 34.6053 -106.85 34.6117 -106.863 34.6187L-106.628 35.0598ZM-147.457 56.8479L-147.692 56.4068C-147.702 56.412 -147.712 56.4176 -147.721 56.4235L-147.457 56.8479ZM-37.7026 18.7195L-37.6595 18.2214C-37.6852 18.2191 -37.7111 18.2189 -37.7369 18.2207L-37.7026 18.7195ZM-170.784 71.3811L-171.048 70.9567C-171.071 70.9708 -171.093 70.9867 -171.113 71.0042L-170.784 71.3811ZM-228.026 120.677L-228.349 120.296C-228.365 120.309 -228.381 120.324 -228.395 120.34L-228.026 120.677ZM-248.597 143.169L-248.966 142.832C-248.984 142.851 -249 142.873 -249.015 142.895L-248.597 143.169ZM-292.491 208.248L-292.901 207.961C-292.912 207.977 -292.923 207.994 -292.932 208.012L-292.491 208.248ZM-307.771 236.747L-308.212 236.51C-308.221 236.528 -308.229 236.546 -308.237 236.564L-307.771 236.747ZM-319.602 266.958L-320.067 266.776C-320.074 266.794 -320.08 266.813 -320.085 266.832L-319.602 266.958ZM-328.345 298.479C-328.415 298.746 -328.255 299.019 -327.987 299.089C-327.72 299.158 -327.447 298.998 -327.377 298.731L-328.345 298.479ZM-345.26 377.428L-345.756 377.358C-345.758 377.378 -345.76 377.397 -345.76 377.416L-345.26 377.428ZM-346 410.342L-346.5 410.331C-346.5 410.342 -346.5 410.354 -346.499 410.365L-346 410.342ZM-343.845 458.393L-344.345 458.415C-344.344 458.424 -344.344 458.432 -344.343 458.44L-343.845 458.393ZM-340.709 344.865L-341.193 344.739C-341.198 344.758 -341.202 344.777 -341.204 344.796L-340.709 344.865ZM-332.387 312.992L-332.853 312.811C-332.86 312.829 -332.866 312.847 -332.87 312.866L-332.387 312.992ZM-340.816 490.196L-341.314 490.244C-341.312 490.264 -341.309 490.284 -341.304 490.303L-340.816 490.196ZM-334.015 521.28L-334.504 521.387C-334.499 521.407 -334.494 521.426 -334.487 521.445L-334.015 521.28ZM-323.511 551.349L-323.038 551.186L-323.039 551.184L-323.511 551.349ZM-308.379 595.294L-308.852 595.457C-308.844 595.479 -308.836 595.499 -308.825 595.52L-308.379 595.294ZM-295.135 621.545L-295.582 621.77C-295.574 621.786 -295.565 621.801 -295.555 621.816L-295.135 621.545ZM-268.981 662.07L-269.401 662.341C-269.398 662.345 -269.395 662.349 -269.393 662.353L-268.981 662.07ZM-318.165 567.313L-318.654 567.416C-318.642 567.476 -318.618 567.533 -318.585 567.584L-318.165 567.313ZM-254.243 683.495L-254.655 683.778C-254.641 683.799 -254.625 683.819 -254.608 683.837L-254.243 683.495ZM-236.569 702.336L-236.933 702.678L-236.927 702.684L-236.569 702.336ZM-205.068 734.729L-205.427 735.078C-205.407 735.097 -205.387 735.116 -205.364 735.132L-205.068 734.729ZM-219.806 718.902L-220.226 719.174C-220.193 719.225 -220.151 719.269 -220.102 719.305L-219.806 718.902ZM-152.388 773.532L-152.686 773.934C-152.666 773.948 -152.645 773.962 -152.624 773.973L-152.388 773.532ZM-111.057 795.611L-111.292 796.052C-111.273 796.062 -111.254 796.071 -111.233 796.078L-111.057 795.611ZM-65.4444 812.865L-65.6213 813.333C-65.6147 813.336 -65.608 813.338 -65.6013 813.34L-65.4444 812.865ZM77.9028 355.927L78.3962 356.008L78.3965 356.006L77.9028 355.927ZM71.3256 395.917L71.8186 396.001L71.819 395.999L71.3256 395.917ZM64.5491 436.082L65.0418 436.167L65.0421 436.166L64.5491 436.082ZM57.643 476.063L58.1354 476.15L58.1357 476.148L57.643 476.063ZM-20.7351 498.187C-21.0034 498.121 -21.274 498.286 -21.3394 498.554C-21.405 498.822 -21.2406 499.093 -20.9723 499.158L-20.7351 498.187ZM49.2231 515.782L49.1045 516.267C49.1241 516.272 49.1441 516.276 49.1642 516.278L49.2231 515.782ZM-30.2086 536.023C-30.4769 535.957 -30.7475 536.122 -30.813 536.39C-30.8784 536.658 -30.714 536.929 -30.4457 536.994L-30.2086 536.023ZM42.1302 554.707C42.3985 554.773 42.669 554.608 42.7345 554.34C42.8 554.072 42.6356 553.801 42.3673 553.736L42.1302 554.707ZM-38.9174 572.678C-39.1857 572.612 -39.4562 572.777 -39.5217 573.045C-39.5872 573.313 -39.4229 573.584 -39.1546 573.649L-38.9174 572.678ZM35.3388 591.322L35.2202 591.807C35.2399 591.812 35.2599 591.816 35.2799 591.818L35.3388 591.322ZM-46.7827 607.841C-47.051 607.775 -47.3215 607.94 -47.3869 608.208C-47.4523 608.476 -47.2879 608.747 -47.0196 608.812L-46.7827 607.841ZM28.581 626.736L28.4626 627.221C28.4821 627.226 28.502 627.23 28.5221 627.232L28.581 626.736ZM-61.1682 814.279L-61.3252 814.754C-61.3126 814.758 -61.2998 814.762 -61.2869 814.765L-61.1682 814.279ZM-19.1384 825.061C-18.8701 825.126 -18.5995 824.962 -18.534 824.694C-18.4685 824.425 -18.6328 824.155 -18.9011 824.089L-19.1384 825.061ZM-17.3338 824.603L-17.7626 824.346C-17.8498 824.491 -17.8574 824.671 -17.7826 824.823C-17.7079 824.975 -17.561 825.079 -17.3926 825.099L-17.3338 824.603ZM31.4465 830.384L31.3877 830.88C31.4085 830.883 31.4294 830.884 31.4504 830.884L31.4465 830.384ZM105.041 636.316C105.315 636.348 105.564 636.152 105.596 635.878C105.629 635.604 105.433 635.355 105.159 635.323L105.041 636.316ZM30.029 626.422L30.5196 626.518L30.5201 626.516L30.029 626.422ZM110.698 600.764C110.972 600.796 111.221 600.6 111.254 600.326C111.286 600.052 111.09 599.803 110.816 599.771L110.698 600.764ZM36.8017 591.005L37.2928 591.099L37.2933 591.096L36.8017 591.005ZM120.259 524.204L120.201 524.7C120.221 524.703 120.242 524.704 120.263 524.704L120.259 524.204ZM50.6711 515.468L51.163 515.557L51.1634 515.555L50.6711 515.468ZM56.254 475.88C55.9798 475.847 55.7311 476.043 55.6986 476.317C55.666 476.592 55.8619 476.84 56.1361 476.873L56.254 475.88ZM124.016 484.431L123.957 484.928C123.978 484.93 123.999 484.931 124.02 484.931L124.016 484.431ZM63.16 435.9C62.8858 435.867 62.6371 436.063 62.6046 436.337C62.5721 436.611 62.7679 436.86 63.0422 436.893L63.16 435.9ZM127.034 443.984L126.975 444.481C126.996 444.483 127.017 444.484 127.038 444.484L127.034 443.984ZM69.9366 395.735C69.6624 395.702 69.4137 395.898 69.3811 396.172C69.3486 396.447 69.5445 396.695 69.8187 396.728L69.9366 395.735ZM129.318 403.287L129.259 403.783C129.28 403.786 129.301 403.787 129.322 403.787L129.318 403.287ZM76.4987 355.747C76.2245 355.715 75.9759 355.911 75.9434 356.185C75.9109 356.459 76.1068 356.708 76.381 356.74L76.4987 355.747ZM130.828 362.692L130.769 363.188C130.79 363.191 130.811 363.192 130.832 363.192L130.828 362.692ZM132.261 362.381L132.761 362.4L132.761 362.39L132.261 362.381ZM183.844 362.768C184.12 362.766 184.342 362.541 184.34 362.265C184.338 361.988 184.112 361.766 183.836 361.769L183.844 362.768ZM130.766 402.973L131.265 403.001L131.266 402.991L130.766 402.973ZM187.289 403.321C187.565 403.319 187.787 403.093 187.785 402.817C187.783 402.541 187.557 402.319 187.281 402.321L187.289 403.321ZM128.482 443.67L128.98 443.708L128.981 443.698L128.482 443.67ZM189.387 443.985C189.663 443.983 189.885 443.757 189.883 443.481C189.881 443.205 189.655 442.983 189.379 442.985L189.387 443.985ZM125.449 484.121L125.947 484.167L125.948 484.158L125.449 484.121ZM190.144 484.4C190.42 484.398 190.642 484.172 190.64 483.896C190.638 483.62 190.412 483.398 190.136 483.4L190.144 484.4ZM121.707 523.89L122.204 523.947L122.205 523.937L121.707 523.89ZM189.544 524.159C189.82 524.157 190.042 523.932 190.04 523.655C190.037 523.379 189.812 523.157 189.536 523.159L189.544 524.159ZM79.0212 830.009L79.0251 830.509C79.0482 830.509 79.0711 830.507 79.0939 830.504L79.0212 830.009ZM123.552 823.469L123.625 823.963C123.636 823.962 123.647 823.96 123.659 823.957L123.552 823.469ZM142.041 819.429L142.148 819.917C142.162 819.914 142.176 819.911 142.19 819.906L142.041 819.429ZM208.133 796.332L208.329 796.792C208.342 796.786 208.356 796.78 208.369 796.773L208.133 796.332ZM186.394 805.544L186.543 806.022C186.559 806.017 186.574 806.011 186.589 806.005L186.394 805.544ZM248.976 774.532L249.211 774.974C249.221 774.968 249.231 774.963 249.24 774.957L248.976 774.532ZM272.288 760.003L272.553 760.427C272.575 760.413 272.597 760.397 272.617 760.379L272.288 760.003ZM293.472 742.153L293.707 742.594C293.741 742.576 293.772 742.554 293.801 742.53L293.472 742.153ZM367.779 663.11L368.187 663.398C368.191 663.393 368.194 663.389 368.197 663.384L367.779 663.11ZM350.102 688.221L350.471 688.558C350.485 688.542 350.499 688.526 350.511 688.509L350.102 688.221ZM329.544 710.698L329.873 711.075C329.887 711.063 329.901 711.05 329.913 711.036L329.544 710.698ZM306.616 730.733C306.824 730.551 306.845 730.236 306.664 730.028C306.482 729.819 306.166 729.798 305.958 729.979L306.616 730.733ZM393.997 623.135L394.415 623.409C394.423 623.397 394.431 623.384 394.438 623.371L393.997 623.135ZM409.285 594.646L409.725 594.883C409.735 594.865 409.743 594.847 409.75 594.828L409.285 594.646ZM421.108 564.437L421.573 564.619C421.58 564.603 421.585 564.587 421.59 564.57L421.108 564.437ZM429.366 532.79L429.784 533.064C429.824 533.003 429.851 532.933 429.861 532.86L429.366 532.79ZM444.424 388.082L444.906 388.216C444.92 388.165 444.926 388.112 444.923 388.06L444.424 388.082ZM447.502 421.037L448.002 421.048C448.002 421.037 448.002 421.026 448.001 421.015L447.502 421.037ZM446.762 453.968L447.257 454.037C447.26 454.018 447.262 453.999 447.262 453.979L446.762 453.968ZM433.89 518.387L434.372 518.521L434.374 518.513L433.89 518.387ZM442.212 486.513L442.696 486.64C442.701 486.621 442.705 486.602 442.708 486.583L442.212 486.513ZM442.322 341.198L442.82 341.151C442.818 341.131 442.815 341.111 442.81 341.091L442.322 341.198ZM445.36 373L445.86 372.977C445.859 372.969 445.859 372.96 445.858 372.952L445.36 373ZM425.02 280.028L425.492 279.864C425.485 279.845 425.477 279.826 425.469 279.808L425.02 280.028ZM154.746 90.616L153.059 85.7338L152.114 86.0605L153.801 90.9426L154.746 90.616ZM191.584 97.4715L188.233 87.751L187.287 88.0769L190.638 97.7974L191.584 97.4715ZM227.075 107.385L222.095 92.9218L221.15 93.2473L226.13 107.71L227.075 107.385ZM260.874 120.259L254.31 101.201L253.364 101.527L259.929 120.585L260.874 120.259ZM292.651 135.995L284.565 112.506L283.619 112.832L291.705 136.32L292.651 135.995ZM322.105 154.411L312.576 126.733L311.63 127.059L321.159 154.736L322.105 154.411ZM348.939 175.342L338.064 143.733L337.119 144.058L347.993 175.667L348.939 175.342ZM372.928 198.592L360.784 163.362L359.839 163.688L371.983 198.918L372.928 198.592ZM393.794 223.928L380.541 185.419L379.595 185.744L392.848 224.253L393.794 223.928ZM411.378 251.103L397.12 209.686L396.175 210.011L410.433 251.429L411.378 251.103ZM435.991 309.952L420.144 263.919L419.198 264.245L435.046 310.277L435.991 309.952ZM409.409 236.266L419.199 264.247L420.143 263.917L410.353 235.936L409.409 236.266ZM396.201 210.074L409.434 236.326L410.327 235.876L397.094 209.624L396.201 210.074ZM379.655 185.864L396.234 210.131L397.06 209.567L380.481 185.3L379.655 185.864ZM359.939 163.859L379.696 185.915L380.441 185.248L360.684 163.192L359.939 163.859ZM380.488 185.311L356.177 147.627L355.337 148.169L379.648 185.853L380.488 185.311ZM337.265 144.274L359.985 163.904L360.639 163.147L337.918 143.517L337.265 144.274ZM360.732 163.254L338.498 128.787L337.658 129.329L359.892 163.796L360.732 163.254ZM311.826 127.312L337.314 144.312L337.869 143.48L312.38 126.48L311.826 127.312ZM338.012 143.625L318.06 112.706L317.22 113.248L337.171 144.167L338.012 143.625ZM283.866 113.115L311.877 127.342L312.33 126.45L284.319 112.223L283.866 113.115ZM312.523 126.625L295.035 99.5428L294.195 100.085L311.683 127.167L312.523 126.625ZM253.662 101.832L283.917 113.137L284.267 112.2L254.012 100.895L253.662 101.832ZM284.512 112.398L269.679 89.4201L268.839 89.9625L283.672 112.94L284.512 112.398ZM222.043 92.8137L212.922 78.6619L212.081 79.2036L221.202 93.3554L222.043 92.8137ZM221.498 93.5688L253.712 101.848L253.961 100.88L221.747 92.6003L221.498 93.5688ZM254.257 101.093L242.216 82.4388L241.376 82.9811L253.417 101.635L254.257 101.093ZM187.685 88.4082L221.547 93.5788L221.698 92.5903L187.836 87.4197L187.685 88.4082ZM152.558 86.3963L187.732 88.4131L187.789 87.4147L152.615 85.3979L152.558 86.3963ZM188.181 87.6432L182.054 78.1314L181.213 78.6729L187.34 88.1847L188.181 87.6432ZM149.083 81.3904L152.166 86.1682L153.006 85.626L149.923 80.8482L149.083 81.3904ZM152.57 85.3974L116.415 86.5575L116.448 87.557L152.602 86.3969L152.57 85.3974ZM116.52 87.5494L149.591 81.6115L149.415 80.6272L116.343 86.5651L116.52 87.5494ZM149.861 80.7708L145.496 76.2807L144.779 76.9777L149.144 81.4679L149.861 80.7708ZM149.545 81.6176L181.676 78.9004L181.591 77.9039L149.461 80.6211L149.545 81.6176ZM181.992 78.0536L173.301 69.117L172.585 69.8142L181.275 78.7507L181.992 78.0536ZM181.625 78.9021L212.493 79.4327L212.51 78.4328L181.642 77.9022L181.625 78.9021ZM212.86 78.5841L199.924 65.2887L199.207 65.9861L212.143 79.2815L212.86 78.5841ZM212.438 79.4287L241.732 83.2059L241.86 82.2141L212.566 78.4369L212.438 79.4287ZM242.155 82.3614L225.106 64.8337L224.389 65.531L241.438 83.0586L242.155 82.3614ZM241.673 83.1946L269.136 90.1759L269.383 89.2067L241.919 82.2254L241.673 83.1946ZM269.618 89.3427L248.615 67.7532L247.898 68.4505L268.901 90.04L269.618 89.3427ZM269.074 90.1557L294.429 100.278L294.8 99.3496L269.445 89.227L269.074 90.1557ZM294.973 99.4654L270.227 74.0187L269.51 74.7159L294.256 100.163L294.973 99.4654ZM294.367 100.248L317.392 113.411L317.888 112.543L294.863 99.3799L294.367 100.248ZM317.998 112.629L290.089 83.9422L289.372 84.6395L317.282 113.326L317.998 112.629ZM290.089 83.9422L289.728 83.5716L289.012 84.269L289.372 84.6395L290.089 83.9422ZM317.331 113.37L337.769 129.451L338.387 128.665L317.949 112.584L317.331 113.37ZM338.436 128.71L306.931 96.3207L306.214 97.018L337.72 129.407L338.436 128.71ZM337.713 129.4L355.393 148.24L356.122 147.556L338.443 128.716L337.713 129.4ZM306.868 96.2664L290.027 83.888L289.434 84.6937L306.276 97.0722L306.868 96.2664ZM290.027 83.888L289.235 83.3065L288.643 84.1122L289.434 84.6937L290.027 83.888ZM289.235 83.3065L267.332 67.2074L266.739 68.0131L288.643 84.1122L289.235 83.3065ZM269.648 74.8163L288.719 84.1584L289.159 83.2603L270.088 73.9183L269.648 74.8163ZM288.719 84.1584L289.15 84.3693L289.59 83.4713L289.159 83.2603L288.719 84.1584ZM248.117 68.582L269.729 74.8475L270.007 73.887L248.395 67.6216L248.117 68.582ZM270.164 73.9644L239.099 51.1344L238.507 51.9402L269.572 74.7702L270.164 73.9644ZM224.686 65.6786L248.194 68.598L248.318 67.6056L224.809 64.6862L224.686 65.6786ZM248.552 67.6989L222.195 48.3272L221.602 49.133L247.96 68.5047L248.552 67.6989ZM199.574 66.1374L224.756 65.6823L224.738 64.6824L199.556 65.1375L199.574 66.1374ZM225.043 64.7795L203.648 49.0532L203.056 49.859L224.451 65.5852L225.043 64.7795ZM173.014 69.9605L199.636 66.1323L199.494 65.1425L172.872 68.9707L173.014 69.9605ZM199.861 65.2345L183.629 53.3066L183.037 54.1124L199.269 66.0404L199.861 65.2345ZM145.263 77.1134L173.068 69.9498L172.818 68.9814L145.013 76.145L145.263 77.1134ZM173.239 69.0625L162.317 61.0498L161.726 61.8561L172.647 69.8688L173.239 69.0625ZM116.602 87.5272L145.309 77.0991L144.967 76.1592L116.261 86.5873L116.602 87.5272ZM139.368 73.0028L144.841 77.0318L145.434 76.2265L139.961 72.1975L139.368 73.0028ZM116.696 87.4818L139.929 73.0246L139.401 72.1756L116.167 86.6327L116.696 87.4818ZM139.9 72.1589L133.506 68.7502L133.036 69.6326L139.43 73.0413L139.9 72.1589ZM139.888 73.0476L162.245 61.9004L161.798 61.0055L139.442 72.1527L139.888 73.0476ZM162.257 61.012L149.552 54.2191L149.08 55.101L161.786 61.8939L162.257 61.012ZM162.192 61.9229L183.504 54.1794L183.162 53.2395L161.851 60.983L162.192 61.9229ZM183.568 53.2684L164.644 43.1663L164.173 44.0485L183.098 54.1506L183.568 53.2684ZM183.437 54.1986L203.456 49.9452L203.248 48.967L183.229 53.2204L183.437 54.1986ZM203.587 49.0151L178.649 35.6969L178.178 36.579L203.116 49.8972L203.587 49.0151ZM203.371 49.9557L221.918 49.2298L221.879 48.2305L203.332 48.9565L203.371 49.9557ZM222.134 48.2891L191.424 31.8822L190.953 32.7642L221.663 49.1711L222.134 48.2891ZM221.817 49.2234L238.721 52.0305L238.885 51.044L221.98 48.2369L221.817 49.2234ZM239.039 51.0962L202.838 31.7609L202.367 32.643L238.567 51.9783L239.039 51.0962ZM238.61 51.9985L253.696 58.3147L254.083 57.3922L238.996 51.0761L238.61 51.9985ZM253.591 58.2549L266.737 68.0117L267.333 67.2087L254.187 57.4519L253.591 58.2549ZM191.194 32.8232L202.608 32.7019L202.597 31.7019L191.183 31.8233L191.194 32.8232ZM202.779 31.7342L162.849 16.6333L162.495 17.5686L202.425 32.6696L202.779 31.7342ZM178.556 36.617L191.332 32.8023L191.046 31.8441L178.27 35.6588L178.556 36.617ZM191.366 31.8555L157.47 19.0446L157.116 19.98L191.012 32.791L191.366 31.8555ZM164.644 44.0486L178.649 36.5791L178.178 35.6967L164.173 43.1662L164.644 44.0486ZM178.59 35.6702L151.08 25.2698L150.726 26.2052L178.236 36.6056L178.59 35.6702ZM149.611 55.0635L164.704 44.0108L164.113 43.204L149.021 54.2567L149.611 55.0635ZM164.585 43.1397L143.729 35.2488L143.375 36.1841L164.232 44.075L164.585 43.1397ZM133.448 68.7237L126.406 66.0594L126.052 66.9947L133.094 69.659L133.448 68.7237ZM133.606 69.562L149.652 55.0307L148.98 54.2895L132.935 68.8208L133.606 69.562ZM126.671 66.7606L135.742 49.5912L134.857 49.1241L125.787 66.2934L126.671 66.7606ZM149.493 54.1924L135.476 48.89L135.123 49.8253L149.139 55.1277L149.493 54.1924ZM116.883 87.2726L126.68 66.7424L125.778 66.3117L115.98 86.8419L116.883 87.2726ZM116.795 87.4002L133.635 69.5343L132.907 68.8484L116.068 86.7143L116.795 87.4002ZM116.929 87.1098L119.29 64.765L118.296 64.6599L115.934 87.0047L116.929 87.1098ZM118.675 65.1982L126.11 67.0128L126.347 66.0413L118.912 64.2267L118.675 65.1982ZM119.291 64.7571L120.992 45.7932L119.996 45.7039L118.295 64.6678L119.291 64.7571ZM135.418 48.8719L120.613 45.2628L120.376 46.2343L135.181 49.8435L135.418 48.8719ZM135.727 49.6165L143.979 35.9753L143.124 35.4577L134.872 49.0989L135.727 49.6165ZM143.67 35.2307L121.642 29.8607L121.405 30.8323L143.433 36.2022L143.67 35.2307ZM143.954 36.013L151.305 26.034L150.5 25.4409L143.149 35.4199L143.954 36.013ZM151.021 25.2518L121.998 18.1683L121.76 19.1398L150.784 26.2232L151.021 25.2518ZM151.252 26.0956L157.642 19.8705L156.944 19.1542L150.554 25.3793L151.252 26.0956ZM157.412 19.0266L121.67 10.3003L121.433 11.2717L157.174 19.998L157.412 19.0266ZM157.497 19.9686L162.876 17.5572L162.467 16.6447L157.088 19.0561L157.497 19.9686ZM162.79 16.6152L120.645 6.33528L120.408 7.3068L162.553 17.5867L162.79 16.6152ZM162.514 17.5754L166.808 19.0035L167.124 18.0546L162.829 16.6265L162.514 17.5754ZM122.036 10.6608L121.01 6.69583L120.042 6.94625L121.068 10.9112L122.036 10.6608ZM120.585 6.32453L77.8725 1.25178L77.7545 2.24481L120.467 7.31755L120.585 6.32453ZM122.379 18.6333L122.051 10.7652L121.052 10.8068L121.379 18.6748L122.379 18.6333ZM121.611 10.2895L85.3666 5.98701L85.2487 6.98003L121.493 11.2825L121.611 10.2895ZM122.023 30.3617L122.379 18.6692L121.379 18.6388L121.024 30.3313L122.023 30.3617ZM121.938 18.1575L92.5128 14.6657L92.3949 15.6587L121.82 19.1506L121.938 18.1575ZM120.993 45.7819L122.022 30.3799L121.025 30.3132L119.995 45.7152L120.993 45.7819ZM121.583 29.85L99.2625 27.2L99.1446 28.193L121.465 30.843L121.583 29.85ZM118.852 64.2159L111.317 63.3216L111.199 64.3147L118.734 65.209L118.852 64.2159ZM120.553 45.2521L105.561 43.4693L105.443 44.4623L120.435 46.2451L120.553 45.2521ZM116.92 86.9486L111.746 63.7095L110.77 63.9268L115.943 87.1659L116.92 86.9486ZM111.254 63.3182L103.905 63.377L103.913 64.377L111.262 64.3181L111.254 63.3182ZM111.738 63.6789L105.982 43.8266L105.022 44.105L110.777 63.9574L111.738 63.6789ZM105.498 43.4658L90.8629 43.5848L90.871 44.5847L105.506 44.4658L105.498 43.4658ZM105.968 43.7853L99.6698 27.516L98.7373 27.877L105.036 44.1463L105.968 43.7853ZM99.1995 27.1965L77.433 27.373L77.4411 28.373L99.2076 28.1965L99.1995 27.1965ZM99.6438 27.4595L92.894 14.9251L92.0136 15.3992L98.7633 27.9336L99.6438 27.4595ZM92.4498 14.6622L63.7537 14.8934L63.7618 15.8934L92.4579 15.6622L92.4498 14.6622ZM92.8398 14.8443L85.6936 6.16569L84.9217 6.80135L92.0678 15.48L92.8398 14.8443ZM85.3036 5.98354L49.9429 6.27102L49.951 7.27099L85.3117 6.9835L85.3036 5.98354ZM85.5747 6.06083L78.0806 1.3256L77.5464 2.17099L85.0406 6.90621L85.5747 6.06083ZM77.8094 1.24831L36.1406 1.58518L36.1487 2.58515L77.8175 2.24828L77.8094 1.24831ZM77.8615 1.25061L70.1056 0.502311L70.0095 1.49769L77.7655 2.24598L77.8615 1.25061ZM70.0535 0.500016L22.4806 0.883812L22.4887 1.88378L70.0616 1.49998L70.0535 0.500016ZM36.1703 1.58582L22.5103 0.884454L22.459 1.88314L36.119 2.58451L36.1703 1.58582ZM22.412 0.889106L-22.1185 7.43126L-21.9732 8.42064L22.5573 1.87849L22.412 0.889106ZM50.1077 6.29755L36.3054 1.61171L35.9839 2.55863L49.7862 7.24446L50.1077 6.29755ZM36.072 1.59048L-2.92252 7.31917L-2.77716 8.30856L36.2173 2.57986L36.072 1.59048ZM64.0226 14.9693L50.2118 6.34688L49.6822 7.19513L63.493 15.8175L64.0226 14.9693ZM49.8743 6.27632L16.779 11.139L16.9243 12.1284L50.0197 7.26569L49.8743 6.27632ZM77.774 27.5036L64.0948 15.024L63.4208 15.7628L77.1001 28.2424L77.774 27.5036ZM63.6851 14.8987L36.8214 18.8447L36.9668 19.8341L63.8304 15.8881L63.6851 14.8987ZM91.252 43.7658L77.8221 27.554L77.052 28.192L90.4819 44.4037L91.252 43.7658ZM77.3644 27.3783L56.9898 30.3714L57.1352 31.3608L77.5097 28.3677L77.3644 27.3783ZM104.326 63.6019L91.2845 43.8096L90.4494 44.3599L103.491 64.1521L104.326 63.6019ZM90.7943 43.5901L77.1053 45.6008L77.2507 46.5902L90.9396 44.5794L90.7943 43.5901ZM116.871 86.8196L104.349 63.6394L103.469 64.1147L115.992 87.2949L116.871 86.8196ZM97.099 65.382L103.981 64.3717L103.836 63.3823L96.9538 64.3926L97.099 65.382ZM116.808 86.7279L97.4026 64.558L96.6502 65.2166L116.055 87.3866L116.808 86.7279ZM96.877 64.4102L90.7336 66.3341L91.0325 67.2884L97.1758 65.3645L96.877 64.4102ZM97.3701 64.5242L77.5218 45.7324L76.8342 46.4585L96.6826 65.2504L97.3701 64.5242ZM91.1558 66.3922L65.2074 49.5067L64.6619 50.3448L90.6104 67.2303L91.1558 66.3922ZM77.0287 45.6183L64.7854 49.4486L65.0839 50.403L77.3273 46.5727L77.0287 45.6183ZM77.4798 45.6968L57.3643 30.4674L56.7607 31.2647L76.8762 46.4941L77.4798 45.6968ZM56.9132 30.3889L38.7023 36.087L39.0009 37.0414L57.2118 31.3433L56.9132 30.3889ZM57.3106 30.432L37.1422 18.9053L36.646 19.7735L56.8144 31.3002L57.3106 30.432ZM36.7448 18.8622L12.7424 26.3736L13.0411 27.328L37.0434 19.8166L36.7448 18.8622ZM37.0735 18.8727L17.0311 11.167L16.6722 12.1004L36.7147 19.8061L37.0735 18.8727ZM16.7024 11.1565L-12.8572 20.406L-12.5586 21.3603L17.001 12.1109L16.7024 11.1565ZM16.9468 11.1429L-2.75467 7.32301L-2.94501 8.30472L16.7565 12.1246L16.9468 11.1429ZM-2.85275 7.31387L-22.0488 7.42596L-22.0429 8.42595L-2.84692 8.31386L-2.85275 7.31387ZM-22.1952 7.44877L-61.989 19.9016L-61.6903 20.8559L-21.8965 8.40313L-22.1952 7.44877ZM-22.1525 7.43747L-40.6418 11.4756L-40.4284 12.4525L-21.9392 8.41444L-22.1525 7.43747ZM-40.6844 11.4869L-85.0386 25.365L-84.74 26.3194L-40.3858 12.4412L-40.6844 11.4869ZM-85.0845 25.3819L-106.823 34.5995L-106.433 35.5201L-84.6941 26.3026L-85.0845 25.3819ZM-106.863 34.6187L-147.692 56.4068L-147.221 57.289L-106.393 35.5009L-106.863 34.6187ZM-61.955 19.8922L-85.0046 25.3557L-84.774 26.3287L-61.7243 20.8653L-61.955 19.8922ZM-85.1247 25.4011L-122.474 45.3302L-122.003 46.2125L-84.6539 26.2834L-85.1247 25.4011ZM-37.7369 18.2207L-61.8739 19.8799L-61.8054 20.8776L-37.6683 19.2183L-37.7369 18.2207ZM-62.075 19.9376L-95.5779 37.8153L-95.1071 38.6976L-61.6042 20.8199L-62.075 19.9376ZM-12.6648 20.385L-37.6595 18.2214L-37.7457 19.2177L-12.751 21.3813L-12.6648 20.385ZM-37.938 18.2784L-67.27 33.9344L-66.7991 34.8166L-37.4672 19.1606L-37.938 18.2784ZM13.0053 26.3639L-12.5944 20.3962L-12.8214 21.3701L12.7783 27.3378L13.0053 26.3639ZM-12.9433 20.442L-37.8378 33.727L-37.367 34.6093L-12.4725 21.3243L-12.9433 20.442ZM39.0268 36.0959L13.067 26.3825L12.7166 27.3191L38.6764 37.0325L39.0268 36.0959ZM12.6564 26.4097L-7.56113 37.1964L-7.09039 38.0787L13.1271 27.292L12.6564 26.4097ZM65.1626 49.4808L39.0796 36.1192L38.6236 37.0092L64.7067 50.3708L65.1626 49.4808ZM38.6162 36.1231L23.2879 44.3034L23.7587 45.1856L39.087 37.0053L38.6162 36.1231ZM90.6479 66.37L85.4627 69.1339L85.9331 70.0164L91.1183 67.2525L90.6479 66.37ZM85.9052 69.1202L54.8435 54.9683L54.4289 55.8783L85.4906 70.0302L85.9052 69.1202ZM64.6992 49.4847L54.4007 54.9822L54.8716 55.8643L65.1701 50.3669L64.6992 49.4847ZM116.679 86.6226L85.9452 69.1405L85.4507 70.0098L116.184 87.4919L116.679 86.6226ZM116.742 86.6654L91.1936 66.4194L90.5725 67.2031L116.121 87.4491L116.742 86.6654ZM116.618 86.5935L81.8849 72.6038L81.5113 73.5314L116.245 87.521L116.618 86.5935ZM82.0269 73.4442L86.0268 69.9518L85.3691 69.1985L81.3692 72.691L82.0269 73.4442ZM81.8438 72.5893L46.7928 61.9046L46.5013 62.8612L81.5523 73.5459L81.8438 72.5893ZM54.3078 55.0462L46.3186 62.0059L46.9755 62.7599L54.9646 55.8003L54.3078 55.0462ZM54.7985 54.9503L23.6856 44.2716L23.361 45.2174L54.4739 55.8962L54.7985 54.9503ZM23.1947 44.3676L11.3258 54.7184L11.9831 55.4721L23.852 45.1213L23.1947 44.3676ZM23.6356 44.2572L-7.21353 37.1503L-7.43802 38.1248L23.4111 45.2317L23.6356 44.2572ZM-7.65442 37.2607L-23.2976 50.9045L-22.6403 51.6581L-6.99713 38.0144L-7.65442 37.2607ZM-7.26886 37.1408L-37.5455 33.6714L-37.6593 34.6649L-7.38269 38.1343L-7.26886 37.1408ZM-37.931 33.7913L-57.2174 50.603L-56.5603 51.3568L-37.2739 34.5451L-37.931 33.7913ZM-37.606 33.6682L-67.038 33.8756L-67.031 34.8755L-37.5989 34.6681L-37.606 33.6682ZM-67.3631 33.9986L-90.0919 53.8121L-89.4348 54.5659L-66.706 34.7524L-67.3631 33.9986ZM-67.1024 33.8802L-95.4104 37.7611L-95.2746 38.7518L-66.9666 34.8709L-67.1024 33.8802ZM-95.6711 37.8796L-121.616 60.5015L-120.959 61.2552L-95.0139 38.6333L-95.6711 37.8796ZM-95.4771 37.7749L-122.373 45.2898L-122.104 46.2529L-95.2079 38.738L-95.4771 37.7749ZM-122.567 45.3945L-151.474 70.6081L-150.817 71.3617L-121.91 46.1481L-122.567 45.3945ZM-122.44 45.3135L-147.658 56.3901L-147.256 57.3057L-122.037 46.2291L-122.44 45.3135ZM-147.785 56.471L-179.406 84.0372L-178.749 84.791L-147.128 57.2248L-147.785 56.471ZM-147.721 56.4235L-171.048 70.9567L-170.52 71.8054L-147.192 57.2723L-147.721 56.4235ZM-171.113 71.0042L-205.111 100.654L-204.454 101.407L-170.455 71.7579L-171.113 71.0042ZM-228.395 120.34L-248.966 142.832L-248.228 143.507L-227.657 121.015L-228.395 120.34ZM-249.015 142.895L-274.324 181.48L-273.488 182.028L-248.179 143.443L-249.015 142.895ZM-205.105 100.649L-228.349 120.296L-227.703 121.059L-204.46 101.413L-205.105 100.649ZM-228.444 120.403L-252.612 157.238L-251.776 157.786L-227.608 120.952L-228.444 120.403ZM-179.349 83.9942L-205.054 100.611L-204.511 101.451L-178.806 84.834L-179.349 83.9942ZM-205.2 100.756L-227.981 135.482L-227.145 136.03L-204.364 101.305L-205.2 100.756ZM-151.362 70.5342L-179.294 83.9635L-178.861 84.8647L-150.929 71.4355L-151.362 70.5342ZM-179.496 84.1399L-200.669 116.423L-199.833 116.972L-178.659 84.6883L-179.496 84.1399ZM-121.447 60.4048L-151.306 70.5113L-150.985 71.4585L-121.127 61.352L-121.447 60.4048ZM-151.564 70.7106L-170.942 100.243L-170.106 100.791L-150.728 71.2592L-151.564 70.7106ZM-89.8672 53.6999L-121.391 60.3892L-121.183 61.3675L-89.6596 54.6781L-89.8672 53.6999ZM-121.705 60.6042L-139.08 87.098L-138.244 87.6464L-120.869 61.1526L-121.705 60.6042ZM-56.9375 50.4822L-89.812 53.6913L-89.7148 54.6866L-56.8403 51.4775L-56.9375 50.4822ZM-90.1815 53.9147L-105.4 77.1176L-104.564 77.666L-89.3453 54.4632L-90.1815 53.9147ZM-22.9645 50.7813L-56.8845 50.4799L-56.8933 51.4799L-22.9734 51.7813L-22.9645 50.7813ZM-57.3071 50.7058L-70.2108 70.3918L-69.3745 70.94L-56.4707 51.254L-57.3071 50.7058ZM11.7092 54.5983L-22.9142 50.7843L-23.0237 51.7783L11.5997 55.5922L11.7092 54.5983ZM-23.387 51.007L-33.8726 66.9901L-33.0365 67.5387L-22.5509 51.5556L-23.387 51.007ZM46.749 61.8934L11.7564 54.6057L11.5525 55.5847L46.5451 62.8724L46.749 61.8934ZM11.2365 54.8209L3.27847 66.9448L4.11444 67.4935L12.0724 55.3696L11.2365 54.8209ZM81.2799 72.7935L78.5961 76.8879L79.4325 77.4361L82.1162 73.3417L81.2799 72.7935ZM79.1009 76.6696L41.3892 70.0383L41.216 71.0232L78.9277 77.6545L79.1009 76.6696ZM46.2289 62.1087L40.8845 70.2565L41.7207 70.805L47.0651 62.6572L46.2289 62.1087ZM116.559 86.5739L79.1421 76.6786L78.8864 77.6454L116.304 87.5406L116.559 86.5739ZM78.2366 81.8297L79.496 77.2958L78.5325 77.0282L77.2731 81.562L78.2366 81.8297ZM40.8207 70.3974L38.324 79.4193L39.2878 79.686L41.7845 70.6641L40.8207 70.3974ZM41.3465 70.0327L3.74033 66.7211L3.65259 67.7172L41.2587 71.0288L41.3465 70.0327ZM3.2146 67.0857L-0.504395 80.5138L0.45932 80.7807L4.17831 67.3526L3.2146 67.0857ZM3.69586 66.7191L-33.4551 66.7644L-33.4539 67.7644L3.69708 67.7191L3.69586 66.7191ZM-33.9363 67.1305L-38.856 84.8359L-37.8925 85.1036L-32.9728 67.3983L-33.9363 67.1305ZM-33.5012 66.7666L-69.8392 70.1681L-69.746 71.1637L-33.408 67.7622L-33.5012 66.7666ZM-70.2744 70.532L-76.3355 92.3412L-75.372 92.609L-69.3109 70.7998L-70.2744 70.532ZM-69.8865 70.1748L-105.076 76.9007L-104.888 77.8829L-69.6988 71.157L-69.8865 70.1748ZM-105.463 77.258L-112.599 102.958L-111.635 103.226L-104.5 77.5255L-105.463 77.258ZM-105.124 76.9124L-138.804 86.8928L-138.52 87.8516L-104.84 77.8712L-105.124 76.9124ZM-139.144 87.2384L-147.291 116.588L-146.328 116.855L-138.18 87.5059L-139.144 87.2384ZM-138.852 86.91L-170.715 100.055L-170.333 100.979L-138.471 87.8344L-138.852 86.91ZM-171.006 100.383L-180.097 133.098L-179.134 133.366L-170.042 100.651L-171.006 100.383ZM-170.763 100.078L-200.49 116.258L-200.012 117.137L-170.285 100.956L-170.763 100.078ZM-200.733 116.564L-210.66 152.324L-209.696 152.591L-199.769 116.831L-200.733 116.564ZM-200.537 116.288L-227.849 135.346L-227.277 136.166L-199.965 117.108L-200.537 116.288ZM-228.045 135.622L-238.732 174.091L-237.769 174.359L-227.081 135.89L-228.045 135.622ZM-227.894 135.381L-252.525 157.137L-251.863 157.887L-227.232 136.131L-227.894 135.381ZM-252.676 157.378L-264.006 198.178L-263.042 198.446L-251.712 157.646L-252.676 157.378ZM-252.566 157.179L-274.279 181.42L-273.534 182.088L-251.822 157.846L-252.566 157.179ZM-274.388 181.62L-286.256 224.362L-285.292 224.629L-273.424 181.888L-274.388 181.62ZM-274.316 181.467L-292.901 207.961L-292.082 208.535L-273.497 182.041L-274.316 181.467ZM-292.973 208.114L-305.268 252.384L-304.305 252.652L-292.01 208.382L-292.973 208.114ZM-292.932 208.012L-308.212 236.51L-307.33 236.983L-292.051 208.485L-292.932 208.012ZM-308.253 236.613L-320.853 281.985L-319.89 282.253L-307.289 236.88L-308.253 236.613ZM-308.237 236.564L-320.067 266.776L-319.136 267.14L-307.306 236.929L-308.237 236.564ZM-320.085 266.832L-328.345 298.479L-327.377 298.731L-319.118 267.084L-320.085 266.832ZM-345.76 377.416L-346.5 410.331L-345.5 410.354L-344.76 377.439L-345.76 377.416ZM-346.499 410.365L-344.345 458.415L-343.346 458.371L-345.501 410.32L-346.499 410.365ZM-341.204 344.796L-345.756 377.358L-344.765 377.497L-340.214 344.935L-341.204 344.796ZM-345.76 377.45L-343.574 426.198L-342.575 426.153L-344.761 377.405L-345.76 377.45ZM-332.87 312.866L-341.193 344.739L-340.225 344.992L-331.903 313.118L-332.87 312.866ZM-341.209 344.888L-339.011 393.879L-338.012 393.834L-340.21 344.843L-341.209 344.888ZM-320.837 281.937L-332.853 312.811L-331.921 313.173L-319.906 282.3L-320.837 281.937ZM-332.886 313.014L-330.701 361.762L-329.702 361.718L-331.887 312.97L-332.886 313.014ZM-305.229 252.285L-320.814 281.886L-319.929 282.352L-304.344 252.751L-305.229 252.285ZM-320.871 282.141L-318.719 330.176L-317.72 330.131L-319.872 282.096L-320.871 282.141ZM-286.273 224.518L-284.247 269.768L-283.248 269.723L-285.274 224.473L-286.273 224.518ZM-286.188 224.215L-305.2 252.237L-304.373 252.799L-285.36 224.776L-286.188 224.215ZM-305.286 252.54L-303.182 299.424L-302.183 299.379L-304.287 252.496L-305.286 252.54ZM-264.023 198.334L-262.086 241.541L-261.087 241.496L-263.024 198.29L-264.023 198.334ZM-263.905 197.988L-286.155 224.172L-285.393 224.819L-263.143 198.636L-263.905 197.988ZM-261.98 241.21L-284.141 269.437L-283.354 270.054L-261.193 241.828L-261.98 241.21ZM-238.75 174.247L-236.92 214.976L-235.921 214.931L-237.751 174.202L-238.75 174.247ZM-238.595 173.863L-263.869 197.95L-263.179 198.674L-237.906 174.587L-238.595 173.863ZM-236.783 214.61L-261.949 241.175L-261.223 241.863L-236.057 215.298L-236.783 214.61ZM-210.484 152.063L-238.557 173.83L-237.944 174.62L-209.871 152.853L-210.484 152.063ZM-179.882 132.809L-210.444 152.035L-209.912 152.881L-179.349 133.655L-179.882 132.809ZM-178.357 167.468L-208.784 189.924L-208.191 190.728L-177.763 168.273L-178.357 167.468ZM-210.677 152.48L-208.987 190.348L-207.988 190.304L-209.678 152.435L-210.677 152.48ZM-147.034 116.275L-179.84 132.785L-179.391 133.678L-146.585 117.168L-147.034 116.275ZM-145.684 147.373L-178.322 167.444L-177.798 168.296L-145.161 148.224L-145.684 147.373ZM-180.115 133.254L-178.559 167.893L-177.56 167.848L-179.116 133.209L-180.115 133.254ZM-112.3 102.627L-146.993 116.256L-146.627 117.187L-111.934 103.558L-112.3 102.627ZM-111.121 129.862L-145.648 147.353L-145.197 148.245L-110.669 130.754L-111.121 129.862ZM-147.309 116.744L-145.922 147.821L-144.923 147.776L-146.31 116.699L-147.309 116.744ZM-75.9942 91.9953L-112.257 102.612L-111.976 103.572L-75.7132 92.955L-75.9942 91.9953ZM-112.616 103.115L-111.394 130.33L-110.395 130.285L-111.617 103.07L-112.616 103.115ZM-38.4725 84.4794L-75.9519 91.9849L-75.7556 92.9654L-38.2761 85.46L-38.4725 84.4794ZM-76.3532 92.4976L-75.3164 115.589L-74.3174 115.544L-75.3542 92.4527L-76.3532 92.4976ZM-0.0785217 80.1504L-38.4303 84.4729L-38.3183 85.4666L0.0334778 81.1441L-0.0785217 80.1504ZM-38.8738 84.9921L-38.0345 103.738L-37.0356 103.693L-37.8748 84.9473L-38.8738 84.9921ZM38.7918 79.0528L-0.0366211 80.1475L-0.00845337 81.1471L38.82 80.0524L38.7918 79.0528ZM-0.522034 80.6697L0.115448 94.8888L1.11444 94.844L0.476959 80.6249L-0.522034 80.6697ZM77.7823 81.1966L38.8333 79.0534L38.7784 80.0519L77.7274 82.1951L77.7823 81.1966ZM38.3064 79.5748L38.731 89.1323L39.73 89.0879L39.3054 79.5304L38.3064 79.5748ZM116.5 86.562L77.8235 81.2006L77.6862 82.1911L116.363 87.5525L116.5 86.562ZM78.4637 86.4772L78.2544 81.674L77.2553 81.7176L77.4647 86.5207L78.4637 86.4772ZM116.373 86.5607L79.5934 90.8846L79.7101 91.8777L116.49 87.5538L116.373 86.5607ZM116.439 86.5573L77.9714 85.999L77.9569 86.9989L116.424 87.5572L116.439 86.5573ZM80.1243 91.2178L78.4367 86.3356L77.4916 86.6623L79.1792 91.5445L80.1243 91.2178ZM77.9305 86.0001L39.1969 88.6113L39.2642 89.609L77.9978 86.9978L77.9305 86.0001ZM79.5532 90.8909L42.483 98.3404L42.6801 99.3208L79.7502 91.8713L79.5532 90.8909ZM38.7578 89.2731L42.1088 98.9936L43.0542 98.6676L39.7032 88.9472L38.7578 89.2731ZM39.1568 88.6156L0.541229 94.3718L0.68866 95.3609L39.3042 89.6047L39.1568 88.6156ZM0.142181 95.0292L5.12222 109.492L6.06775 109.167L1.08771 94.7036L0.142181 95.0292ZM0.501953 94.3793L-37.648 103.228L-37.4221 104.202L0.727905 95.3534L0.501953 94.3793ZM-38.0078 103.878L-31.4412 122.946L-30.4957 122.62L-37.0623 103.553L-38.0078 103.878ZM-37.6865 103.239L-74.9684 115.09L-74.6654 116.043L-37.3836 104.192L-37.6865 103.239ZM-75.2897 115.729L-67.2039 139.216L-66.2584 138.891L-74.3441 115.404L-75.2897 115.729ZM-75.006 115.104L-111.084 129.845L-110.706 130.771L-74.6278 116.029L-75.006 115.104ZM-111.367 130.47L-101.838 158.151L-100.892 157.825L-110.422 130.145L-111.367 130.47ZM-101.636 157.568L-134.804 178.986L-134.261 179.826L-101.094 158.408L-101.636 157.568ZM-145.895 147.961L-135.005 179.569L-134.06 179.243L-144.95 147.636L-145.895 147.961ZM-134.834 179.007L-166.234 202.695L-165.632 203.493L-134.232 179.805L-134.834 179.007ZM-178.533 168.033L-166.406 203.257L-165.46 202.931L-177.587 167.708L-178.533 168.033ZM-166.263 202.718L-195.549 228.462L-194.888 229.213L-165.603 203.469L-166.263 202.718ZM-208.96 190.489L-195.691 229.001L-194.746 228.675L-208.015 190.163L-208.96 190.489ZM-208.818 189.951L-236.751 214.579L-236.09 215.329L-208.157 190.701L-208.818 189.951ZM-195.576 228.488L-222.517 256.032L-221.802 256.732L-194.861 229.188L-195.576 228.488ZM-236.893 215.116L-222.633 256.545L-221.687 256.219L-235.947 214.791L-236.893 215.116ZM-262.059 241.682L-246.931 285.611L-245.985 285.286L-261.114 241.356L-262.059 241.682ZM-284.22 269.908L-268.369 315.94L-267.423 315.615L-283.275 269.583L-284.22 269.908ZM-284.169 269.477L-303.104 299.132L-302.262 299.67L-283.326 270.015L-284.169 269.477ZM-303.156 299.564L-286.739 347.241L-285.794 346.916L-302.21 299.239L-303.156 299.564ZM-303.129 299.176L-318.666 329.928L-317.774 330.379L-302.237 299.627L-303.129 299.176ZM-318.693 330.317L-301.866 379.182L-300.92 378.856L-317.747 329.991L-318.693 330.317ZM-318.687 329.976L-330.669 361.563L-329.734 361.917L-317.752 330.331L-318.687 329.976ZM-330.674 361.903L-313.598 411.5L-312.653 411.174L-329.728 361.577L-330.674 361.903ZM-330.685 361.615L-338.996 393.731L-338.028 393.982L-329.717 361.865L-330.685 361.615ZM-338.985 394.019L-321.829 443.844L-320.883 443.519L-338.039 393.694L-338.985 394.019ZM-339.007 393.787L-343.57 426.106L-342.58 426.245L-338.017 393.926L-339.007 393.787ZM-343.548 426.338L-326.475 475.92L-325.529 475.594L-342.602 426.013L-343.548 426.338ZM-343.575 426.164L-344.345 458.381L-343.345 458.405L-342.575 426.188L-343.575 426.164ZM-344.318 458.556L-327.491 507.421L-326.546 507.095L-343.372 458.23L-344.318 458.556ZM-344.343 458.44L-341.314 490.244L-340.318 490.149L-343.347 458.346L-344.343 458.44ZM-341.289 490.359L-324.872 538.036L-323.926 537.711L-340.343 490.034L-341.289 490.359ZM-341.304 490.303L-334.504 521.387L-333.527 521.174L-340.327 490.089L-341.304 490.303ZM-334.487 521.445L-323.983 551.514L-323.039 551.184L-333.543 521.116L-334.487 521.445ZM-323.983 551.512L-318.879 566.335L-317.934 566.01L-323.038 551.186L-323.983 551.512ZM-318.879 566.335L-318.314 567.978L-317.368 567.652L-317.934 566.01L-318.879 566.335ZM-318.314 567.978L-308.852 595.457L-307.906 595.132L-317.368 567.652L-318.314 567.978ZM-308.825 595.52L-295.582 621.77L-294.689 621.319L-307.933 595.069L-308.825 595.52ZM-295.555 621.816L-269.401 662.341L-268.561 661.799L-294.715 621.274L-295.555 621.816ZM-308.799 595.565L-281.057 638.562L-280.217 638.02L-307.959 595.023L-308.799 595.565ZM-324.888 537.977L-318.896 566.276L-317.917 566.069L-323.91 537.77L-324.888 537.977ZM-318.896 566.276L-318.654 567.416L-317.676 567.209L-317.917 566.069L-318.896 566.276ZM-318.585 567.584L-318.261 568.086L-317.421 567.544L-317.745 567.042L-318.585 567.584ZM-318.261 568.086L-289.526 612.619L-288.686 612.077L-317.421 567.544L-318.261 568.086ZM-327.517 507.301L-324.897 537.916L-323.901 537.831L-326.52 507.216L-327.517 507.301ZM-324.819 538.145L-294.719 584.788L-293.878 584.246L-323.979 537.602L-324.819 538.145ZM-326.502 475.741L-327.518 507.242L-326.519 507.274L-325.502 475.773L-326.502 475.741ZM-327.439 507.529L-296.589 555.336L-295.749 554.794L-326.598 506.987L-327.439 507.529ZM-321.851 443.61L-326.497 475.685L-325.507 475.828L-320.861 443.753L-321.851 443.61ZM-326.422 476.028L-295.119 524.538L-294.278 523.996L-325.582 475.486L-326.422 476.028ZM-313.546 411.608L-282.242 460.118L-281.402 459.576L-312.705 411.066L-313.546 411.608ZM-313.61 411.214L-321.84 443.558L-320.871 443.805L-312.641 411.46L-313.61 411.214ZM-321.776 443.953L-290.322 492.692L-289.481 492.15L-320.936 443.41L-321.776 443.953ZM-301.813 379.29L-270.96 427.112L-270.12 426.57L-300.973 378.748L-301.813 379.29ZM-301.863 378.848L-313.595 411.166L-312.655 411.507L-300.923 379.19L-301.863 378.848ZM-286.687 347.35L-256.586 393.993L-255.746 393.451L-285.846 346.807L-286.687 347.35ZM-286.718 346.865L-301.845 378.805L-300.941 379.233L-285.815 347.293L-286.718 346.865ZM-268.316 316.048L-239.254 361.1L-238.414 360.558L-267.476 315.506L-268.316 316.048ZM-268.327 315.524L-286.698 346.825L-285.835 347.332L-267.465 316.03L-268.327 315.524ZM-246.878 285.719L-219.136 328.716L-218.296 328.174L-246.038 285.177L-246.878 285.719ZM-246.866 285.16L-268.304 315.489L-267.488 316.066L-246.05 285.737L-246.866 285.16ZM-222.58 256.653L-196.418 297.193L-195.578 296.651L-221.74 256.111L-222.58 256.653ZM-222.543 256.061L-246.841 285.128L-246.074 285.769L-221.776 256.703L-222.543 256.061ZM-195.639 229.109L-171.328 266.793L-170.487 266.251L-194.798 228.567L-195.639 229.109ZM-166.353 203.365L-144.101 237.845L-143.261 237.302L-165.513 202.823L-166.353 203.365ZM-101.785 158.259L-84.3128 185.34L-83.4725 184.798L-100.945 157.717L-101.785 158.259ZM-134.953 179.677L-115 210.602L-114.16 210.06L-134.113 179.135L-134.953 179.677ZM-66.971 138.615L-101.605 157.55L-101.125 158.427L-66.4913 139.492L-66.971 138.615ZM-31.1755 122.328L-66.9382 138.598L-66.5241 139.509L-30.7614 123.238L-31.1755 122.328ZM-67.1513 139.325L-52.3182 162.304L-51.478 161.761L-66.3111 138.782L-67.1513 139.325ZM5.42233 108.86L-31.1411 122.314L-30.7958 123.252L5.76764 109.799L5.42233 108.86ZM-31.3885 123.054L-19.3474 141.71L-18.5072 141.167L-30.5483 122.512L-31.3885 123.054ZM42.445 98.3496L5.45844 108.848L5.73151 109.81L42.7181 99.3116L42.445 98.3496ZM5.17468 109.6L14.2956 123.754L15.1362 123.212L6.01526 109.059L5.17468 109.6ZM79.2316 91.6522L82.3148 96.43L83.155 95.8878L80.0718 91.11L79.2316 91.6522ZM82.5663 95.6882L48.5396 107.872L48.8767 108.813L82.9034 96.6297L82.5663 95.6882ZM42.1612 99.1014L48.2878 108.613L49.1285 108.072L43.0019 98.5599L42.1612 99.1014ZM116.301 86.5745L82.6045 95.6762L82.8653 96.6416L116.562 87.5399L116.301 86.5745ZM116.221 86.6036L86.8898 100.195L87.3102 101.103L116.642 87.5109L116.221 86.6036ZM87.4585 100.301L83.0934 95.8104L82.3764 96.5074L86.7415 100.998L87.4585 100.301ZM86.8557 100.213L57.1544 116.843L57.6429 117.715L87.3443 101.085L86.8557 100.213ZM48.3497 108.691L57.0402 117.628L57.7571 116.93L49.0666 107.994L48.3497 108.691ZM48.5047 107.886L14.5125 123.026L14.9193 123.94L48.9116 108.799L48.5047 107.886ZM14.3576 123.832L27.2941 137.127L28.0108 136.429L15.0743 123.134L14.3576 123.832ZM14.4805 123.042L-19.1627 140.997L-18.6919 141.879L14.9514 123.924L14.4805 123.042ZM-19.2857 141.787L-2.23721 159.313L-1.52039 158.616L-18.5689 141.09L-19.2857 141.787ZM-19.1922 141.014L-52.163 161.609L-51.6332 162.457L-18.6624 141.862L-19.1922 141.014ZM-52.2566 162.381L-31.2692 183.969L-30.5522 183.272L-51.5396 161.684L-52.2566 162.381ZM-52.1902 161.627L-84.1848 184.663L-83.6005 185.474L-51.6059 162.438L-52.1902 161.627ZM-84.2511 185.417L-59.5053 210.861L-58.7884 210.164L-83.5342 184.72L-84.2511 185.417ZM-84.2104 184.683L-114.898 209.945L-114.262 210.717L-83.5749 185.455L-84.2104 184.683ZM-114.938 210.679L-86.6844 239.733L-85.9675 239.036L-114.221 209.982L-114.938 210.679ZM-114.922 209.966L-144.023 237.208L-143.339 237.938L-114.238 210.696L-114.922 209.966ZM-144.039 237.922L-112.536 270.299L-111.819 269.601L-143.323 237.225L-144.039 237.922ZM-144.045 237.231L-171.272 266.179L-170.543 266.864L-143.317 237.916L-144.045 237.231ZM-171.266 266.87L-136.835 302.279L-136.118 301.582L-170.549 266.173L-171.266 266.87ZM-171.293 266.203L-196.383 296.604L-195.612 297.24L-170.522 266.84L-171.293 266.203ZM-196.356 297.271L-159.319 335.339L-158.602 334.642L-195.639 296.573L-196.356 297.271ZM-196.403 296.63L-219.122 328.153L-218.31 328.737L-195.592 297.214L-196.403 296.63ZM-219.075 328.794L-179.781 369.189L-179.064 368.491L-218.358 328.096L-219.075 328.794ZM-219.141 328.181L-239.258 360.565L-238.409 361.092L-218.291 328.709L-219.141 328.181ZM-239.192 361.177L-198.038 403.493L-197.321 402.796L-238.475 360.48L-239.192 361.177ZM-239.276 360.596L-256.608 393.489L-255.723 393.955L-238.391 361.062L-239.276 360.596ZM-256.524 394.07L-213.897 437.9L-213.18 437.203L-255.807 393.373L-256.524 394.07ZM-256.624 393.523L-270.999 426.642L-270.082 427.04L-255.707 393.921L-256.624 393.523ZM-270.899 427.19L-227.207 472.115L-226.49 471.418L-270.182 426.493L-270.899 427.19ZM-271.013 426.68L-282.295 459.686L-281.349 460.009L-270.067 427.003L-271.013 426.68ZM-282.18 460.196L-237.85 505.769L-237.133 505.071L-281.463 459.499L-282.18 460.196ZM-282.307 459.727L-290.387 492.301L-289.416 492.541L-281.337 459.968L-282.307 459.727ZM-290.26 492.77L-245.713 538.574L-244.996 537.877L-289.543 492.072L-290.26 492.77ZM-290.396 492.347L-295.193 524.193L-294.204 524.342L-289.407 492.496L-290.396 492.347ZM-295.057 524.616L-250.722 570.204L-250.005 569.507L-294.34 523.919L-295.057 524.616ZM-295.198 524.243L-296.668 555.041L-295.669 555.089L-294.199 524.291L-295.198 524.243ZM-296.527 555.414L-252.836 600.339L-252.119 599.642L-295.81 554.716L-296.527 555.414ZM-296.668 555.097L-294.798 584.548L-293.8 584.485L-295.67 555.033L-296.668 555.097ZM-294.657 584.865L-252.028 628.695L-251.311 627.998L-293.94 584.168L-294.657 584.865ZM-294.79 584.608L-289.597 612.44L-288.614 612.257L-293.807 584.425L-294.79 584.608ZM-289.464 612.697L-248.307 655.012L-247.59 654.315L-288.748 612L-289.464 612.697ZM-289.581 612.503L-281.113 638.446L-280.162 638.136L-288.631 612.193L-289.581 612.503ZM-280.996 638.64L-241.711 679.02L-240.994 678.323L-280.279 637.942L-280.996 638.64ZM-281.086 638.511L-269.43 662.29L-268.532 661.85L-280.188 638.071L-281.086 638.511ZM-269.339 662.418L-232.3 700.503L-231.583 699.806L-268.622 661.721L-269.339 662.418ZM-269.393 662.353L-254.655 683.778L-253.832 683.212L-268.569 661.786L-269.393 662.353ZM-254.608 683.837L-236.933 702.678L-236.204 701.994L-253.879 683.153L-254.608 683.837ZM-236.927 702.684L-205.427 735.078L-204.71 734.38L-236.21 701.987L-236.927 702.684ZM-205.364 735.132L-165.819 764.178L-165.227 763.372L-204.772 734.326L-205.364 735.132ZM-232.361 700.426L-220.226 719.174L-219.386 718.631L-231.522 699.883L-232.361 700.426ZM-220.102 719.305L-176.87 751.071L-176.278 750.265L-219.51 718.499L-220.102 719.305ZM-241.811 678.872L-232.4 700.355L-231.484 699.954L-240.895 678.471L-241.811 678.872ZM-232.238 700.557L-185.736 734.725L-185.144 733.919L-231.646 699.751L-232.238 700.557ZM-248.431 654.796L-241.835 678.804L-240.871 678.539L-247.467 654.531L-248.431 654.796ZM-241.649 679.075L-192.326 715.315L-191.734 714.509L-241.057 678.269L-241.649 679.075ZM-252.165 628.417L-248.444 654.734L-247.454 654.594L-251.175 628.277L-252.165 628.417ZM-248.245 655.067L-196.578 693.026L-195.986 692.22L-247.653 654.261L-248.245 655.067ZM-252.977 600.005L-252.17 628.361L-251.17 628.332L-251.978 599.976L-252.977 600.005ZM-251.966 628.75L-198.447 668.075L-197.855 667.269L-251.374 627.944L-251.966 628.75ZM-250.863 569.82L-252.976 599.955L-251.979 600.025L-249.865 569.89L-250.863 569.82ZM-195.205 610.698L-198.124 640.238L-197.129 640.337L-194.209 610.796L-195.205 610.698ZM-252.773 600.393L-197.922 640.69L-197.33 639.885L-252.181 599.587L-252.773 600.393ZM-245.849 538.147L-250.858 569.777L-249.87 569.934L-244.861 538.303L-245.849 538.147ZM-189.921 579.238L-195.2 610.664L-194.214 610.83L-188.935 579.403L-189.921 579.238ZM-250.66 570.258L-195.003 611.15L-194.411 610.344L-250.068 569.452L-250.66 570.258ZM-237.788 505.823L-182.129 546.714L-181.537 545.909L-237.196 505.017L-237.788 505.823ZM-237.978 505.303L-245.841 538.109L-244.869 538.342L-237.005 505.537L-237.978 505.303ZM-182.321 546.199L-189.915 579.208L-188.941 579.432L-181.346 546.424L-182.321 546.199ZM-245.651 538.628L-189.724 579.723L-189.132 578.917L-245.059 537.822L-245.651 538.628ZM-227.145 472.17L-172.286 512.465L-171.694 511.659L-226.553 471.364L-227.145 472.17ZM-227.326 471.616L-237.968 505.269L-237.015 505.571L-226.372 471.918L-227.326 471.616ZM-172.471 511.924L-182.314 546.173L-181.353 546.45L-171.51 512.2L-172.471 511.924ZM-213.834 437.955L-160.317 477.281L-159.725 476.475L-213.242 437.149L-213.834 437.955ZM-214.004 437.371L-227.315 471.586L-226.383 471.948L-213.072 437.733L-214.004 437.371ZM-197.975 403.548L-146.301 441.505L-145.709 440.699L-197.383 402.742L-197.975 403.548ZM-198.133 402.935L-213.993 437.343L-213.084 437.761L-197.225 403.354L-198.133 402.935ZM-179.719 369.243L-130.403 405.485L-129.811 404.679L-179.126 368.437L-179.719 369.243ZM-179.864 368.605L-198.121 402.91L-197.238 403.38L-178.981 369.075L-179.864 368.605ZM-159.256 335.393L-112.759 369.562L-112.167 368.756L-158.664 334.587L-159.256 335.393ZM-159.388 334.732L-179.85 368.581L-178.995 369.099L-158.532 335.249L-159.388 334.732ZM-136.772 302.333L-93.5312 334.097L-92.9392 333.291L-136.18 301.527L-136.772 302.333ZM-136.89 301.649L-159.374 334.709L-158.547 335.271L-136.063 302.211L-136.89 301.649ZM-112.474 270.353L-72.9362 299.417L-72.3439 298.611L-111.882 269.547L-112.474 270.353ZM-112.576 269.647L-136.874 301.628L-136.078 302.233L-111.78 270.252L-112.576 269.647ZM-86.6221 239.787L-51.1391 265.867L-50.5469 265.061L-86.0299 238.982L-86.6221 239.787ZM-86.7077 239.062L-112.559 269.627L-111.796 270.273L-85.9442 239.707L-86.7077 239.062ZM-59.4429 210.915L-28.3597 233.758L-27.7675 232.952L-58.8508 210.109L-59.4429 210.915ZM-59.5109 210.169L-86.69 239.042L-85.9619 239.727L-58.7828 210.855L-59.5109 210.169ZM-31.2555 183.259L-59.4917 210.15L-58.802 210.874L-30.5659 183.983L-31.2555 183.259ZM-2.20245 158.583L-31.2343 183.24L-30.587 184.002L-1.55515 159.346L-2.20245 158.583ZM-31.2067 184.024L-4.83237 203.401L-4.24026 202.596L-30.6146 183.218L-31.2067 184.024ZM27.3521 136.378L-2.17914 158.565L-1.57846 159.364L27.9527 137.178L27.3521 136.378ZM-2.1749 159.367L19.2202 175.092L19.8124 174.286L-1.58267 158.562L-2.1749 159.367ZM57.1245 116.861L27.3783 136.36L27.9265 137.196L57.6728 117.697L57.1245 116.861ZM27.3563 137.181L43.5886 149.109L44.1807 148.303L27.9485 136.375L27.3563 137.181ZM86.8036 101.052L92.2766 105.081L92.8694 104.275L87.3964 100.246L86.8036 101.052ZM57.1029 117.682L68.0247 125.696L68.6163 124.89L57.6945 116.876L57.1029 117.682ZM116.134 86.6551L92.2759 104.276L92.87 105.08L116.729 87.4594L116.134 86.6551ZM92.3377 105.119L98.7321 108.53L99.2027 107.647L92.8083 104.237L92.3377 105.119ZM92.2491 104.297L67.9967 124.912L68.6443 125.674L92.8968 105.059L92.2491 104.297ZM68.0848 125.734L80.7901 132.525L81.2615 131.644L68.5562 124.852L68.0848 125.734ZM67.9746 124.932L43.5387 148.345L44.2306 149.067L68.6664 125.654L67.9746 124.932ZM43.649 149.147L62.5586 159.252L63.0299 158.37L44.1203 148.265L43.649 149.147ZM43.5199 148.364L19.1516 174.347L19.881 175.031L44.2493 149.048L43.5199 148.364ZM19.2808 175.13L44.22 188.451L44.6911 187.569L19.7519 174.248L19.2808 175.13ZM19.1353 174.365L-4.91736 202.675L-4.15527 203.322L19.8974 175.013L19.1353 174.365ZM-4.77194 203.439L25.9382 219.848L26.4094 218.966L-4.30069 202.557L-4.77194 203.439ZM-4.93152 202.692L-28.4588 233.048L-27.6684 233.661L-4.14111 203.305L-4.93152 202.692ZM-28.2993 233.796L7.88498 253.126L8.35617 252.244L-27.828 232.914L-28.2993 233.796ZM-28.4714 233.065L-51.2508 265.175L-50.4352 265.753L-27.6559 233.644L-28.4714 233.065ZM-51.0785 265.905L-9.73508 287.981L-9.26407 287.099L-50.6075 265.023L-51.0785 265.905ZM-51.2623 265.192L-73.0593 298.741L-72.2207 299.286L-50.4237 265.736L-51.2623 265.192ZM-72.8755 299.455L-26.8045 324.058L-26.3334 323.176L-72.4045 298.573L-72.8755 299.455ZM-73.0699 298.758L-93.6651 333.439L-92.8053 333.95L-72.2101 299.269L-73.0699 298.758ZM-93.4707 334.135L-43.1067 361.033L-42.6356 360.151L-92.9996 333.253L-93.4707 334.135ZM-93.6747 333.456L-112.903 368.921L-112.023 369.397L-92.7956 333.933L-93.6747 333.456ZM-112.699 369.6L-58.5123 398.534L-58.0413 397.652L-112.228 368.718L-112.699 369.6ZM-112.912 368.938L-130.556 404.862L-129.658 405.303L-112.014 369.379L-112.912 368.938ZM-130.343 405.523L-72.8708 436.217L-72.3997 435.335L-129.872 404.641L-130.343 405.523ZM-130.565 404.88L-146.463 440.9L-145.548 441.304L-129.65 405.284L-130.565 404.88ZM-146.241 441.543L-86.0557 473.695L-85.5845 472.813L-145.77 440.661L-146.241 441.543ZM-146.471 440.92L-160.487 476.695L-159.556 477.06L-145.54 441.284L-146.471 440.92ZM-160.257 477.319L-97.9015 510.621L-97.4304 509.738L-159.786 476.437L-160.257 477.319ZM-160.495 476.717L-172.464 511.901L-171.517 512.223L-159.548 477.039L-160.495 476.717ZM-98.1461 510.04L-108.583 546.055L-107.623 546.333L-97.1857 510.319L-98.1461 510.04ZM-172.226 512.503L-108.339 546.635L-107.867 545.753L-171.755 511.621L-172.226 512.503ZM-108.587 546.07L-117.48 580.834L-116.511 581.082L-107.619 546.318L-108.587 546.07ZM-182.069 546.753L-117.231 581.399L-116.76 580.517L-181.598 545.87L-182.069 546.753ZM-117.484 580.851L-124.759 614.019L-123.782 614.234L-116.507 581.065L-117.484 580.851ZM-189.663 579.761L-124.506 614.568L-124.035 613.686L-189.192 578.879L-189.663 579.761ZM-124.763 614.038L-130.36 645.289L-129.376 645.465L-123.779 614.215L-124.763 614.038ZM-194.943 611.188L-130.103 645.818L-129.632 644.936L-194.471 610.306L-194.943 611.188ZM-197.862 640.729L-133.955 674.856L-133.484 673.974L-197.391 639.846L-197.862 640.729ZM-198.126 640.278L-198.651 667.663L-197.651 667.682L-197.126 640.297L-198.126 640.278ZM-198.387 668.113L-136.036 701.416L-135.565 700.534L-197.916 667.231L-198.387 668.113ZM-198.65 667.709L-196.78 692.66L-195.783 692.585L-197.653 667.635L-198.65 667.709ZM-196.517 693.064L-136.32 725.229L-135.849 724.347L-196.046 692.182L-196.517 693.064ZM-196.773 692.716L-192.521 715.006L-191.539 714.819L-195.791 692.529L-196.773 692.716ZM-192.265 715.353L-134.795 746.047L-134.324 745.165L-191.794 714.471L-192.265 715.353ZM-192.503 715.073L-185.913 734.483L-184.966 734.161L-191.556 714.752L-192.503 715.073ZM-185.675 734.763L-131.494 763.698L-131.023 762.816L-185.204 733.881L-185.675 734.763ZM-185.879 734.56L-177.014 750.907L-176.135 750.43L-185 734.084L-185.879 734.56ZM-176.81 751.109L-126.45 778.008L-125.979 777.126L-176.339 750.227L-176.81 751.109ZM-176.956 750.991L-165.906 764.097L-165.141 763.453L-176.192 750.346L-176.956 750.991ZM-165.759 764.216L-119.692 788.836L-119.221 787.954L-165.288 763.334L-165.759 764.216ZM-165.821 764.176L-152.686 773.934L-152.09 773.131L-165.225 763.374L-165.821 764.176ZM-152.624 773.973L-111.292 796.052L-110.821 795.17L-152.152 773.091L-152.624 773.973ZM-119.782 788.775L-111.382 795.99L-110.731 795.231L-119.131 788.016L-119.782 788.775ZM-111.233 796.078L-65.6213 813.333L-65.2675 812.398L-110.88 795.143L-111.233 796.078ZM-126.639 777.832L-119.881 788.66L-119.032 788.131L-125.79 777.302L-126.639 777.832ZM-119.633 788.863L-68.7975 808.08L-68.4439 807.144L-119.28 787.928L-119.633 788.863ZM-131.73 763.423L-126.686 777.733L-125.743 777.401L-130.787 763.09L-131.73 763.423ZM-126.391 778.035L-70.817 799.04L-70.4635 798.104L-126.038 777.099L-126.391 778.035ZM-135.051 745.698L-131.75 763.349L-130.767 763.165L-134.068 745.514L-135.051 745.698ZM-131.435 763.724L-71.6731 786.326L-71.3194 785.391L-131.081 762.789L-131.435 763.724ZM-136.583 724.824L-135.058 745.643L-134.061 745.57L-135.586 724.751L-136.583 724.824ZM-134.736 746.074L-71.3442 770.05L-70.9904 769.114L-134.383 745.138L-134.736 746.074ZM-136.3 700.969L-136.585 724.782L-135.585 724.794L-135.3 700.981L-136.3 700.969ZM-136.262 725.256L-69.8473 750.361L-69.4937 749.425L-135.908 724.32L-136.262 725.256ZM-134.218 674.376L-136.299 700.936L-135.302 701.014L-133.221 674.454L-134.218 674.376ZM-135.977 701.442L-67.1905 727.458L-66.8367 726.522L-135.623 700.507L-135.977 701.442ZM-130.363 645.311L-134.215 674.35L-133.224 674.481L-129.372 645.442L-130.363 645.311ZM-133.896 674.883L-63.3963 701.542L-63.0427 700.606L-133.543 673.948L-133.896 674.883ZM-130.045 645.844L-58.5023 672.899L-58.1487 671.964L-129.691 644.909L-130.045 645.844ZM-117.172 581.425L-45.6301 608.48L-45.2763 607.545L-116.819 580.49L-117.172 581.425ZM-124.448 614.594L-52.5699 641.773L-52.2162 640.837L-124.094 613.659L-124.448 614.594ZM-108.28 546.662L-37.7648 573.317L-37.4113 572.382L-107.926 545.727L-108.28 546.662ZM-85.9969 473.721L-19.5826 498.826L-19.2289 497.891L-85.6433 472.786L-85.9969 473.721ZM-86.2962 473.101L-98.142 510.027L-97.1898 510.332L-85.344 473.406L-86.2962 473.101ZM-97.8428 510.647L-29.0561 536.662L-28.7024 535.727L-97.489 509.712L-97.8428 510.647ZM-72.812 436.243L-9.42291 460.204L-9.06934 459.268L-72.4584 435.308L-72.812 436.243ZM-73.1069 435.61L-86.2917 473.088L-85.3484 473.42L-72.1636 435.942L-73.1069 435.61ZM-58.4536 398.56L1.30823 421.162L1.66199 420.227L-58.0999 397.625L-58.4536 398.56ZM-58.744 397.915L-73.1024 435.598L-72.168 435.954L-57.8095 398.271L-58.744 397.915ZM-43.048 361.059L12.5115 382.068L12.8651 381.132L-42.6943 360.124L-43.048 361.059ZM-43.3336 360.402L-58.7393 397.903L-57.8143 398.283L-42.4087 360.782L-43.3336 360.402ZM-26.7457 324.085L24.0901 343.301L24.4438 342.366L-26.3922 323.149L-26.7457 324.085ZM-27.0264 323.415L-43.3287 360.39L-42.4137 360.794L-26.1114 323.819L-27.0264 323.415ZM-9.67642 288.007L35.9178 305.25L36.2715 304.314L-9.32272 287.072L-9.67642 288.007ZM-9.95154 287.326L-27.0209 323.403L-26.117 323.831L-9.04761 287.754L-9.95154 287.326ZM7.94382 253.153L47.8888 268.248L48.2423 267.312L8.2973 252.218L7.94382 253.153ZM7.67435 252.46L-9.9458 287.314L-9.05334 287.765L8.5668 252.911L7.67435 252.46ZM25.7343 219.169L7.68106 252.447L8.56006 252.924L26.6133 219.645L25.7343 219.169ZM44.0235 187.759L25.7417 219.155L26.6059 219.659L44.8876 188.262L44.0235 187.759ZM25.997 219.875L59.8766 232.683L60.2302 231.747L26.3506 218.939L25.997 219.875ZM62.6175 159.279L83.4886 167.164L83.842 166.228L62.9709 158.344L62.6175 159.279ZM62.3708 158.546L44.0321 187.745L44.879 188.276L63.2177 159.077L62.3708 158.546ZM44.2787 188.478L71.7903 198.885L72.1441 197.949L44.6324 187.543L44.2787 188.478ZM80.6127 131.803L62.3812 158.53L63.2073 159.093L81.4388 132.366L80.6127 131.803ZM98.5669 107.789L80.6253 131.785L81.4262 132.384L99.3678 108.388L98.5669 107.789ZM80.8491 132.552L94.8805 137.851L95.2338 136.916L81.2024 131.617L80.8491 132.552ZM116.047 86.7378L98.5827 107.769L99.3521 108.408L116.816 87.3767L116.047 86.7378ZM106.186 110.285L99.1443 107.621L98.7904 108.556L105.832 111.22L106.186 110.285ZM115.974 86.8559L105.552 110.552L106.467 110.954L116.889 87.2586L115.974 86.8559ZM105.891 111.239L113.326 113.053L113.564 112.082L106.128 110.267L105.891 111.239ZM105.547 110.563L94.5947 137.193L95.5196 137.574L106.472 110.943L105.547 110.563ZM94.9385 137.869L109.729 141.482L109.966 140.51L95.1758 136.898L94.9385 137.869ZM94.5911 137.202L83.1993 166.515L84.1314 166.877L95.5232 137.565L94.5911 137.202ZM83.5467 167.182L105.561 172.56L105.798 171.588L83.784 166.21L83.5467 167.182ZM83.1962 166.523L71.4981 198.244L72.4363 198.59L84.1344 166.869L83.1962 166.523ZM71.8489 198.903L100.87 205.971L101.106 204.999L72.0855 197.931L71.8489 198.903ZM71.4957 198.251L59.5818 232.049L60.5249 232.381L72.4388 198.583L71.4957 198.251ZM59.9349 232.701L95.6901 241.419L95.927 240.447L60.1718 231.729L59.9349 232.701ZM59.5796 232.055L47.5917 267.62L48.5394 267.94L60.5272 232.375L59.5796 232.055ZM47.947 268.266L90.0775 278.549L90.3146 277.577L48.1841 267.294L47.947 268.266ZM47.5898 267.626L35.6189 304.628L36.5703 304.936L48.5413 267.934L47.5898 267.626ZM35.9761 305.268L84.0867 317.005L84.3237 316.033L36.2131 304.296L35.9761 305.268ZM35.6171 304.634L23.7895 342.685L24.7444 342.982L36.5721 304.93L35.6171 304.634ZM24.1484 343.319L77.7842 356.412L78.0214 355.441L24.3855 342.348L24.1484 343.319ZM23.7879 342.69L12.2092 381.457L13.1674 381.743L24.746 342.976L23.7879 342.69ZM12.5697 382.086L71.207 396.403L71.4442 395.432L12.8069 381.114L12.5697 382.086ZM12.2076 381.462L1.00446 420.557L1.96576 420.832L13.1689 381.738L12.2076 381.462ZM1.36658 421.18L64.4305 436.568L64.6676 435.597L1.60364 420.209L1.36658 421.18ZM1.00299 420.562L-9.72824 459.603L-8.76401 459.868L1.96722 420.827L1.00299 420.562ZM-9.36469 460.222L57.5245 476.548L57.7616 475.577L-9.12756 459.25L-9.36469 460.222ZM-9.72968 459.609L-19.8893 498.232L-18.9222 498.486L-8.76257 459.863L-9.72968 459.609ZM-20.9723 499.158L-19.6818 499.473L-19.4446 498.502L-20.7351 498.187L-20.9723 499.158ZM-19.6818 499.473L49.1045 516.267L49.3416 515.296L-19.4446 498.502L-19.6818 499.473ZM-19.8908 498.237L-20.0482 498.866L-19.0782 499.109L-18.9207 498.48L-19.8908 498.237ZM-20.0482 498.866L-29.3643 536.073L-28.3942 536.316L-19.0782 499.109L-20.0482 498.866ZM-30.4457 536.994L-29.1476 537.311L-28.9106 536.339L-30.2086 536.023L-30.4457 536.994ZM-29.1476 537.311L42.1302 554.707L42.3673 553.736L-28.9105 536.339L-29.1476 537.311ZM-29.3657 536.079L-29.5155 536.71L-28.5426 536.941L-28.3928 536.31L-29.3657 536.079ZM-29.5155 536.71L-38.0745 572.734L-37.1016 572.965L-28.5426 536.941L-29.5155 536.71ZM-39.1546 573.649L-37.8482 573.968L-37.611 572.997L-38.9174 572.678L-39.1546 573.649ZM-37.8481 573.968L35.2202 591.807L35.4574 590.836L-37.611 572.997L-37.8481 573.968ZM-38.076 572.741L-38.2175 573.373L-37.2416 573.592L-37.1001 572.959L-38.076 572.741ZM-38.2175 573.373L-45.9411 607.903L-44.9652 608.122L-37.2416 573.592L-38.2175 573.373ZM-47.0196 608.812L-45.704 609.133L-45.467 608.161L-46.7827 607.841L-47.0196 608.812ZM-45.704 609.133L28.4626 627.221L28.6995 626.25L-45.467 608.161L-45.704 609.133ZM-45.9427 607.91L-46.075 608.545L-45.096 608.749L-44.9637 608.115L-45.9427 607.91ZM-46.075 608.545L-52.8825 641.203L-51.9035 641.407L-45.096 608.749L-46.075 608.545ZM-52.5116 641.791L23.3329 660.302L23.5699 659.33L-52.2745 640.819L-52.5116 641.791ZM-52.8842 641.212L-58.8167 672.338L-57.8344 672.525L-51.9019 641.399L-52.8842 641.212ZM-58.444 672.917L17.0382 691.327L17.2751 690.355L-58.207 671.946L-58.444 672.917ZM-58.8184 672.347L-63.7123 700.99L-62.7266 701.158L-57.8326 672.516L-58.8184 672.347ZM-63.338 701.56L11.0517 719.715L11.2888 718.743L-63.101 700.588L-63.338 701.56ZM-63.7142 701.002L-67.5083 726.917L-66.5189 727.062L-62.7248 701.146L-63.7142 701.002ZM-67.1321 727.476L5.44385 745.189L5.68094 744.217L-66.895 726.504L-67.1321 727.476ZM-67.5103 726.932L-70.1671 749.835L-69.1738 749.951L-66.5169 727.048L-67.5103 726.932ZM-69.7889 750.379L0.28479 767.472L0.52179 766.501L-69.552 749.407L-69.7889 750.379ZM-70.169 749.855L-71.6659 769.544L-70.6687 769.62L-69.1719 749.931L-70.169 749.855ZM-71.2858 770.068L-4.39969 786.379L-4.16275 785.407L-71.0488 769.096L-71.2858 770.068ZM-71.6672 769.572L-71.9962 785.849L-70.9963 785.869L-70.6674 769.592L-71.6672 769.572ZM-71.6148 786.344L-8.55081 801.732L-8.31375 800.761L-71.3777 785.373L-71.6148 786.344ZM-71.9951 785.892L-71.1391 798.605L-70.1414 798.538L-70.9974 785.825L-71.9951 785.892ZM-70.7588 799.058L-12.1395 813.363L-11.9024 812.391L-70.5217 798.086L-70.7588 799.058ZM-71.1282 798.681L-69.1087 807.721L-68.1328 807.503L-70.1523 798.463L-71.1282 798.681ZM-68.7392 808.098L-15.1064 821.175L-14.8695 820.204L-68.5023 807.126L-68.7392 808.098ZM-69.0486 807.871L-65.8723 813.124L-65.0165 812.607L-68.1928 807.353L-69.0486 807.871ZM-61.2869 814.765L-19.1384 825.061L-18.9011 824.089L-61.0496 813.794L-61.2869 814.765ZM-15.4168 820.432L-17.7626 824.346L-16.9049 824.86L-14.5591 820.947L-15.4168 820.432ZM-17.3926 825.099L31.3877 830.88L31.5053 829.887L-17.2749 824.106L-17.3926 825.099ZM-12.4884 812.699L-15.4554 820.512L-14.5206 820.867L-11.5535 813.054L-12.4884 812.699ZM-8.91006 801.099L-12.4987 812.729L-11.5432 813.024L-7.9545 801.394L-8.91006 801.099ZM-12.0799 813.373L47.3604 820.429L47.4783 819.436L-11.962 812.38L-12.0799 813.373ZM-4.76389 785.762L-8.91495 801.116L-7.94962 801.377L-3.79855 786.023L-4.76389 785.762ZM-8.49121 801.743L55.4415 809.331L55.5594 808.338L-8.37335 800.75L-8.49121 801.743ZM-0.0820312 766.866L-4.76654 785.773L-3.7959 786.013L0.888611 767.107L-0.0820312 766.866ZM-4.34018 786.389L63.4809 794.444L63.5988 793.451L-4.22226 785.396L-4.34018 786.389ZM5.07529 744.59L-0.0838318 766.874L0.890411 767.099L6.0495 744.816L5.07529 744.59ZM0.344299 767.483L71.3837 775.921L71.5016 774.928L0.46225 766.49L0.344299 767.483ZM10.682 719.121L5.0741 744.596L6.05069 744.811L11.6586 719.336L10.682 719.121ZM5.50354 745.2L79.0882 753.921L79.2059 752.927L5.62125 744.207L5.50354 745.2ZM16.6674 690.738L10.681 719.126L11.6595 719.332L17.6459 690.944L16.6674 690.738ZM11.1113 719.725L86.5325 728.687L86.6505 727.694L11.2293 718.732L11.1113 719.725ZM22.9614 659.717L16.6667 690.741L17.6467 690.94L23.9414 659.915L22.9614 659.717ZM17.0976 691.337L93.6196 700.437L93.7377 699.444L17.2157 690.344L17.0976 691.337ZM28.5221 627.232L29.8766 627.393L29.9944 626.4L28.64 626.239L28.5221 627.232ZM29.8766 627.393L105.041 636.316L105.159 635.323L29.9944 626.4L29.8766 627.393ZM29.5384 626.325L29.4449 626.8L30.4261 626.993L30.5196 626.518L29.5384 626.325ZM29.4449 626.8L22.9608 659.719L23.942 659.913L30.4261 626.993L29.4449 626.8ZM23.3925 660.313L100.291 669.428L100.409 668.435L23.5103 659.32L23.3925 660.313ZM35.2799 591.818L36.6511 591.981L36.7689 590.988L35.3977 590.825L35.2799 591.818ZM36.6511 591.981L110.698 600.764L110.816 599.771L36.7689 590.988L36.6511 591.981ZM36.3106 590.911L36.2189 591.39L37.2011 591.578L37.2928 591.099L36.3106 590.911ZM36.2189 591.391L29.5379 626.328L30.5201 626.516L37.2011 591.578L36.2189 591.391ZM43.2051 553.816L36.3102 590.913L37.2933 591.096L44.1883 553.999L43.2051 553.816ZM49.1642 516.278L50.5259 516.44L50.6437 515.447L49.2819 515.285L49.1642 516.278ZM50.526 516.44L120.201 524.7L120.318 523.707L50.6437 515.447L50.526 516.44ZM50.1791 515.379L50.0929 515.854L51.0768 516.032L51.163 515.557L50.1791 515.379ZM50.0929 515.854L43.2048 553.819L44.1887 553.997L51.0768 516.032L50.0929 515.854ZM43.6379 554.404L117.223 563.125L117.34 562.132L43.7556 553.411L43.6379 554.404ZM56.1361 476.873L57.4999 477.035L57.6178 476.042L56.254 475.88L56.1361 476.873ZM57.4999 477.035L123.957 484.928L124.075 483.935L57.6178 476.042L57.4999 477.035ZM57.1507 475.975L57.0665 476.451L58.0512 476.626L58.1354 476.15L57.1507 475.975ZM57.0665 476.451L50.1787 515.381L51.1634 515.555L58.0512 476.625L57.0665 476.451ZM63.0422 436.893L64.408 437.055L64.5258 436.062L63.16 435.9L63.0422 436.893ZM64.408 437.055L126.975 444.481L127.093 443.488L64.5258 436.062L64.408 437.055ZM64.0564 435.997L63.9742 436.473L64.9596 436.643L65.0418 436.167L64.0564 435.997ZM63.9742 436.473L57.1503 475.978L58.1357 476.148L64.9596 436.643L63.9742 436.473ZM69.8187 396.728L71.1863 396.89L71.3042 395.897L69.9366 395.735L69.8187 396.728ZM71.1863 396.89L129.259 403.783L129.377 402.79L71.3042 395.897L71.1863 396.89ZM70.8326 395.834L70.7522 396.31L71.7383 396.477L71.8186 396.001L70.8326 395.834ZM70.7523 396.31L64.056 435.999L65.0421 436.166L71.7383 396.477L70.7523 396.31ZM76.381 356.74L77.7649 356.904L77.8826 355.911L76.4987 355.747L76.381 356.74ZM77.7649 356.904L130.769 363.188L130.887 362.195L77.8826 355.911L77.7649 356.904ZM77.4094 355.846L77.3304 356.327L78.3171 356.489L78.3962 356.008L77.4094 355.846ZM77.3304 356.327L70.8322 395.836L71.819 395.999L78.3171 356.489L77.3304 356.327ZM84.1462 317.016L132.93 322.812L133.048 321.819L84.2642 316.023L84.1462 317.016ZM83.7115 316.44L77.4091 355.848L78.3965 356.006L84.6989 316.598L83.7115 316.44ZM90.137 278.56L132.867 283.639L132.985 282.646L90.2551 277.567L90.137 278.56ZM89.702 277.986L83.7112 316.442L84.6992 316.596L90.6901 278.14L89.702 277.986ZM95.3141 240.858L89.7017 277.988L90.6904 278.138L96.3029 241.008L95.3141 240.858ZM100.493 205.413L95.3138 240.861L96.3033 241.005L101.483 205.557L100.493 205.413ZM129.914 209.001L131.569 245.26L132.568 245.214L130.913 208.956L129.914 209.001ZM95.7496 241.43L132.01 245.734L132.127 244.741L95.8675 240.437L95.7496 241.43ZM105.621 172.57L127.939 175.214L128.057 174.221L105.738 171.577L105.621 172.57ZM105.184 172.004L100.493 205.415L101.483 205.554L106.174 172.143L105.184 172.004ZM100.929 205.981L130.355 209.475L130.472 208.482L101.047 204.988L100.929 205.981ZM109.352 140.929L105.184 172.007L106.175 172.14L110.343 141.062L109.352 140.929ZM112.949 112.505L109.351 140.933L110.343 141.059L113.941 112.63L112.949 112.505ZM109.789 141.492L124.796 143.272L124.913 142.279L109.906 140.499L109.789 141.492ZM115.935 86.9991L112.948 112.509L113.942 112.626L116.928 87.1154L115.935 86.9991ZM121.039 112.965L113.504 112.071L113.386 113.064L120.922 113.958L121.039 112.965ZM115.939 87.1421L120.488 113.547L121.473 113.377L116.924 86.9724L115.939 87.1421ZM120.985 113.962L128.333 113.903L128.325 112.903L120.977 112.962L120.985 113.962ZM120.485 113.527L124.359 142.841L125.35 142.71L121.476 113.396L120.485 113.527ZM124.858 143.275L139.48 143.168L139.473 142.168L124.851 142.275L124.858 143.275ZM124.357 142.824L127.501 174.767L128.496 174.669L125.352 142.727L124.357 142.824ZM128.002 175.218L149.77 175.051L149.763 174.051L127.994 174.218L128.002 175.218ZM127.499 174.753L129.915 209.013L130.912 208.943L128.497 174.682L127.499 174.753ZM130.417 209.478L159.114 209.25L159.106 208.25L130.409 208.478L130.417 209.478ZM158.623 208.862L166.928 245.071L167.903 244.847L159.597 208.638L158.623 208.862ZM132.072 245.737L167.419 245.459L167.412 244.459L132.065 244.737L132.072 245.737ZM131.569 245.248L132.426 283.153L133.425 283.131L132.568 245.226L131.569 245.248ZM132.93 283.642L174.583 283.307L174.575 282.307L132.922 282.642L132.93 283.642ZM132.426 283.143L132.489 322.317L133.489 322.315L133.426 283.141L132.426 283.143ZM132.993 322.816L180.564 322.426L180.556 321.426L132.984 321.816L132.993 322.816ZM132.489 322.307L131.761 362.372L132.761 362.39L133.488 322.325L132.489 322.307ZM130.832 363.192L132.254 363.18L132.246 362.18L130.824 362.192L130.832 363.192ZM132.254 363.18L183.844 362.768L183.836 361.769L132.246 362.18L132.254 363.18ZM131.762 362.363L131.751 362.662L132.75 362.699L132.761 362.4L131.762 362.363ZM131.751 362.662L130.266 402.955L131.266 402.991L132.75 362.699L131.751 362.662ZM129.322 403.787L130.753 403.775L130.745 402.775L129.314 402.787L129.322 403.787ZM130.753 403.775L187.289 403.321L187.281 402.321L130.745 402.775L130.753 403.775ZM130.267 402.945L130.25 403.247L131.248 403.303L131.265 403.001L130.267 402.945ZM130.25 403.247L127.983 443.642L128.981 443.698L131.248 403.303L130.25 403.247ZM127.038 444.484L128.463 444.473L128.455 443.473L127.03 443.484L127.038 444.484ZM128.463 444.473L189.387 443.985L189.379 442.985L128.455 443.473L128.463 444.473ZM127.983 443.633L127.961 443.935L128.958 444.01L128.98 443.708L127.983 443.633ZM127.961 443.935L124.951 484.083L125.948 484.158L128.958 444.01L127.961 443.935ZM124.02 484.931L125.425 484.92L125.417 483.92L124.012 483.931L124.02 484.931ZM125.425 484.92L190.144 484.4L190.136 483.4L125.417 483.92L125.425 484.92ZM124.951 484.074L124.923 484.373L125.919 484.467L125.947 484.167L124.951 484.074ZM124.923 484.373L121.21 523.843L122.205 523.937L125.919 484.467L124.923 484.373ZM120.263 524.704L121.677 524.693L121.669 523.693L120.255 523.704L120.263 524.704ZM121.677 524.693L189.544 524.159L189.536 523.159L121.669 523.693L121.677 524.693ZM121.211 523.833L121.176 524.136L122.17 524.249L122.204 523.947L121.211 523.833ZM121.176 524.136L116.785 562.572L117.778 562.685L122.17 524.249L121.176 524.136ZM117.285 563.129L189.049 562.554L189.041 561.554L117.277 562.129L117.285 563.129ZM116.786 562.561L111.71 599.886L112.7 600.021L117.777 562.696L116.786 562.561ZM112.209 600.453L185.76 599.868L185.752 598.868L112.201 599.454L112.209 600.453ZM111.711 599.875L106.054 635.427L107.042 635.584L112.699 600.032L111.711 599.875ZM185.26 599.304L180.688 634.833L181.68 634.961L186.252 599.431L185.26 599.304ZM106.552 636.005L181.188 635.397L181.18 634.397L106.544 635.005L106.552 636.005ZM106.056 635.414L99.8585 668.841L100.842 669.023L107.04 635.596L106.056 635.414ZM100.354 669.432L175.349 668.828L175.341 667.828L100.346 668.432L100.354 669.432ZM99.8613 668.827L93.1898 699.835L94.1675 700.045L100.839 669.037L99.8613 668.827ZM93.6828 700.44L168.301 699.819L168.293 698.819L93.6745 699.44L93.6828 700.44ZM93.1937 699.818L86.1065 728.068L87.0765 728.312L94.1636 700.062L93.1937 699.818ZM86.5956 728.69L160.144 728.089L160.136 727.089L86.5874 727.69L86.5956 728.69ZM86.112 728.049L78.6675 753.283L79.6266 753.565L87.0711 728.332L86.112 728.049ZM79.1511 753.924L150.915 753.349L150.907 752.349L79.1431 752.924L79.1511 753.924ZM78.6752 753.259L70.9708 775.259L71.9146 775.589L79.619 753.589L78.6752 753.259ZM71.4467 775.924L140.724 775.364L140.716 774.364L71.4386 774.924L71.4467 775.924ZM70.9828 775.228L63.08 793.752L63.9998 794.144L71.9026 775.62L70.9828 775.228ZM63.5439 794.448L129.668 793.916L129.66 792.917L63.5358 793.448L63.5439 794.448ZM63.0999 793.71L55.0605 808.597L55.9404 809.072L63.9798 794.185L63.0999 793.71ZM55.5045 809.334L117.853 808.835L117.845 807.836L55.4965 808.334L55.5045 809.334ZM55.0963 808.54L47.0151 819.638L47.8235 820.227L55.9047 809.129L55.0963 808.54ZM47.4232 820.432L105.393 819.982L105.386 818.982L47.4154 819.432L47.4232 820.432ZM47.0854 819.56L39.0516 826.769L39.7195 827.513L47.7532 820.305L47.0854 819.56ZM39.1964 826.678L31.2574 829.921L31.6356 830.846L39.5746 827.604L39.1964 826.678ZM31.4504 830.884L79.0251 830.509L79.0173 829.509L31.4426 829.884L31.4504 830.884ZM92.2925 826.229L78.9018 829.524L79.1407 830.495L92.5314 827.2L92.2925 826.229ZM79.0939 830.504L123.625 823.963L123.479 822.974L78.9485 829.514L79.0939 830.504ZM105.146 819.045L92.1686 826.278L92.6554 827.151L105.633 819.919L105.146 819.045ZM92.4846 827.209L142.114 819.924L141.968 818.934L92.3394 826.22L92.4846 827.209ZM117.516 807.963L105.056 819.109L105.723 819.855L118.183 808.708L117.516 807.963ZM105.462 819.977L159.732 811.997L159.587 811.007L105.317 818.987L105.462 819.977ZM129.272 793.106L117.457 808.025L118.241 808.646L130.056 793.727L129.272 793.106ZM117.922 808.83L176.293 800.256L176.148 799.267L117.777 807.841L117.922 808.83ZM140.29 774.608L129.234 793.161L130.093 793.672L141.149 775.12L140.29 774.608ZM129.736 793.911L191.646 784.815L191.501 783.826L129.591 792.922L129.736 793.911ZM150.457 752.639L140.266 774.654L141.174 775.074L151.365 753.059L150.457 752.639ZM140.793 775.359L205.653 765.836L205.508 764.847L140.647 774.369L140.793 775.359ZM159.67 727.417L150.441 752.677L151.381 753.021L160.609 727.76L159.67 727.417ZM150.984 753.344L218.159 743.483L218.014 742.494L150.838 752.354L150.984 753.344ZM167.817 699.181L159.659 727.45L160.62 727.727L168.777 699.458L167.817 699.181ZM160.212 728.083L229.052 717.977L228.906 716.988L160.067 727.094L160.212 728.083ZM175.418 668.822L245.619 658.519L245.474 657.53L175.273 667.833L175.418 668.822ZM174.858 668.217L167.809 699.208L168.785 699.43L175.833 668.439L174.858 668.217ZM168.37 699.814L238.236 689.551L238.091 688.561L168.224 698.825L168.37 699.814ZM181.257 635.392L251.108 625.132L250.963 624.142L181.112 634.402L181.257 635.392ZM180.692 634.811L174.853 668.242L175.838 668.414L181.677 634.983L180.692 634.811ZM185.829 599.862L254.68 589.737L254.535 588.748L185.684 598.873L185.829 599.862ZM189.118 562.548L256.291 552.672L256.145 551.683L188.973 561.559L189.118 562.548ZM188.547 562.01L185.258 599.324L186.254 599.411L189.543 562.098L188.547 562.01ZM190.488 523.321L188.546 562.029L189.545 562.079L191.487 523.371L190.488 523.321ZM191.661 484.081L253.571 474.985L253.425 473.996L191.515 483.091L191.661 484.081ZM191.088 483.579L190.488 523.338L191.488 523.353L192.088 483.594L191.088 483.579ZM191.06 523.84L255.918 514.302L255.773 513.313L190.915 522.851L191.06 523.84ZM190.903 443.666L249.274 435.092L249.129 434.103L190.758 442.677L190.903 443.666ZM190.331 443.181L191.088 483.595L192.088 483.577L191.331 443.162L190.331 443.181ZM188.806 403.002L243.076 395.022L242.93 394.032L188.66 402.012L188.806 403.002ZM188.234 402.533L190.331 443.197L191.33 443.146L189.232 402.481L188.234 402.533ZM185.36 362.449L235.004 355.161L234.859 354.171L185.215 361.46L185.36 362.449ZM184.79 361.997L188.235 402.549L189.231 402.465L185.786 361.912L184.79 361.997ZM180.633 322.42L225.179 315.877L225.033 314.887L180.488 321.431L180.633 322.42ZM180.064 321.984L184.791 362.013L185.784 361.896L181.057 321.867L180.064 321.984ZM174.652 283.302L213.66 277.565L213.515 276.576L174.506 282.312L174.652 283.302ZM174.085 282.882L180.066 322.001L181.054 321.85L175.073 282.731L174.085 282.882ZM166.924 245.052L174.088 282.9L175.07 282.714L167.907 244.866L166.924 245.052ZM185.513 205.001L200.033 240.288L200.958 239.908L186.437 204.62L185.513 205.001ZM167.488 245.454L200.568 240.593L200.423 239.603L167.343 244.464L167.488 245.454ZM149.839 175.045L170.229 172.051L170.084 171.061L149.694 174.056L149.839 175.045ZM149.284 174.682L158.628 208.882L159.592 208.618L150.249 174.419L149.284 174.682ZM159.183 209.245L186.048 205.305L185.902 204.316L159.038 208.256L159.183 209.245ZM139 142.821L149.291 174.704L150.242 174.397L139.952 142.514L139 142.821ZM127.862 113.581L139.009 142.846L139.944 142.49L128.797 113.225L127.862 113.581ZM139.549 143.162L153.252 141.142L153.106 140.153L139.403 142.173L139.549 143.162ZM115.976 87.263L127.874 113.609L128.785 113.197L116.887 86.8515L115.976 87.263ZM135.139 111.896L128.257 112.908L128.402 113.897L135.284 112.886L135.139 111.896ZM116.03 87.355L134.81 112.689L135.613 112.093L116.833 86.7595L116.03 87.355ZM135.361 112.868L141.504 110.946L141.206 109.991L135.062 111.914L135.361 112.868ZM134.79 112.659L152.757 140.916L153.601 140.379L135.633 112.123L134.79 112.659ZM153.328 141.125L165.556 137.296L165.258 136.342L153.03 140.17L153.328 141.125ZM152.741 140.888L169.718 171.797L170.595 171.315L153.617 140.407L152.741 140.888ZM170.306 172.033L188.502 166.338L188.203 165.384L170.007 171.079L170.306 172.033ZM169.705 171.771L185.523 205.025L186.427 204.596L170.608 171.341L169.705 171.771ZM186.124 205.288L210.127 197.778L209.828 196.824L185.826 204.333L186.124 205.288ZM200.645 240.575L230.219 231.318L229.92 230.364L200.346 239.621L200.645 240.575ZM200.024 240.265L213.116 277.237L214.059 276.903L200.967 239.931L200.024 240.265ZM213.737 277.547L248.574 266.642L248.276 265.688L213.438 276.593L213.737 277.547ZM213.109 277.214L224.627 315.526L225.585 315.238L214.067 276.926L213.109 277.214ZM225.255 315.859L265.034 303.408L264.735 302.454L224.957 314.905L225.255 315.859ZM224.621 315.503L234.447 354.787L235.417 354.545L225.591 315.261L224.621 315.503ZM235.081 355.143L279.434 341.259L279.135 340.305L234.782 354.189L235.081 355.143ZM234.442 354.765L242.513 394.626L243.493 394.428L235.422 354.567L234.442 354.765ZM243.153 395.004L291.626 379.834L291.328 378.879L242.854 394.05L243.153 395.004ZM242.509 394.603L248.708 434.674L249.696 434.521L243.497 394.451L242.509 394.603ZM249.351 435.074L301.507 418.762L301.208 417.808L249.052 434.12L249.351 435.074ZM248.705 434.651L253.001 474.544L253.995 474.437L249.699 434.544L248.705 434.651ZM253.647 474.968L308.969 457.658L308.671 456.704L253.349 474.013L253.647 474.968ZM252.999 474.52L255.346 513.837L256.345 513.778L253.997 474.461L252.999 474.52ZM255.995 514.285L313.943 496.161L313.644 495.206L255.696 513.33L255.995 514.285ZM255.346 513.812L255.718 552.182L256.718 552.173L256.345 513.803L255.346 513.812ZM256.367 552.655L316.383 533.886L316.084 532.932L256.069 551.7L256.367 552.655ZM255.718 552.156L254.108 589.221L255.107 589.264L256.717 552.199L255.718 552.156ZM254.757 589.72L316.267 570.48L315.969 569.525L254.458 588.765L254.757 589.72ZM254.11 589.192L250.538 624.587L251.533 624.687L255.105 589.293L254.11 589.192ZM251.185 625.114L313.603 605.579L313.304 604.625L250.886 624.16L251.185 625.114ZM250.542 624.556L245.053 657.943L246.04 658.106L251.529 624.718L250.542 624.556ZM245.696 658.502L308.406 638.871L308.107 637.917L245.397 657.547L245.696 658.502ZM245.06 657.909L237.677 688.94L238.65 689.172L246.033 658.14L245.06 657.909ZM238.313 689.533L300.733 670.014L300.435 669.06L238.014 688.579L238.313 689.533ZM237.688 688.902L228.503 717.329L229.455 717.636L238.639 689.21L237.688 688.902ZM229.128 717.959L290.651 698.701L290.352 697.746L228.83 717.005L229.128 717.959ZM228.519 717.286L217.627 742.792L218.547 743.185L229.439 717.679L228.519 717.286ZM218.236 743.466L278.249 724.682L277.95 723.727L217.937 742.512L218.236 743.466ZM217.65 742.745L205.144 765.098L206.017 765.586L218.523 743.233L217.65 742.745ZM205.73 765.819L263.675 747.679L263.376 746.725L205.431 764.865L205.73 765.819ZM205.179 765.045L191.172 784.024L191.976 784.618L205.983 765.639L205.179 765.045ZM191.723 784.798L247.045 767.489L246.746 766.534L191.424 783.844L191.723 784.798ZM191.219 783.968L175.866 799.409L176.575 800.114L191.928 784.673L191.219 783.968ZM176.37 800.238L228.523 783.911L228.224 782.956L176.071 799.284L176.37 800.238ZM175.931 799.353L159.371 811.094L159.949 811.91L176.509 800.169L175.931 799.353ZM159.809 811.979L208.283 796.809L207.984 795.854L159.51 811.025L159.809 811.979ZM159.455 811.046L141.836 818.973L142.246 819.885L159.865 811.958L159.455 811.046ZM142.19 819.906L186.543 806.022L186.245 805.067L141.892 818.952L142.19 819.906ZM141.934 818.94L123.445 822.98L123.659 823.957L142.148 819.917L141.934 818.94ZM207.938 795.871L186.199 805.084L186.589 806.005L208.329 796.792L207.938 795.871ZM228.104 783.012L207.865 795.91L208.402 796.753L228.642 783.855L228.104 783.012ZM208.369 796.773L249.211 774.974L248.74 774.091L207.898 795.891L208.369 796.773ZM246.564 766.637L228.042 783.059L228.705 783.808L247.227 767.386L246.564 766.637ZM228.609 783.875L272.523 760.444L272.053 759.561L228.138 782.992L228.609 783.875ZM263.143 746.881L246.513 766.69L247.279 767.333L263.908 747.524L263.143 746.881ZM247.131 767.453L291.868 743.575L291.397 742.693L246.66 766.57L247.131 767.453ZM291.868 743.575L293.707 742.594L293.237 741.712L291.397 742.693L291.868 743.575ZM277.677 723.937L263.103 746.935L263.948 747.47L278.522 724.472L277.677 723.937ZM263.761 747.643L312.552 721.617L312.081 720.735L263.29 746.761L263.761 747.643ZM290.05 698.008L277.648 723.989L278.55 724.42L290.953 698.439L290.05 698.008ZM278.335 724.646L328.884 697.665L328.413 696.783L277.864 723.763L278.335 724.646ZM300.112 669.371L290.03 698.058L290.973 698.389L301.056 669.703L300.112 669.371ZM290.737 698.665L342.541 671.02L342.07 670.138L290.266 697.783L290.737 698.665ZM307.771 638.274L300.099 669.417L301.07 669.657L308.742 638.513L307.771 638.274ZM300.82 669.978L353.383 641.923L352.912 641.041L300.349 669.096L300.82 669.978ZM312.959 605.025L307.762 638.317L308.75 638.471L313.947 605.179L312.959 605.025ZM308.492 638.835L361.309 610.643L360.838 609.761L308.021 637.953L308.492 638.835ZM315.619 569.965L312.955 605.064L313.952 605.14L316.617 570.04L315.619 569.965ZM313.689 605.543L366.255 577.504L365.785 576.622L313.218 604.661L313.689 605.543ZM316.469 533.85L367.018 506.87L366.547 505.988L315.998 532.968L316.469 533.85ZM315.734 533.408L315.618 570.001L316.618 570.004L316.734 533.411L315.734 533.408ZM316.353 570.444L368.172 542.795L367.701 541.913L315.883 569.561L316.353 570.444ZM314.029 496.125L362.831 470.08L362.36 469.197L313.558 495.243L314.029 496.125ZM313.294 495.716L315.735 533.441L316.732 533.377L314.292 495.651L313.294 495.716ZM309.055 457.622L355.632 432.763L355.161 431.881L308.585 456.74L309.055 457.622ZM308.324 457.245L313.297 495.748L314.289 495.62L309.316 457.117L308.324 457.245ZM301.593 418.726L345.505 395.28L345.034 394.397L301.122 417.844L301.593 418.726ZM300.867 418.379L308.329 457.275L309.311 457.087L301.849 418.191L300.867 418.379ZM291.712 379.798L332.543 358.017L332.072 357.135L291.242 378.915L291.712 379.798ZM290.992 379.48L300.873 418.408L301.842 418.162L291.962 379.234L290.992 379.48ZM279.52 341.223L316.869 321.294L316.399 320.411L279.049 340.341L279.52 341.223ZM278.808 340.932L291 379.507L291.954 379.206L279.761 340.631L278.808 340.932ZM265.12 303.372L298.622 285.488L298.151 284.606L264.649 302.49L265.12 303.372ZM264.417 303.109L278.817 340.96L279.752 340.604L265.352 302.753L264.417 303.109ZM248.66 266.606L278.007 250.948L277.537 250.066L248.19 265.724L248.66 266.606ZM247.969 266.369L264.428 303.135L265.341 302.727L248.881 265.96L247.969 266.369ZM229.625 231.071L247.981 266.395L248.869 265.934L230.513 230.61L229.625 231.071ZM209.549 197.558L229.64 231.098L230.498 230.584L210.407 197.044L209.549 197.558ZM230.305 231.282L255.199 217.997L254.728 217.115L229.834 230.4L230.305 231.282ZM188.588 166.302L203.93 158.115L203.46 157.233L188.117 165.42L188.588 166.302ZM187.94 166.144L209.566 197.584L210.39 197.017L188.764 165.578L187.94 166.144ZM210.213 197.742L230.429 186.944L229.957 186.062L209.742 196.86L210.213 197.742ZM165.015 137.129L187.96 166.171L188.745 165.551L165.799 136.509L165.015 137.129ZM140.986 110.806L165.038 137.156L165.776 136.482L141.724 110.131L140.986 110.806ZM165.643 137.26L175.94 131.754L175.468 130.872L165.171 136.378L165.643 137.26ZM116.089 87.4217L141.013 110.833L141.697 110.104L116.774 86.6928L116.089 87.4217ZM146.305 107.263L141.12 110.027L141.59 110.91L146.775 108.146L146.305 107.263ZM116.149 87.4696L146.257 108.117L146.823 107.292L116.714 86.6449L116.149 87.4696ZM146.869 108.081L150.869 104.587L150.211 103.834L146.211 107.328L146.869 108.081ZM146.226 108.093L175.389 131.702L176.019 130.925L146.855 107.316L146.226 108.093ZM176.032 131.691L184.023 124.74L183.367 123.986L175.376 130.936L176.032 131.691ZM175.361 131.677L203.352 158.038L204.038 157.31L176.047 130.949L175.361 131.677ZM204.023 158.051L215.893 147.704L215.236 146.95L203.366 157.297L204.023 158.051ZM203.327 158.013L229.825 186.841L230.561 186.165L204.063 157.336L203.327 158.013ZM230.522 186.88L246.166 173.242L245.509 172.489L229.865 186.126L230.522 186.88ZM229.802 186.815L254.573 217.868L255.355 217.244L230.584 186.191L229.802 186.815ZM255.292 217.933L274.563 201.119L273.906 200.366L254.635 217.179L255.292 217.933ZM254.553 217.84L277.361 250.792L278.183 250.222L255.375 217.271L254.553 217.84ZM278.101 250.884L300.816 231.082L300.159 230.328L277.443 250.13L278.101 250.884ZM277.343 250.763L297.957 285.303L298.815 284.791L278.201 250.251L277.343 250.763ZM298.715 285.424L324.661 262.81L324.004 262.056L298.058 284.67L298.715 285.424ZM297.941 285.274L316.188 321.08L317.079 320.626L298.832 284.82L297.941 285.274ZM316.963 321.229L345.872 296.025L345.214 295.272L316.305 320.476L316.963 321.229ZM316.174 321.049L331.847 357.773L332.767 357.38L317.094 320.656L316.174 321.049ZM332.636 357.953L364.24 330.381L363.583 329.627L331.979 357.2L332.636 357.953ZM331.835 357.741L344.797 395.003L345.742 394.674L332.779 357.412L331.835 357.741ZM345.598 395.215L379.597 365.569L378.94 364.815L344.941 394.462L345.598 395.215ZM344.787 394.969L354.914 432.453L355.879 432.192L345.752 394.708L344.787 394.969ZM355.725 432.699L391.782 401.248L391.125 400.494L355.068 431.945L355.725 432.699ZM354.905 432.417L362.105 469.733L363.087 469.544L355.887 432.228L354.905 432.417ZM362.924 470.015L400.695 437.063L400.038 436.31L362.267 469.262L362.924 470.015ZM362.099 469.695L366.286 506.485L367.279 506.372L363.093 469.582L362.099 469.695ZM367.111 506.806L406.242 472.692L405.584 471.938L366.454 506.052L367.111 506.806ZM366.283 506.445L367.437 542.37L368.436 542.338L367.282 506.413L366.283 506.445ZM368.265 542.731L408.362 507.753L407.705 506.999L367.608 541.978L368.265 542.731ZM367.437 542.327L365.521 577.035L366.519 577.09L368.436 542.382L367.437 542.327ZM366.349 577.44L407.047 541.954L406.39 541.201L365.692 576.686L366.349 577.44ZM365.526 576.989L360.579 610.128L361.568 610.276L366.515 577.137L365.526 576.989ZM361.402 610.579L402.299 574.919L401.642 574.166L360.745 609.825L361.402 610.579ZM360.589 610.079L352.663 641.359L353.633 641.605L361.558 610.325L360.589 610.079ZM353.476 641.859L394.175 606.373L393.517 605.62L352.819 641.105L353.476 641.859ZM352.679 641.307L341.837 670.404L342.774 670.753L353.616 641.656L352.679 641.307ZM342.634 670.956L382.734 635.993L382.077 635.239L341.977 670.202L342.634 670.956ZM341.86 670.351L328.203 696.996L329.093 697.452L342.75 670.807L341.86 670.351ZM328.977 697.601L368.107 663.487L367.45 662.733L328.32 696.847L328.977 697.601ZM328.235 696.943L311.903 720.894L312.729 721.458L329.061 697.506L328.235 696.943ZM312.645 721.553L350.431 688.598L349.773 687.844L311.988 720.799L312.645 721.553ZM311.944 720.842L295.68 738.947L296.424 739.615L312.688 721.51L311.944 720.842ZM295.68 738.947L293.1 741.819L293.844 742.487L296.424 739.615L295.68 738.947ZM293.801 742.53L329.873 711.075L329.216 710.321L293.143 741.776L293.801 742.53ZM272.617 760.379L291.961 743.511L291.304 742.758L271.959 759.626L272.617 760.379ZM291.961 743.511L296.38 739.658L295.723 738.904L291.304 742.758L291.961 743.511ZM296.38 739.658L306.616 730.733L305.958 729.979L295.723 738.904L296.38 739.658ZM272.024 759.578L248.711 774.108L249.24 774.957L272.553 760.427L272.024 759.578ZM349.733 687.883L329.175 710.361L329.913 711.036L350.471 688.558L349.733 687.883ZM367.37 662.822L349.693 687.933L350.511 688.509L368.187 663.398L367.37 662.822ZM381.964 635.381L367.337 662.875L368.22 663.345L382.847 635.851L381.964 635.381ZM368.197 663.384L394.415 623.409L393.579 622.861L367.36 662.836L368.197 663.384ZM393.38 605.816L381.939 635.436L382.872 635.796L394.312 606.177L393.38 605.816ZM382.823 635.89L409.703 594.921L408.867 594.372L381.987 635.342L382.823 635.89ZM401.487 574.417L393.362 605.872L394.33 606.122L402.455 574.667L401.487 574.417ZM394.264 606.271L421.526 564.711L420.69 564.162L393.428 605.722L394.264 606.271ZM406.223 541.506L401.476 574.471L402.466 574.614L407.213 541.649L406.223 541.506ZM402.389 574.817L429.784 533.064L428.948 532.516L401.553 574.268L402.389 574.817ZM407.534 507.357L406.219 541.558L407.218 541.597L408.533 507.395L407.534 507.357ZM407.136 541.852L434.398 500.292L433.562 499.743L406.3 541.303L407.136 541.852ZM405.414 472.345L407.535 507.406L408.533 507.346L406.412 472.285L405.414 472.345ZM408.452 507.65L435.319 466.7L434.483 466.151L407.616 507.102L408.452 507.65ZM399.873 436.763L405.419 472.392L406.407 472.238L400.861 436.61L399.873 436.763ZM406.331 472.589L432.549 432.614L431.713 432.065L405.495 472.041L406.331 472.589ZM390.968 400.992L399.881 436.807L400.852 436.566L391.939 400.75L390.968 400.992ZM400.785 436.961L426.093 398.378L425.257 397.829L399.949 436.412L400.785 436.961ZM379.686 365.466L402.469 330.754L401.633 330.205L378.85 364.918L379.686 365.466ZM378.795 365.354L390.98 401.033L391.927 400.71L379.741 365.03L378.795 365.354ZM391.872 401.145L416.045 364.314L415.209 363.766L391.036 400.597L391.872 401.145ZM364.329 330.278L385.518 297.99L384.682 297.441L363.493 329.73L364.329 330.278ZM363.453 330.204L378.81 365.392L379.727 364.992L364.37 329.804L363.453 330.204ZM345.102 295.884L363.47 330.24L364.352 329.768L345.984 295.413L345.102 295.884ZM324.75 262.707L342.138 236.202L341.302 235.654L323.914 262.159L324.75 262.707ZM323.911 262.702L345.122 295.918L345.964 295.379L324.754 262.164L323.911 262.702ZM345.961 295.923L365.338 266.384L364.502 265.836L345.125 295.374L345.961 295.923ZM300.088 231.005L323.933 262.733L324.732 262.132L300.887 230.404L300.088 231.005ZM273.858 201.072L300.112 231.034L300.864 230.375L274.61 200.413L273.858 201.072ZM300.906 230.979L316.124 207.776L315.288 207.228L300.069 230.43L300.906 230.979ZM245.487 173.222L273.884 201.099L274.585 200.386L246.188 172.509L245.487 173.222ZM274.652 201.017L287.573 181.34L286.737 180.791L273.816 200.468L274.652 201.017ZM215.983 147.601L223.938 135.466L223.102 134.918L215.146 147.053L215.983 147.601ZM215.242 147.709L245.515 173.248L246.16 172.483L215.887 146.944L215.242 147.709ZM246.256 173.14L256.74 157.15L255.904 156.602L245.419 172.591L246.256 173.14ZM183.403 124.769L215.272 147.732L215.857 146.921L183.987 123.958L183.403 124.769ZM150.28 104.638L183.435 124.79L183.955 123.936L150.8 103.783L150.28 104.638ZM184.113 124.637L189.457 116.49L188.621 115.941L183.277 124.089L184.113 124.637ZM116.207 87.5039L150.315 104.657L150.764 103.764L116.656 86.6106L116.207 87.5039ZM152.806 99.8436L150.122 103.936L150.958 104.485L153.642 100.392L152.806 99.8436ZM116.264 87.5284L153.057 100.589L153.391 99.6466L116.599 86.5861L116.264 87.5284ZM153.706 100.252L154.965 95.7162L154.001 95.4487L152.742 99.9841L153.706 100.252ZM153.019 100.574L188.834 116.671L189.244 115.759L153.429 99.6618L153.019 100.574ZM189.521 116.349L192.017 107.324L191.054 107.057L188.557 116.082L189.521 116.349ZM188.798 116.653L223.279 135.63L223.761 134.754L189.28 115.777L188.798 116.653ZM224.002 135.325L227.721 121.899L226.758 121.632L223.038 135.058L224.002 135.325ZM223.245 135.609L256.046 157.293L256.598 156.459L223.796 134.775L223.245 135.609ZM256.804 157.01L261.725 139.313L260.761 139.045L255.84 156.742L256.804 157.01ZM256.013 157.27L286.847 181.459L287.464 180.672L256.63 156.483L256.013 157.27ZM287.637 181.2L293.696 159.376L292.732 159.109L286.674 180.932L287.637 181.2ZM286.816 181.433L315.366 207.869L316.046 207.135L287.495 180.699L286.816 181.433ZM316.188 207.636L323.336 181.926L322.373 181.658L315.224 207.368L316.188 207.636ZM315.337 207.839L341.352 236.265L342.089 235.59L316.075 207.164L315.337 207.839ZM342.202 236.062L350.35 206.714L349.387 206.447L341.239 235.794L342.202 236.062ZM341.324 236.233L364.524 266.415L365.316 265.805L342.117 235.623L341.324 236.233ZM365.402 266.244L374.479 233.535L373.515 233.268L364.438 265.976L365.402 266.244ZM364.499 266.379L384.678 297.985L385.521 297.447L365.341 265.841L364.499 266.379ZM385.581 297.849L395.509 262.092L394.545 261.825L384.618 297.582L385.581 297.849ZM384.655 297.945L401.607 330.709L402.495 330.25L385.544 297.486L384.655 297.945ZM402.533 330.613L413.22 292.138L412.256 291.87L401.569 330.345L402.533 330.613ZM401.588 330.667L415.163 364.228L416.09 363.853L402.515 330.292L401.588 330.667ZM416.109 364.174L427.428 323.368L426.464 323.101L415.145 363.906L416.109 364.174ZM415.147 364.182L425.195 398.245L426.155 397.962L416.106 363.899L415.147 364.182ZM426.157 398.237L438.03 355.495L437.067 355.227L425.193 397.97L426.157 398.237ZM425.184 398.196L431.64 432.432L432.623 432.247L426.166 398.011L425.184 398.196ZM432.613 432.473L444.906 388.216L443.942 387.948L431.65 432.206L432.613 432.473ZM431.633 432.38L434.403 466.466L435.4 466.385L432.63 432.299L431.633 432.38ZM435.383 466.559L447.983 421.171L447.02 420.903L434.419 466.292L435.383 466.559ZM434.401 466.412L433.48 500.004L434.48 500.031L435.401 466.439L434.401 466.412ZM434.462 500.151L447.244 454.102L446.28 453.834L433.498 499.884L434.462 500.151ZM433.485 499.948L428.871 532.72L429.861 532.86L434.475 500.087L433.485 499.948ZM421.59 564.57L434.372 518.521L433.408 518.253L420.626 564.303L421.59 564.57ZM420.642 564.255L408.819 594.464L409.75 594.828L421.573 564.619L420.642 564.255ZM408.844 594.41L393.556 622.899L394.438 623.371L409.725 594.883L408.844 594.41ZM441.729 486.387L433.406 518.261L434.374 518.513L442.696 486.64L441.729 486.387ZM446.267 453.899L441.717 486.444L442.708 486.583L447.257 454.037L446.267 453.899ZM447.002 421.026L446.262 453.957L447.262 453.979L448.002 421.048L447.002 421.026ZM441.824 341.246L444.863 373.047L445.858 372.952L442.82 341.151L441.824 341.246ZM448.001 421.015L445.86 372.977L444.861 373.022L447.002 421.059L448.001 421.015ZM437.059 355.464L443.935 388.185L444.913 387.979L438.038 355.258L437.059 355.464ZM435.03 310.222L441.834 341.305L442.81 341.091L436.007 310.008L435.03 310.222ZM444.923 388.06L442.821 341.176L441.823 341.221L443.924 388.104L444.923 388.06ZM426.471 323.391L437.074 355.517L438.023 355.204L427.421 323.078L426.471 323.391ZM424.548 280.193L435.046 310.279L435.99 309.95L425.492 279.864L424.548 280.193ZM438.048 355.338L436.018 310.092L435.019 310.137L437.049 355.383L438.048 355.338ZM412.283 292.211L426.491 323.441L427.401 323.027L413.193 291.797L412.283 292.211ZM410.457 251.486L424.571 280.249L425.469 279.808L411.355 251.046L410.457 251.486ZM427.446 323.212L425.519 280.006L424.52 280.051L426.447 323.257L427.446 323.212ZM394.596 262.213L412.307 292.258L413.169 291.75L395.458 261.705L394.596 262.213ZM392.901 224.362L410.486 251.538L411.326 250.994L393.741 223.819L392.901 224.362ZM413.237 291.982L411.405 251.243L410.406 251.288L412.238 292.027L413.237 291.982ZM373.595 233.698L394.624 262.255L395.429 261.662L374.4 233.105L373.595 233.698ZM372.07 199.073L392.935 224.408L393.707 223.772L372.842 198.437L372.07 199.073ZM395.526 261.936L393.821 224.068L392.822 224.113L394.527 261.981L395.526 261.936ZM349.497 206.915L373.625 233.736L374.369 233.067L350.24 206.246L349.497 206.915ZM348.118 175.864L372.108 199.114L372.804 198.396L348.814 175.146L348.118 175.864ZM374.497 233.379L372.955 198.733L371.956 198.777L373.498 233.424L374.497 233.379ZM322.517 182.16L349.53 206.949L350.207 206.212L323.193 181.423L322.517 182.16ZM321.324 154.968L348.159 175.899L348.774 175.111L321.939 154.179L321.324 154.968ZM350.368 206.558L348.966 175.482L347.967 175.527L349.369 206.603L350.368 206.558ZM292.911 159.64L322.552 182.19L323.157 181.394L293.517 158.845L292.911 159.64ZM291.913 136.581L321.367 154.997L321.897 154.149L292.443 135.733L291.913 136.581ZM323.354 181.769L322.131 154.551L321.132 154.596L322.355 181.814L323.354 181.769ZM260.977 139.602L292.948 159.666L293.48 158.819L261.509 138.755L260.977 139.602ZM260.18 120.87L291.956 136.606L292.4 135.709L260.624 119.974L260.18 120.87ZM293.713 159.22L292.678 136.135L291.679 136.18L292.714 159.265L293.713 159.22ZM227.739 121.743L227.102 107.525L226.103 107.57L226.74 121.788L227.739 121.743ZM227.012 122.21L261.015 139.624L261.471 138.734L227.467 121.32L227.012 122.21ZM226.424 108.015L260.224 120.889L260.58 119.955L226.78 107.08L226.424 108.015ZM261.743 139.156L260.901 120.4L259.902 120.444L260.744 139.201L261.743 139.156ZM191.347 107.653L227.051 122.228L227.429 121.302L191.725 106.727L191.347 107.653ZM190.977 98.116L226.468 108.029L226.737 107.066L191.246 97.1529L190.977 98.116ZM154.334 96.0596L191.386 107.667L191.685 106.713L154.633 95.1053L154.334 96.0596ZM154.182 91.2709L191.02 98.126L191.203 97.1429L154.365 90.2877L154.182 91.2709ZM192.035 107.168L191.611 97.6122L190.612 97.6566L191.036 107.213L192.035 107.168ZM116.383 87.5548L154.225 91.2769L154.323 90.2817L116.48 86.5596L116.383 87.5548ZM116.322 87.5452L154.374 96.0703L154.592 95.0945L116.541 86.5693L116.322 87.5452ZM153.774 90.8011L153.984 95.6042L154.983 95.5607L154.773 90.7575L153.774 90.8011ZM-65.6013 813.34L-61.3252 814.754L-61.0113 813.805L-65.2874 812.391L-65.6013 813.34ZM-15.0469 821.186L39.3266 827.637L39.4444 826.644L-14.9291 820.193L-15.0469 821.186ZM39.3896 827.641L92.416 827.214L92.4079 826.214L39.3815 826.641L39.3896 827.641Z" fill="white"/>
</svg>
