<svg width="85" height="112" viewBox="0 0 85 112" fill="none" xmlns="http://www.w3.org/2000/svg">
<path d="M42.3908 112C65.8026 112 84.7816 93.0208 84.7816 69.609C84.7816 46.1973 65.8026 27.2183 42.3908 27.2183C18.979 27.2183 0 46.1973 0 69.609C0 93.0208 18.979 112 42.3908 112Z" fill="black"/>
<path opacity="0.86" d="M42.3908 112C65.8026 112 84.7816 93.0208 84.7816 69.609C84.7816 46.1973 65.8026 27.2183 42.3908 27.2183C18.979 27.2183 0 46.1973 0 69.609C0 93.0208 18.979 112 42.3908 112Z" fill="white"/>
<path opacity="0.1" d="M20.0744 70.2612L28.9109 82.8383L14.1364 85.2962L9.18799 78.6189L20.0744 70.2612Z" fill="black"/>
<path opacity="0.1" d="M76.9803 50.9201L71.0422 45.9761L64.4444 55.3129L66.5083 57.7008L76.9803 50.9201Z" fill="black"/>
<path opacity="0.1" d="M16.2807 55.3131L21.7411 51.2368L26.3466 58.7203L21.0325 61.5116L16.2807 55.3131Z" fill="black"/>
<path opacity="0.1" d="M48.5067 100.52L54.7905 95.4062L58.6714 100.52L51.6734 105.303L48.5067 100.52Z" fill="black"/>
<path opacity="0.1" d="M23.3489 63.5721L29.0513 59.4058L33.5997 65.3865L31.1257 67.9135L34.8108 72.6674L38.2182 70.261L42.1886 75.2832L34.8108 80.7263L23.3489 63.5721Z" fill="black"/>
<path d="M84.719 71.9243L63.4826 86.3025L73.2648 98.656C72.974 98.9665 72.678 99.2719 72.3768 99.5721L62.4499 87.0359L45.2015 99.8938L52.841 110.702C52.4012 110.814 51.9586 110.919 51.5131 111.015L43.8133 100.12L33.0096 85.0548L14.0958 88.8654L15.6091 102.468C15.1313 102.079 14.663 101.679 14.204 101.269L12.7975 88.6251L0.236056 74.0937C0.160182 73.3884 0.103042 72.6779 0.0646362 71.9622L13.6405 87.6682L32.2003 83.9279L6.15103 47.6051C6.38709 47.2159 6.6297 46.8309 6.87887 46.4501L33.56 83.6539L33.7061 83.6244L53.1693 69.9291L39.3826 52.0311L41.3736 27.2314C41.7123 27.223 42.0514 27.2188 42.3909 27.2188C42.4752 27.2188 42.5595 27.2187 42.6438 27.2202L40.6823 51.6461L54.2049 69.1998L80.3801 50.782C80.5712 51.1642 80.7558 51.5501 80.9338 51.9398L34.3314 84.7302L44.4676 98.8639L62.6789 85.2883L62.6958 85.3094L84.7738 70.3607C84.7654 70.8845 84.7471 71.4044 84.719 71.9243Z" fill="white"/>
<path d="M42.3897 1.80176C29.0467 1.80176 18.2731 12.5866 18.2731 25.8888C18.2731 30.0716 19.8609 34.783 21.2155 37.4359C25.6623 46.1498 42.1217 70.5152 42.1217 70.5152C42.1496 70.5618 42.189 70.6003 42.2361 70.6271C42.2833 70.6538 42.3366 70.6679 42.3908 70.6679C42.445 70.6679 42.4983 70.6538 42.5455 70.6271C42.5927 70.6003 42.6321 70.5618 42.6599 70.5152C42.6599 70.5152 59.1192 46.1498 63.566 37.4359C64.9201 34.7824 66.5084 30.0716 66.5084 25.8888C66.5084 12.5861 55.7346 1.80176 42.3918 1.80176H42.3897Z" fill="black"/>
<path opacity="0.12" d="M42.3897 1.80176C29.0467 1.80176 18.2731 12.5866 18.2731 25.8888C18.2731 30.0716 19.8609 34.783 21.2155 37.4359C25.6623 46.1498 42.1217 70.5152 42.1217 70.5152C42.1496 70.5618 42.189 70.6003 42.2361 70.6271C42.2833 70.6538 42.3366 70.6679 42.3908 70.6679C42.445 70.6679 42.4983 70.6538 42.5455 70.6271C42.5927 70.6003 42.6321 70.5618 42.6599 70.5152C42.6599 70.5152 59.1192 46.1498 63.566 37.4359C64.9201 34.7824 66.5084 30.0716 66.5084 25.8888C66.5084 12.5861 55.7346 1.80176 42.3918 1.80176H42.3897Z" fill="white"/>
<path d="M41.8715 5.57908C42.0446 5.57473 42.216 5.57908 42.3901 5.57908C45.0641 5.57911 47.7114 6.11061 50.1781 7.1427C52.6449 8.17478 54.8819 9.68687 56.7591 11.5911C58.6364 13.4953 60.1164 15.7536 61.1133 18.2348C62.1101 20.716 62.6038 23.3706 62.5657 26.0443C62.4138 36.9114 53.5447 45.7815 42.6769 45.9321C37.3538 45.9943 32.2216 43.9508 28.3983 40.2466C24.5749 36.5423 22.37 31.4774 22.2637 26.155C22.1575 20.8325 24.1586 15.6837 27.8311 11.8298C31.5036 7.97597 36.5501 5.72928 41.8715 5.57908Z" fill="white"/>
<path d="M48.5067 0.319824C48.5067 0.319824 54.3441 0.391202 52.3315 8.43586L51.7835 8.46256L50.6708 8.5168L48.5067 0.319824Z" fill="#0C0C0C"/>
<path d="M41.9888 16.876C42.016 16.8734 42.1235 21.8911 47.956 21.6804C51.9938 21.5349 53.595 17.3191 53.6873 17.3226C53.2568 17.2136 52.5311 17.051 52.3423 16.9407C51.7215 16.5754 50.9512 16.1906 50.7943 14.9516C50.7041 14.2374 51.0447 10.6149 51.0111 9.89453L44.7776 11.0342C44.805 12.5538 45.273 16.0925 43.1305 16.6323C42.7741 16.7215 42.3915 16.8015 41.9888 16.876Z" fill="#E98862"/>
<path opacity="0.52" d="M44.5272 15.248C44.6361 14.9398 44.711 14.6205 44.7503 14.296C44.8471 13.5558 44.8626 12.8072 44.7965 12.0636C46.0592 11.9429 47.2627 11.4703 48.2702 10.6997C48.3685 11.128 48.9277 13.004 48.7374 13.4003C48.3771 14.1493 46.7771 15.3354 44.5272 15.248Z" fill="#0C0C0C"/>
<path d="M45.9422 14.3615C48.3857 14.1871 51.3337 12.6989 51.4361 9.3882L51.5284 6.40085C51.6308 3.0902 49.9751 0.352532 46.8578 0.256003C43.7406 0.159614 41.3276 2.7711 41.2252 6.08218L41.1843 7.40464C41.1782 7.85894 41.203 8.31314 41.2586 8.76406C41.3969 9.95697 41.6117 11.7709 42.3968 13.0095C43.1388 14.1788 44.381 14.4725 45.9422 14.3615Z" fill="#E98862"/>
<path d="M51.2113 10.3908C52.1586 10.4202 52.9578 9.43044 52.9872 8.48314C53.0166 7.53583 52.2647 6.98967 51.3174 6.96045L50.8096 7.58009L50.3968 10.3657L51.2113 10.3908Z" fill="#E98862"/>
<path d="M41.3855 9.764C41.5566 9.96695 41.7758 10.1239 42.023 10.2205C42.2703 10.317 42.5378 10.3503 42.8011 10.317C43.3643 10.2468 43.7382 10.4774 44.2085 10.4309C44.6033 10.3919 44.6721 10.2097 45.3453 10.1698C47.9466 10.0152 49.8978 9.85182 50.025 6.58781L51.6801 5.11768C51.6801 5.11768 52.4199 14.1623 47.5278 15.3647C44.5218 16.1035 41.7022 15.8331 41.3397 13.0097C41.0452 10.7157 41.3855 9.764 41.3855 9.764Z" fill="#0C0C0C"/>
<path d="M42.6178 7.87523C42.83 7.87523 43.0019 7.70324 43.0019 7.49108C43.0019 7.27892 42.83 7.10693 42.6178 7.10693C42.4056 7.10693 42.2336 7.27892 42.2336 7.49108C42.2336 7.70324 42.4056 7.87523 42.6178 7.87523Z" fill="#0C0C0C"/>
<path d="M46.0493 7.80346C46.2614 7.80346 46.4334 7.63147 46.4334 7.41931C46.4334 7.20715 46.2614 7.03516 46.0493 7.03516C45.8371 7.03516 45.6651 7.20715 45.6651 7.41931C45.6651 7.63147 45.8371 7.80346 46.0493 7.80346Z" fill="#0C0C0C"/>
<path d="M50.2962 8.85111C50.2962 8.85111 50.0616 4.15953 48.646 3.84423C47.7033 3.63431 45.3841 4.93486 43.2659 4.49057C42.3385 4.29639 41.4522 4.51038 41.355 4.94807C41.3162 5.12131 40.5822 3.58429 42.0735 1.71399C43.2605 0.2246 47.1202 -0.193974 48.8373 0.332651C53.5914 1.79099 51.5089 7.17035 51.5089 7.17035L51.2663 8.78198L50.2962 8.85111Z" fill="#0C0C0C"/>
<path d="M52.457 5.06785C53.8565 5.06785 54.9909 3.93338 54.9909 2.53393C54.9909 1.13448 53.8565 0 52.457 0C51.0576 0 49.9231 1.13448 49.9231 2.53393C49.9231 3.93338 51.0576 5.06785 52.457 5.06785Z" fill="#0C0C0C"/>
<path d="M44.2549 10.2799H44.2488C43.9436 10.2713 43.4324 10.2228 43.4386 9.99436C43.4442 9.8051 44.0199 7.77714 44.0849 7.54657C44.0873 7.53626 44.0917 7.52653 44.0979 7.51797C44.1041 7.50942 44.1119 7.50222 44.121 7.49681C44.1301 7.4914 44.1402 7.48789 44.1507 7.48651C44.1611 7.48513 44.1718 7.48589 44.182 7.48876C44.1921 7.49162 44.2016 7.49653 44.2098 7.50318C44.2181 7.50983 44.2248 7.51808 44.2298 7.52744C44.2347 7.53679 44.2376 7.54705 44.2385 7.55758C44.2393 7.56812 44.238 7.57872 44.2346 7.58872C43.9791 8.48671 43.5979 9.87016 43.5941 9.99872C43.6222 10.0535 43.9371 10.1155 44.2531 10.1245C44.2737 10.1242 44.2936 10.1322 44.3083 10.1466C44.3231 10.161 44.3315 10.1807 44.3317 10.2013C44.332 10.2219 44.324 10.2417 44.3096 10.2565C44.2952 10.2712 44.2756 10.2796 44.2549 10.2799Z" fill="#0C0C0C"/>
<path d="M43.325 6.18568C43.0096 6.09193 42.6746 6.08499 42.3555 6.16559C42.1986 6.20422 42.0484 6.26617 41.9098 6.34938C41.7727 6.43104 41.6463 6.52965 41.5338 6.6429C41.5242 6.65155 41.5163 6.66202 41.5107 6.67372C41.5051 6.68541 41.5018 6.69809 41.5011 6.71104C41.5004 6.72399 41.5023 6.73695 41.5066 6.74919C41.5109 6.76142 41.5175 6.77269 41.5262 6.78235C41.5348 6.79201 41.5453 6.79987 41.557 6.80549C41.5687 6.8111 41.5814 6.81435 41.5943 6.81506C41.6073 6.81577 41.6202 6.81393 41.6325 6.80963C41.6447 6.80533 41.656 6.79866 41.6656 6.79001L41.6717 6.78495C41.7765 6.69045 41.8927 6.60949 42.0177 6.54398C42.1408 6.47874 42.2731 6.4325 42.41 6.40684C42.6803 6.35393 42.9597 6.37332 43.2201 6.46305L43.2301 6.4667C43.267 6.48026 43.3078 6.4786 43.3435 6.46206C43.3793 6.44553 43.4069 6.41548 43.4205 6.37853C43.4341 6.34158 43.4324 6.30076 43.4159 6.26504C43.3993 6.22932 43.3693 6.20164 43.3323 6.18807L43.325 6.18568Z" fill="#0C0C0C"/>
<path d="M45.5887 6.46404C45.8391 6.3492 46.1154 6.30262 46.3896 6.32901C46.5284 6.34128 46.6645 6.37444 46.7934 6.42736C46.9242 6.48046 47.0478 6.54976 47.1613 6.63363L47.1676 6.63785C47.178 6.64553 47.1899 6.65109 47.2024 6.65419C47.215 6.6573 47.2281 6.6579 47.2409 6.65595C47.2537 6.65401 47.266 6.64956 47.2771 6.64286C47.2882 6.63616 47.2979 6.62734 47.3056 6.61691C47.3132 6.60648 47.3188 6.59463 47.3219 6.58205C47.325 6.56947 47.3256 6.5564 47.3237 6.54358C47.3217 6.53077 47.3173 6.51847 47.3106 6.50737C47.3039 6.49628 47.2951 6.48662 47.2846 6.47893C47.1617 6.37708 47.0264 6.29116 46.8819 6.22321C46.736 6.15384 46.5804 6.10676 46.4205 6.08354C46.0952 6.03438 45.7628 6.0738 45.458 6.19763C45.44 6.20511 45.4237 6.21605 45.4099 6.22984C45.3961 6.24364 45.3852 6.26001 45.3778 6.27802C45.3703 6.29603 45.3665 6.31533 45.3665 6.33482C45.3665 6.35431 45.3704 6.37361 45.3779 6.3916C45.3853 6.4096 45.3963 6.42596 45.4101 6.43973C45.4239 6.4535 45.4402 6.46441 45.4582 6.47186C45.4763 6.4793 45.4956 6.48312 45.515 6.48311C45.5345 6.48309 45.5538 6.47924 45.5718 6.47176L45.579 6.46867L45.5887 6.46404Z" fill="#0C0C0C"/>
<path d="M28.7437 17.0124L28.9103 12.8865C28.914 12.7958 28.8987 12.7054 28.8655 12.621C28.8323 12.5366 28.7818 12.46 28.7174 12.3961C28.653 12.3323 28.5759 12.2825 28.4912 12.25C28.4065 12.2176 28.316 12.2031 28.2253 12.2075C28.0582 12.2209 27.9021 12.2959 27.7871 12.4179C27.6722 12.54 27.6067 12.7003 27.6033 12.8679L27.5676 13.7531L26.403 10.9187C26.279 10.6014 25.9238 10.2913 25.577 10.4539C25.4396 10.5078 25.3246 10.6067 25.2506 10.7344C25.1766 10.8622 25.148 11.0112 25.1696 11.1572C25.1663 11.1577 25.163 11.1584 25.1599 11.1593C25.1575 11.1605 25.1558 11.1623 25.1536 11.1636L24.9625 10.6743C24.927 10.5837 24.8718 10.5021 24.8008 10.4355C24.7299 10.3689 24.6449 10.3189 24.5522 10.2893C24.4595 10.2597 24.3614 10.2512 24.2649 10.2643C24.1685 10.2774 24.0762 10.3119 23.9948 10.3652C23.8683 10.4518 23.7754 10.5791 23.7316 10.726C23.6878 10.8729 23.6958 11.0303 23.7542 11.172L23.835 11.3814C23.8301 11.3865 23.8261 11.3924 23.8232 11.3989C23.7356 11.271 23.6054 11.1784 23.4558 11.1377C23.3062 11.097 23.147 11.1109 23.0067 11.1768C22.8553 11.2534 22.7383 11.3843 22.6791 11.5434C22.62 11.7025 22.623 11.878 22.6875 12.035L22.8897 12.5521C22.8817 12.5468 22.8725 12.5435 22.8629 12.5424C22.8534 12.5414 22.8437 12.5426 22.8347 12.546C22.8243 12.5507 22.8154 12.5582 22.8092 12.5678C22.6995 12.4756 22.5626 12.4219 22.4195 12.4151C22.2763 12.4082 22.1349 12.4486 22.017 12.53C21.8948 12.618 21.8059 12.7446 21.7647 12.8894C21.7234 13.0342 21.7323 13.1887 21.7899 13.3278L23.4951 17.6914C23.7337 18.3019 24.1492 18.8271 24.6882 19.1999C25.2273 19.5727 25.8654 19.776 26.5207 19.7837C27.0858 19.7904 27.6312 19.5765 28.0411 19.1875C28.4511 18.7985 28.6932 18.265 28.716 17.7003L28.7437 17.0124Z" fill="#E98862"/>
<g opacity="0.2">
<path d="M26.3079 13.9677C26.2932 13.9733 26.2769 13.973 26.2624 13.9667C26.248 13.9605 26.2366 13.9488 26.2306 13.9343L25.1265 11.2381C25.1234 11.2307 25.1217 11.2228 25.1217 11.2149C25.1217 11.2069 25.1232 11.199 25.1263 11.1916C25.1293 11.1842 25.1338 11.1775 25.1394 11.1719C25.1451 11.1663 25.1518 11.1618 25.1591 11.1588C25.1665 11.1558 25.1744 11.1542 25.1824 11.1543C25.1904 11.1544 25.1983 11.156 25.2056 11.1591C25.2129 11.1622 25.2196 11.1668 25.2252 11.1725C25.2307 11.1782 25.2351 11.185 25.238 11.1924L26.3421 13.8886C26.3452 13.8959 26.3467 13.9038 26.3467 13.9117C26.3466 13.9197 26.345 13.9275 26.342 13.9348C26.3389 13.9421 26.3344 13.9487 26.3288 13.9543C26.3231 13.9599 26.3165 13.9643 26.3091 13.9673L26.3079 13.9677Z" fill="#0C0C0C"/>
</g>
<g opacity="0.2">
<path d="M25.1322 14.4872C25.1175 14.4928 25.1012 14.4925 25.0868 14.4862C25.0723 14.48 25.0609 14.4683 25.055 14.4538L23.8227 11.4448C23.8197 11.4375 23.8182 11.4296 23.8182 11.4217C23.8182 11.4138 23.8198 11.406 23.8228 11.3987C23.8259 11.3914 23.8304 11.3848 23.836 11.3792C23.8416 11.3736 23.8483 11.3692 23.8556 11.3662C23.8704 11.3607 23.8868 11.361 23.9014 11.3671C23.916 11.3732 23.9278 11.3847 23.9343 11.3991L25.1665 14.4081C25.1726 14.4229 25.1725 14.4395 25.1663 14.4543C25.1601 14.469 25.1483 14.4807 25.1335 14.4868L25.1322 14.4872Z" fill="#0C0C0C"/>
</g>
<g opacity="0.2">
<path d="M23.862 15.0578C23.8473 15.0634 23.831 15.063 23.8166 15.0568C23.8021 15.0506 23.7907 15.0389 23.7847 15.0243L22.8012 12.6242C22.7982 12.6169 22.7967 12.609 22.7967 12.6011C22.7967 12.5932 22.7983 12.5853 22.8014 12.578C22.8045 12.5707 22.8089 12.5641 22.8146 12.5585C22.8202 12.5529 22.8269 12.5485 22.8342 12.5455C22.8415 12.5425 22.8494 12.541 22.8573 12.541C22.8652 12.5411 22.8731 12.5426 22.8804 12.5457C22.8877 12.5488 22.8943 12.5533 22.8999 12.5589C22.9055 12.5645 22.9099 12.5712 22.9129 12.5785L23.8964 14.9787C23.9025 14.9935 23.9024 15.0101 23.8963 15.0248C23.8901 15.0396 23.8783 15.0513 23.8636 15.0574L23.862 15.0578Z" fill="#0C0C0C"/>
</g>
<path d="M43.5784 11.1222C44.4995 11.1833 45.4146 10.9358 46.1792 10.4187C46.2058 10.4011 46.2368 10.3914 46.2686 10.3907C46.3005 10.39 46.3319 10.3983 46.3592 10.4147C46.3865 10.4311 46.4086 10.4549 46.4229 10.4834C46.4372 10.5118 46.4432 10.5438 46.4402 10.5755C46.3788 11.1197 46.1098 12.1201 44.9685 12.2475C44.2315 12.3297 43.6974 11.7637 43.4284 11.3875C43.41 11.3614 43.3994 11.3306 43.3978 11.2987C43.3962 11.2668 43.4037 11.2351 43.4194 11.2073C43.4352 11.1795 43.4584 11.1568 43.4866 11.1417C43.5147 11.1266 43.5466 11.1199 43.5784 11.1222Z" fill="white"/>
<path d="M61.5005 22.4729C60.9475 20.9006 60.5008 20.1166 59.9327 19.4965C59.1552 18.6478 57.9857 17.8122 55.8171 17.433C54.4923 17.2026 52.4953 16.9952 52.4953 16.9952C52.4953 16.9987 52.4949 17.0022 52.4944 17.0057C52.4713 17.2141 52.0588 20.4201 48.1397 20.4522C42.7396 20.4974 43.1274 16.7878 43.1159 16.6362C43.1168 16.6332 43.1168 16.6313 43.1159 16.6313C41.4406 16.5661 37.2635 16.5286 35.5815 18.174C35.4052 18.3452 35.2428 18.5302 35.0958 18.7271L35.0727 18.713L31.2171 24.6408L30.254 16.7695L28.744 17.0115L23.843 17.7968L23.5598 17.8419L21.8135 18.1229L22.4222 22.8406L23.817 33.6562C25.1781 36.8482 27.3377 39.6362 30.0879 41.7522C31.226 40.146 33.1089 37.3753 35.0639 34.4713C35.0945 34.4252 35.1253 34.3791 35.1569 34.3331V34.334C35.1569 34.3657 35.1579 34.3983 35.1589 34.431C35.1637 34.6384 35.1694 34.8736 35.1742 35.1327C35.2203 37.5126 35.2673 41.875 35.3057 44.6562C38.7857 45.9596 42.5584 46.2746 46.2064 45.5663C49.8543 44.8581 53.2351 43.1542 55.9745 40.6433C55.9937 40.627 56.012 40.6097 56.0307 40.5914C56.0672 40.5588 56.1037 40.5253 56.1392 40.4917C58.0133 38.7434 59.5403 36.6568 60.6398 34.3416C61.8545 31.7823 62.5106 28.9937 62.5647 26.1612V26.1603L61.5005 22.4729Z" fill="#613DE5"/>
<path d="M56.1383 40.4913C56.1029 40.5249 56.0663 40.5585 56.0298 40.5911C56.0117 40.6094 55.9934 40.6267 55.9736 40.643L54.932 35.3427L54.931 35.3369L53.4417 27.7613L53.6298 27.7124L56.1383 40.4913Z" fill="#0C0C0C"/>
<path d="M35.1833 35.1329C35.159 35.1319 35.136 35.1218 35.1188 35.1046C35.1015 35.0875 35.0914 35.0645 35.0903 35.0402L34.8977 30.8047C34.8971 30.7919 34.899 30.7792 34.9034 30.7672C34.9077 30.7552 34.9144 30.7442 34.923 30.7348C34.9316 30.7254 34.9419 30.7177 34.9535 30.7123C34.965 30.7069 34.9775 30.7038 34.9903 30.7032C35.003 30.7026 35.0158 30.7046 35.0277 30.7089C35.0397 30.7133 35.0508 30.7199 35.0602 30.7285C35.0696 30.7371 35.0772 30.7475 35.0826 30.759C35.0881 30.7706 35.0911 30.7831 35.0917 30.7958L35.2844 35.0314C35.2849 35.0442 35.283 35.0569 35.2787 35.0689C35.2743 35.0809 35.2677 35.0919 35.2591 35.1013C35.2505 35.1107 35.2401 35.1183 35.2286 35.1237C35.217 35.1291 35.2045 35.1322 35.1918 35.1328C35.1883 35.1329 35.1856 35.133 35.1833 35.1329Z" fill="#0C0C0C"/>
</svg>
