<svg width="152" height="131" viewBox="0 0 152 131" fill="none" xmlns="http://www.w3.org/2000/svg">
<circle cx="21" cy="25" r="5" fill="#FCD439"/>
<circle cx="18" cy="109" r="7" fill="#FCD439"/>
<circle cx="145" cy="41" r="7" fill="#FCD439"/>
<circle cx="134" cy="14" r="4" fill="#FCD439"/>
<g filter="url(#filter0_dd_786_24800)">
<path d="M76 36.0629L80.536 34.1629L76.0006 36.0951V90.1898L117.796 72.6754V18.5566L118 18.4712L117.796 18.3809V18.29L117.692 18.3346L76.3298 0L34 18.0314L34.2004 18.1175L34 72.0166L76 90.1576L76 36.0629Z" fill="white"/>
<path d="M34.6976 18.8748L75.5 36.3921V89.3967L34.5012 71.6881L34.6976 18.8748Z" fill="#FCD439" stroke="black"/>
<path d="M117.296 19.0465V72.3428L76.5008 89.4381V36.4256L117.296 19.0465Z" fill="#FCD439" stroke="black"/>
<path d="M76.3259 0.545163L116.737 18.4582L76.0024 35.5198L35.2716 18.0332L76.3259 0.545163Z" fill="#FCD439" stroke="black"/>
<path d="M92.172 29.4848L92.1629 29.1674L91.8718 29.0407L51.0966 11.2928L60.3301 7.35953L102.913 24.9233L103.25 37.6091L92.5314 42.0317L92.172 29.4848Z" fill="#FF4242" stroke="black"/>
</g>
<g filter="url(#filter1_b_786_24800)">
<rect x="52" y="68" width="48" height="48" rx="24" fill="#344054" fill-opacity="0.4"/>
<path d="M85 101L80.65 96.65M83 91C83 95.4183 79.4183 99 75 99C70.5817 99 67 95.4183 67 91C67 86.5817 70.5817 83 75 83C79.4183 83 83 86.5817 83 91Z" stroke="white" stroke-width="2" stroke-linecap="round" stroke-linejoin="round"/>
</g>
<defs>
<filter id="filter0_dd_786_24800" x="14" y="0" width="124" height="130.189" filterUnits="userSpaceOnUse" color-interpolation-filters="sRGB">
<feFlood flood-opacity="0" result="BackgroundImageFix"/>
<feColorMatrix in="SourceAlpha" type="matrix" values="0 0 0 0 0 0 0 0 0 0 0 0 0 0 0 0 0 0 127 0" result="hardAlpha"/>
<feMorphology radius="4" operator="erode" in="SourceAlpha" result="effect1_dropShadow_786_24800"/>
<feOffset dy="8"/>
<feGaussianBlur stdDeviation="4"/>
<feColorMatrix type="matrix" values="0 0 0 0 0.0627451 0 0 0 0 0.0941176 0 0 0 0 0.156863 0 0 0 0.03 0"/>
<feBlend mode="normal" in2="BackgroundImageFix" result="effect1_dropShadow_786_24800"/>
<feColorMatrix in="SourceAlpha" type="matrix" values="0 0 0 0 0 0 0 0 0 0 0 0 0 0 0 0 0 0 127 0" result="hardAlpha"/>
<feMorphology radius="4" operator="erode" in="SourceAlpha" result="effect2_dropShadow_786_24800"/>
<feOffset dy="20"/>
<feGaussianBlur stdDeviation="12"/>
<feColorMatrix type="matrix" values="0 0 0 0 0.0627451 0 0 0 0 0.0941176 0 0 0 0 0.156863 0 0 0 0.08 0"/>
<feBlend mode="normal" in2="effect1_dropShadow_786_24800" result="effect2_dropShadow_786_24800"/>
<feBlend mode="normal" in="SourceGraphic" in2="effect2_dropShadow_786_24800" result="shape"/>
</filter>
<filter id="filter1_b_786_24800" x="44" y="60" width="64" height="64" filterUnits="userSpaceOnUse" color-interpolation-filters="sRGB">
<feFlood flood-opacity="0" result="BackgroundImageFix"/>
<feGaussianBlur in="BackgroundImageFix" stdDeviation="4"/>
<feComposite in2="SourceAlpha" operator="in" result="effect1_backgroundBlur_786_24800"/>
<feBlend mode="normal" in="SourceGraphic" in2="effect1_backgroundBlur_786_24800" result="shape"/>
</filter>
</defs>
</svg>
