<svg width="22" height="23" viewBox="0 0 22 23" fill="none" xmlns="http://www.w3.org/2000/svg">
<path d="M6.29824 0.699951C2.82514 0.699951 0 3.52771 0 7.00171V16.0017C0 19.4748 2.82776 22.3 6.30176 22.3H15.3018C18.7749 22.3 21.6 19.4722 21.6 15.9982V6.99819C21.6 3.52509 18.7722 0.699951 15.2982 0.699951H6.29824ZM17.1 4.29995C17.5968 4.29995 18 4.70315 18 5.19995C18 5.69675 17.5968 6.09995 17.1 6.09995C16.6032 6.09995 16.2 5.69675 16.2 5.19995C16.2 4.70315 16.6032 4.29995 17.1 4.29995ZM10.8 6.09995C13.7781 6.09995 16.2 8.52185 16.2 11.5C16.2 14.4781 13.7781 16.9 10.8 16.9C7.8219 16.9 5.4 14.4781 5.4 11.5C5.4 8.52185 7.8219 6.09995 10.8 6.09995ZM10.8 7.89995C9.84522 7.89995 8.92955 8.27924 8.25442 8.95437C7.57928 9.6295 7.2 10.5452 7.2 11.5C7.2 12.4547 7.57928 13.3704 8.25442 14.0455C8.92955 14.7207 9.84522 15.1 10.8 15.1C11.7548 15.1 12.6705 14.7207 13.3456 14.0455C14.0207 13.3704 14.4 12.4547 14.4 11.5C14.4 10.5452 14.0207 9.6295 13.3456 8.95437C12.6705 8.27924 11.7548 7.89995 10.8 7.89995Z" fill="#252525"/>
</svg>
