<svg width="79" height="75" viewBox="0 0 79 75" fill="none" xmlns="http://www.w3.org/2000/svg">
<path fill-rule="evenodd" clip-rule="evenodd" d="M77.8517 0H30.2673C13.621 0 0 13.258 0 29.4648C0 41.933 8.06095 52.6583 19.3616 56.9404L0.8131 75.0005H48.3975C65.0438 75.0005 78.6648 61.7404 78.6648 45.5336C78.6648 33.0654 70.6039 22.3401 59.3032 18.058L77.8517 0ZM19.3616 56.9425L35.8656 40.8737H30.2673C23.8219 40.8737 18.5485 35.7403 18.5485 29.4648C18.5485 23.1893 23.8219 18.058 30.2673 18.058H59.3032L42.7992 34.1247H48.3975C54.8429 34.1247 60.1163 39.2602 60.1163 45.5336C60.1163 51.8091 54.8429 56.9425 48.3975 56.9425H19.3616Z" fill="black"/>
</svg>
