<svg width="41" height="432" viewBox="0 0 41 432" fill="none" xmlns="http://www.w3.org/2000/svg">
<path d="M5.62006 14.6834C4.22611 15.7796 3.94191 17.7826 5.03135 19.2036C6.1208 20.6043 8.12375 20.8817 9.538 19.7923C10.9319 18.7028 11.1958 16.6931 10.1267 15.2721C9.01696 13.8579 7.014 13.594 5.62006 14.6834Z" fill="white" fill-opacity="0.5"/>
<path d="M10.0092 30.2588C9.00773 28.9528 7.13334 28.7092 5.82736 29.7175C4.51462 30.7189 4.27778 32.6001 5.27926 33.9061C6.28073 35.2188 8.15512 35.4557 9.4611 34.4542C10.7671 33.4459 11.0107 31.5716 10.0092 30.2588Z" fill="white" fill-opacity="0.5"/>
<path d="M10.4077 46.2541C10.4957 46.606 10.5092 46.9646 10.4551 47.3233C10.401 47.6887 10.2792 48.0202 10.0897 48.3315C9.90698 48.6495 9.66338 48.9134 9.37241 49.13C9.07468 49.3465 8.75664 49.4954 8.398 49.5833C8.04613 49.6713 7.68749 49.6848 7.32886 49.6307C6.97022 49.5766 6.63188 49.4548 6.32061 49.2653C6.00934 49.0758 5.74544 48.839 5.52891 48.5413C5.31914 48.2503 5.1635 47.9255 5.07554 47.5736C4.98757 47.215 4.97404 46.8631 5.02817 46.4977C5.0823 46.1391 5.2041 45.8007 5.39357 45.4895C5.58304 45.1782 5.81988 44.9143 6.11761 44.6978C6.40858 44.4812 6.73339 44.3324 7.08526 44.2444C7.43713 44.1564 7.79576 44.1361 8.1544 44.1903C8.51304 44.2512 8.85137 44.373 9.16264 44.5557C9.47391 44.7451 9.73781 44.9887 9.95435 45.2797C10.1709 45.5774 10.3198 45.9022 10.4077 46.2541Z" fill="white" fill-opacity="0.5"/>
<path d="M6.29041 59.7483C5.1739 60.6009 4.97766 62.1708 5.83027 63.2805C6.68288 64.397 8.24599 64.5933 9.36251 63.7406C10.4722 62.888 10.6685 61.3182 9.81588 60.2084C8.97003 59.0919 7.40015 58.8957 6.29041 59.7483Z" fill="white" fill-opacity="0.5"/>
<path d="M20.0833 29.6542C18.7773 30.6557 18.5405 32.5301 19.5419 33.8428C20.5434 35.1488 22.4178 35.3924 23.7238 34.3909C25.0298 33.3827 25.2666 31.5083 24.2651 30.1956C23.2636 28.8896 21.3893 28.646 20.0833 29.6542Z" fill="white" fill-opacity="0.5"/>
<path d="M20.3017 44.6685C19.104 45.582 18.8874 47.3346 19.801 48.5323C20.7145 49.73 22.4603 49.9533 23.658 49.033C24.8557 48.1195 25.0722 46.3737 24.1587 45.1692C23.2452 43.9715 21.5197 43.755 20.3017 44.6685Z" fill="white" fill-opacity="0.5"/>
<path d="M20.535 59.6642C19.4253 60.5168 19.229 62.0867 20.0816 63.2032C20.9275 64.313 22.4974 64.5092 23.6071 63.6634C24.7168 62.8107 24.9131 61.2409 24.0672 60.1244C23.2146 59.0349 21.6244 58.8387 20.535 59.6642Z" fill="white" fill-opacity="0.5"/>
<path d="M20.7635 74.7018C19.762 75.4664 19.5861 76.9077 20.3508 77.9092C21.1154 78.9175 22.5499 79.0866 23.5514 78.322C24.5529 77.5641 24.7288 76.1228 23.9642 75.1145C23.2063 74.1131 21.765 73.9371 20.7635 74.7018Z" fill="white" fill-opacity="0.5"/>
<path d="M34.5598 44.6068C33.3621 45.5203 33.1388 47.2661 34.059 48.4706C34.9726 49.6683 36.7116 49.8848 37.9161 48.9713C39.1138 48.051 39.3303 46.3052 38.4168 45.1075C37.4762 43.9098 35.7575 43.6662 34.5598 44.6068Z" fill="white" fill-opacity="0.5"/>
<path d="M34.7832 59.6207C33.6667 60.4733 33.4705 62.0432 34.3231 63.1597C35.1757 64.2695 36.7388 64.4657 37.8553 63.6131C38.9651 62.7672 39.1613 61.1906 38.3087 60.0808C37.4628 58.9914 35.893 58.7681 34.7832 59.6207Z" fill="white" fill-opacity="0.5"/>
<path d="M35.0113 74.6555C34.003 75.4201 33.8339 76.8614 34.5918 77.8629C35.3564 78.8644 36.7977 79.0403 37.7992 78.2757C38.8007 77.511 38.9766 76.0697 38.212 75.0683C37.4473 74.0668 36.0128 73.8705 35.0113 74.6555Z" fill="white" fill-opacity="0.5"/>
<path d="M35.2436 89.6509C34.3504 90.3478 34.1745 91.6403 34.8715 92.5335C35.5684 93.4267 36.8541 93.6026 37.7473 92.9057C38.6405 92.2087 38.8165 90.9162 38.1195 90.023C37.4225 89.1298 36.1368 88.9539 35.2436 89.6509Z" fill="white" fill-opacity="0.5"/>
<path d="M6.09775 99.2096C4.7038 100.299 4.4196 102.309 5.50904 103.723C6.59849 105.124 8.60144 105.408 10.0157 104.312C11.4096 103.222 11.6938 101.213 10.6044 99.7983C9.51495 98.3773 7.512 98.1134 6.09775 99.2096Z" fill="white" fill-opacity="0.5"/>
<path d="M10.4993 114.771C9.49784 113.458 7.62345 113.221 6.31747 114.223C5.01149 115.224 4.76789 117.105 5.76937 118.411C6.77084 119.724 8.64523 119.961 9.95121 118.959C11.264 117.951 11.5008 116.077 10.4993 114.771Z" fill="white" fill-opacity="0.5"/>
<path d="M6.55864 129.24C5.36092 130.154 5.14439 131.899 6.0579 133.097C6.97141 134.302 8.71722 134.518 9.91494 133.605C11.1126 132.684 11.3292 130.938 10.4157 129.741C9.4751 128.536 7.75635 128.299 6.55864 129.24Z" fill="white" fill-opacity="0.5"/>
<path d="M6.78534 144.251C5.6756 145.104 5.47936 146.674 6.3252 147.783C7.17781 148.9 8.74769 149.096 9.85743 148.243C10.9672 147.391 11.1634 145.821 10.3108 144.711C9.46496 143.615 7.89508 143.419 6.78534 144.251Z" fill="white" fill-opacity="0.5"/>
<path d="M24.4913 114.426C24.7755 114.71 24.992 115.028 25.1409 115.393C25.2898 115.765 25.371 116.144 25.371 116.544C25.371 116.936 25.2898 117.322 25.1409 117.687C24.992 118.052 24.7755 118.377 24.4913 118.655C24.2138 118.932 23.889 119.149 23.5236 119.304C23.1582 119.453 22.7793 119.528 22.3801 119.528C21.9876 119.528 21.6087 119.453 21.2433 119.304C20.8779 119.149 20.553 118.932 20.2756 118.655C19.9914 118.377 19.7749 118.052 19.626 117.687C19.4771 117.322 19.3959 116.936 19.3959 116.544C19.3959 116.144 19.4771 115.765 19.626 115.393C19.7749 115.028 19.9914 114.71 20.2756 114.426C20.553 114.148 20.8779 113.932 21.2433 113.776C21.6087 113.627 21.9876 113.553 22.3801 113.553C22.7793 113.553 23.1582 113.627 23.5236 113.776C23.889 113.932 24.2138 114.148 24.4913 114.426Z" fill="white" fill-opacity="0.5"/>
<path d="M22.8599 128.646C23.2185 128.693 23.5568 128.808 23.8749 128.991C24.1862 129.174 24.4568 129.41 24.6801 129.695C24.9034 129.986 25.0591 130.304 25.1538 130.655C25.2485 131.014 25.2756 131.366 25.2282 131.731C25.1809 132.09 25.0658 132.428 24.8831 132.746C24.7004 133.064 24.4636 133.328 24.1794 133.552C23.8884 133.775 23.5704 133.937 23.2185 134.032C22.8666 134.127 22.508 134.147 22.1494 134.1C21.7907 134.052 21.4524 133.937 21.1344 133.755C20.8163 133.579 20.5524 133.342 20.3291 133.051C20.1058 132.76 19.9502 132.442 19.8554 132.09C19.7607 131.738 19.7336 131.38 19.781 131.021C19.8284 130.655 19.9434 130.317 20.1261 130.006C20.3088 129.688 20.5389 129.417 20.8299 129.194C21.1208 128.971 21.4389 128.815 21.7907 128.72C22.1426 128.625 22.4945 128.598 22.8599 128.646Z" fill="white" fill-opacity="0.5"/>
<path d="M21.0394 144.189C19.9297 145.042 19.7335 146.612 20.5861 147.722C21.4319 148.838 23.0018 149.034 24.1115 148.182C25.2281 147.329 25.4243 145.759 24.5717 144.643C23.7191 143.553 22.1289 143.337 21.0394 144.189Z" fill="white" fill-opacity="0.5"/>
<path d="M21.2557 159.205C20.2542 159.97 20.0851 161.411 20.8429 162.412C21.6076 163.421 23.0421 163.59 24.0504 162.832C25.0518 162.067 25.221 160.626 24.4631 159.618C23.6782 158.637 22.2639 158.44 21.2557 159.205Z" fill="white" fill-opacity="0.5"/>
<path d="M35.0541 129.111C33.8564 130.025 33.6399 131.77 34.5534 132.975C35.4669 134.173 37.2127 134.396 38.4104 133.476C39.6081 132.562 39.8247 130.816 38.9112 129.612C37.9706 128.414 36.2518 128.191 35.0541 129.111Z" fill="white" fill-opacity="0.5"/>
<path d="M35.2902 144.144C34.1805 144.99 33.9842 146.567 34.8301 147.677C35.6827 148.793 37.2526 148.989 38.3623 148.137C39.472 147.284 39.6683 145.714 38.8157 144.598C37.9698 143.488 36.3796 143.292 35.2902 144.144Z" fill="white" fill-opacity="0.5"/>
<path d="M35.5046 159.16C34.5031 159.925 34.3272 161.366 35.0919 162.368C35.8497 163.369 37.291 163.545 38.2925 162.78C39.294 162.023 39.4699 160.581 38.7053 159.573C37.9406 158.572 36.5061 158.396 35.5046 159.16Z" fill="white" fill-opacity="0.5"/>
<path d="M38.9344 175.142C39.0223 175.399 39.0562 175.663 39.0359 175.933C39.0223 176.204 38.9547 176.461 38.8329 176.712C38.7111 176.955 38.5487 177.165 38.3457 177.348C38.1427 177.524 37.9126 177.659 37.6555 177.747C37.3983 177.835 37.1344 177.869 36.8637 177.855C36.5931 177.835 36.3359 177.767 36.0923 177.645C35.8487 177.53 35.639 177.368 35.4563 177.165C35.2803 176.955 35.145 176.725 35.057 176.468C34.9691 176.211 34.9352 175.947 34.9488 175.676C34.9691 175.406 35.0367 175.149 35.1585 174.905C35.2736 174.661 35.436 174.445 35.639 174.269C35.842 174.086 36.072 173.951 36.3292 173.863C36.5863 173.775 36.8502 173.741 37.1209 173.761C37.3915 173.775 37.6555 173.843 37.8991 173.964C38.1427 174.086 38.3524 174.249 38.5284 174.452C38.7111 174.655 38.8464 174.885 38.9344 175.142Z" fill="white" fill-opacity="0.5"/>
<path d="M10.7149 183.905C11.0262 184.189 11.2765 184.527 11.4525 184.913C11.6284 185.299 11.7299 185.705 11.7502 186.131C11.7637 186.557 11.7028 186.97 11.554 187.369C11.4119 187.769 11.1886 188.12 10.9044 188.439C10.6202 188.75 10.2818 188.993 9.89611 189.176C9.51041 189.352 9.10441 189.454 8.6781 189.467C8.25857 189.487 7.84579 189.42 7.44656 189.278C7.04732 189.129 6.68868 188.912 6.37741 188.628C6.06615 188.337 5.82254 187.999 5.63984 187.613C5.4639 187.227 5.36241 186.821 5.34887 186.395C5.32857 185.975 5.39624 185.563 5.53834 185.163C5.68721 184.764 5.90374 184.406 6.18795 184.094C6.47892 183.776 6.81725 183.533 7.19619 183.35C7.58189 183.174 7.9879 183.072 8.4142 183.059C8.8405 183.039 9.24651 183.106 9.64575 183.248C10.045 183.397 10.4036 183.614 10.7149 183.905Z" fill="white" fill-opacity="0.5"/>
<path d="M11.0067 199.289C10.0053 197.977 8.13089 197.74 6.82491 198.741C5.51893 199.749 5.27533 201.624 6.28357 202.937C7.28505 204.243 9.15943 204.486 10.4654 203.478C11.7714 202.476 12.0082 200.595 11.0067 199.289Z" fill="white" fill-opacity="0.5"/>
<path d="M7.05296 213.746C5.85525 214.66 5.63871 216.405 6.55222 217.61C7.46573 218.808 9.21155 219.024 10.4093 218.111C11.607 217.19 11.8235 215.444 10.91 214.247C9.99649 213.042 8.25067 212.826 7.05296 213.746Z" fill="white" fill-opacity="0.5"/>
<path d="M7.28666 228.772C6.17692 229.625 5.98069 231.195 6.82653 232.311C7.67913 233.421 9.24902 233.617 10.3588 232.771C11.4685 231.919 11.6647 230.349 10.8189 229.232C9.96629 228.123 8.37611 227.92 7.28666 228.772Z" fill="white" fill-opacity="0.5"/>
<path d="M21.0874 198.677C19.7746 199.679 19.5378 201.56 20.5393 202.866C21.5407 204.179 23.4151 204.415 24.7211 203.414C26.0339 202.412 26.2707 200.531 25.2692 199.225C24.2677 197.913 22.3933 197.676 21.0874 198.677Z" fill="white" fill-opacity="0.5"/>
<path d="M21.305 213.693C20.1073 214.613 19.884 216.359 20.8043 217.556C21.7178 218.761 23.4569 218.977 24.6546 218.064C25.8523 217.144 26.0756 215.398 25.1553 214.2C24.2215 212.996 22.5027 212.779 21.305 213.693Z" fill="white" fill-opacity="0.5"/>
<path d="M21.5379 228.727C20.4214 229.579 20.2251 231.149 21.0777 232.266C21.9236 233.375 23.4935 233.572 24.6032 232.719C25.7197 231.873 25.916 230.296 25.0633 229.187C24.2175 228.07 22.6476 227.874 21.5379 228.727Z" fill="white" fill-opacity="0.5"/>
<path d="M21.7682 243.722C20.7667 244.487 20.5908 245.928 21.3487 246.937C22.1133 247.938 23.5546 248.114 24.5561 247.349C25.5576 246.585 25.7335 245.143 24.9689 244.142C24.2042 243.134 22.7697 242.964 21.7682 243.722Z" fill="white" fill-opacity="0.5"/>
<path d="M35.5578 213.632C34.3601 214.552 34.1436 216.298 35.0571 217.496C35.9706 218.7 37.7164 218.917 38.9141 217.996C40.1119 217.083 40.3284 215.337 39.4149 214.133C38.4811 212.935 36.7556 212.698 35.5578 213.632Z" fill="white" fill-opacity="0.5"/>
<path d="M35.7825 228.65C34.6727 229.496 34.4765 231.072 35.3291 232.182C36.1749 233.298 37.7448 233.495 38.8546 232.642C39.9643 231.789 40.1605 230.22 39.3147 229.103C38.4621 228.014 36.8719 227.797 35.7825 228.65Z" fill="white" fill-opacity="0.5"/>
<path d="M36.0096 243.681C35.0081 244.445 34.8321 245.886 35.5968 246.888C36.3614 247.896 37.796 248.072 38.7974 247.307C39.7989 246.543 39.9749 245.102 39.2102 244.1C38.4523 243.092 37.011 242.896 36.0096 243.681Z" fill="white" fill-opacity="0.5"/>
<path d="M36.2301 258.701C35.3369 259.398 35.161 260.683 35.8579 261.576C36.5549 262.476 37.8406 262.652 38.7338 261.949C39.627 261.252 39.8029 259.966 39.106 259.073C38.4293 258.173 37.1436 257.997 36.2301 258.701Z" fill="white" fill-opacity="0.5"/>
<path d="M10.5278 267.938C10.9067 268.134 11.2315 268.391 11.5022 268.723C11.7796 269.048 11.9826 269.413 12.1112 269.819C12.2398 270.225 12.2804 270.638 12.2465 271.057C12.2127 271.484 12.0977 271.883 11.9014 272.262C11.7052 272.641 11.4413 272.966 11.1165 273.243C10.7917 273.514 10.433 273.717 10.027 273.845C9.62104 273.974 9.20827 274.021 8.78197 273.981C8.36243 273.947 7.96319 273.832 7.58426 273.635C7.20532 273.439 6.88052 273.182 6.60985 272.857C6.33241 272.526 6.12941 272.16 6.00084 271.761C5.87227 271.355 5.83167 270.936 5.86551 270.516C5.89934 270.09 6.01438 269.69 6.21061 269.312C6.40685 268.933 6.67075 268.608 6.99555 268.33C7.32035 268.06 7.67899 267.857 8.08499 267.728C8.491 267.6 8.90377 267.552 9.33007 267.593C9.74961 267.627 10.1488 267.742 10.5278 267.938Z" fill="white" fill-opacity="0.5"/>
<path d="M11.5134 283.806C10.5119 282.5 8.63751 282.256 7.33153 283.265C6.02556 284.266 5.78872 286.14 6.7902 287.453C7.79167 288.759 9.66606 289.003 10.972 288.001C12.278 286.973 12.5216 285.098 11.5134 283.806Z" fill="white" fill-opacity="0.5"/>
<path d="M7.56175 298.263C6.36404 299.177 6.1475 300.929 7.06101 302.127C7.98129 303.325 9.72034 303.548 10.918 302.628C12.1158 301.714 12.3391 299.968 11.4188 298.764C10.485 297.566 8.76623 297.35 7.56175 298.263Z" fill="white" fill-opacity="0.5"/>
<path d="M7.78253 313.275C6.67279 314.127 6.47655 315.697 7.32916 316.814C8.175 317.924 9.74489 318.12 10.8546 317.274C11.9711 316.421 12.1674 314.851 11.3148 313.735C10.4622 312.646 8.87198 312.449 7.78253 313.275Z" fill="white" fill-opacity="0.5"/>
<path d="M21.5784 283.183C20.2725 284.192 20.0289 286.066 21.0303 287.379C22.0386 288.685 23.9062 288.928 25.2189 287.92C26.5249 286.919 26.7618 285.038 25.7603 283.732C24.7385 282.419 22.8844 282.182 21.5784 283.183Z" fill="white" fill-opacity="0.5"/>
<path d="M25.7546 298.846C25.9576 299.144 26.0997 299.475 26.1741 299.827C26.2486 300.186 26.2553 300.545 26.1877 300.903C26.1268 301.262 25.9914 301.593 25.7952 301.898C25.5922 302.202 25.3486 302.46 25.0441 302.669C24.7464 302.872 24.4215 303.014 24.0629 303.089C23.7043 303.17 23.3524 303.17 22.9938 303.109C22.6351 303.041 22.3036 302.906 21.9991 302.71C21.6878 302.507 21.4374 302.263 21.2277 301.959C21.0246 301.661 20.8825 301.329 20.8081 300.978C20.7337 300.619 20.7269 300.26 20.7946 299.902C20.8555 299.543 20.9908 299.211 21.1871 298.907C21.3901 298.596 21.6337 298.345 21.9382 298.136C22.2359 297.933 22.5607 297.79 22.9193 297.709C23.278 297.635 23.6298 297.635 23.9885 297.696C24.3471 297.763 24.6787 297.899 24.9832 298.095C25.2945 298.291 25.5448 298.542 25.7546 298.846Z" fill="white" fill-opacity="0.5"/>
<path d="M22.0311 313.23C20.9214 314.083 20.7251 315.653 21.571 316.769C22.4236 317.879 23.9935 318.075 25.1032 317.223C26.213 316.377 26.4092 314.8 25.5566 313.691C24.7108 312.601 23.1409 312.378 22.0311 313.23Z" fill="white" fill-opacity="0.5"/>
<path d="M22.2593 328.266C21.2578 329.03 21.0819 330.472 21.8465 331.473C22.6044 332.475 24.0457 332.651 25.0472 331.886C26.0486 331.121 26.2246 329.687 25.4599 328.679C24.6953 327.677 23.2608 327.481 22.2593 328.266Z" fill="white" fill-opacity="0.5"/>
<path d="M36.0413 298.153C34.8436 299.074 34.6271 300.819 35.5406 302.017C36.4541 303.222 38.1999 303.438 39.3976 302.525C40.5953 301.604 40.8119 299.859 39.8984 298.661C38.9848 297.456 37.2661 297.24 36.0413 298.153Z" fill="white" fill-opacity="0.5"/>
<path d="M36.2855 313.168C35.1757 314.021 34.9795 315.591 35.8321 316.707C36.6779 317.817 38.2478 318.013 39.3576 317.161C40.4741 316.315 40.6703 314.738 39.8177 313.629C38.9651 312.512 37.3749 312.316 36.2855 313.168Z" fill="white" fill-opacity="0.5"/>
<path d="M36.5039 328.184C35.5024 328.949 35.3265 330.39 36.0911 331.399C36.8557 332.4 38.2903 332.576 39.2918 331.811C40.3 331.047 40.4692 329.605 39.7113 328.604C38.9467 327.596 37.5054 327.426 36.5039 328.184Z" fill="white" fill-opacity="0.5"/>
<path d="M36.7383 343.216C35.8451 343.913 35.6759 345.205 36.3729 346.099C37.0698 346.992 38.3555 347.168 39.2487 346.471C40.1419 345.767 40.3111 344.481 39.6141 343.588C38.9172 342.695 37.6315 342.519 36.7383 343.216Z" fill="white" fill-opacity="0.5"/>
<path d="M7.60773 352.75C6.21378 353.846 5.92958 355.849 7.01902 357.27C8.10847 358.664 10.1114 358.948 11.5257 357.859C12.9196 356.769 13.2038 354.76 12.1144 353.339C11.0249 351.924 9.00167 351.661 7.60773 352.75Z" fill="white" fill-opacity="0.5"/>
<path d="M10.048 367.207C10.4405 367.255 10.8126 367.383 11.151 367.58C11.4961 367.776 11.7871 368.033 12.0307 368.344C12.2675 368.662 12.4434 369.007 12.5449 369.393C12.6464 369.772 12.6735 370.165 12.6261 370.557C12.572 370.95 12.4502 371.315 12.254 371.66C12.051 372.005 11.8006 372.296 11.4826 372.54C11.1713 372.783 10.8194 372.952 10.4405 373.054C10.0615 373.162 9.66907 373.189 9.2766 373.135C8.88413 373.081 8.51873 372.959 8.17362 372.763C7.83529 372.567 7.53755 372.31 7.30071 371.992C7.05711 371.68 6.88794 371.328 6.77967 370.95C6.67817 370.564 6.65111 370.178 6.70524 369.786C6.75261 369.393 6.88118 369.021 7.07741 368.676C7.27365 368.338 7.53078 368.04 7.84205 367.803C8.16009 367.559 8.50519 367.383 8.88413 367.282C9.26983 367.18 9.65554 367.153 10.048 367.207Z" fill="white" fill-opacity="0.5"/>
<path d="M10.9973 382.53C11.3221 382.699 11.5996 382.929 11.8296 383.207C12.0597 383.491 12.2289 383.802 12.3371 384.154C12.4454 384.499 12.4792 384.858 12.4454 385.217C12.4116 385.582 12.3101 385.927 12.1409 386.245C11.965 386.57 11.7417 386.847 11.4575 387.077C11.18 387.314 10.8688 387.483 10.5169 387.585C10.1718 387.693 9.81315 387.734 9.45451 387.693C9.08911 387.659 8.75077 387.558 8.42597 387.389C8.10793 387.219 7.83049 386.989 7.59366 386.712C7.36359 386.428 7.19442 386.117 7.08615 385.765C6.98465 385.42 6.94405 385.061 6.97789 384.696C7.01172 384.337 7.11999 383.992 7.28915 383.667C7.45832 383.349 7.68163 383.071 7.96583 382.835C8.24326 382.605 8.5613 382.435 8.9064 382.327C9.25827 382.219 9.61014 382.185 9.97555 382.219C10.3342 382.253 10.6793 382.361 10.9973 382.53Z" fill="white" fill-opacity="0.5"/>
<path d="M8.29447 397.801C7.17796 398.654 6.98172 400.223 7.83433 401.333C8.68694 402.45 10.2501 402.646 11.3666 401.793C12.4763 400.941 12.6725 399.371 11.8199 398.254C10.9741 397.165 9.38391 396.948 8.29447 397.801Z" fill="white" fill-opacity="0.5"/>
<path d="M25.2995 367.423C25.6446 367.613 25.9423 367.863 26.1927 368.168C26.4431 368.479 26.6258 368.817 26.7408 369.203C26.8559 369.582 26.8897 369.968 26.8491 370.36C26.8085 370.753 26.6935 371.125 26.5108 371.477C26.3213 371.829 26.0709 372.126 25.7664 372.377C25.4619 372.627 25.1168 372.81 24.7379 372.925C24.3589 373.033 23.9732 373.074 23.5808 373.033C23.1815 372.992 22.8161 372.877 22.4642 372.688C22.1191 372.498 21.8146 372.255 21.5643 371.944C21.3207 371.639 21.138 371.294 21.0229 370.915C20.9079 370.536 20.8741 370.15 20.9147 369.751C20.9553 369.359 21.0635 368.987 21.253 368.641C21.4425 368.29 21.6861 367.992 21.9973 367.741C22.3018 367.491 22.647 367.308 23.0259 367.193C23.4048 367.078 23.7905 367.044 24.183 367.085C24.5755 367.126 24.9476 367.241 25.2995 367.423Z" fill="white" fill-opacity="0.5"/>
<path d="M22.3024 382.723C21.1047 383.636 20.8881 385.382 21.8016 386.587C22.7151 387.784 24.461 388.008 25.6587 387.087C26.8564 386.174 27.0729 384.428 26.1594 383.223C25.2256 382.026 23.5001 381.802 22.3024 382.723Z" fill="white" fill-opacity="0.5"/>
<path d="M22.5377 397.755C21.428 398.601 21.2318 400.178 22.0776 401.287C22.9302 402.404 24.5001 402.6 25.6098 401.747C26.7196 400.895 26.9158 399.325 26.07 398.208C25.2174 397.099 23.6475 396.903 22.5377 397.755Z" fill="white" fill-opacity="0.5"/>
<path d="M22.7526 412.772C21.7512 413.536 21.5752 414.978 22.3399 415.979C23.0977 416.981 24.5391 417.157 25.5405 416.392C26.542 415.634 26.7179 414.193 25.9533 413.184C25.1954 412.183 23.7541 412.007 22.7526 412.772Z" fill="white" fill-opacity="0.5"/>
<path d="M36.5513 382.68C35.3468 383.593 35.1303 385.339 36.0438 386.543C36.9641 387.741 38.7031 387.958 39.9009 387.044C41.0986 386.124 41.3219 384.378 40.4016 383.18C39.4881 381.983 37.749 381.739 36.5513 382.68Z" fill="white" fill-opacity="0.5"/>
<path d="M36.7666 397.69C35.6568 398.543 35.4606 400.113 36.3132 401.229C37.159 402.339 38.7289 402.535 39.8387 401.683C40.9552 400.837 41.1514 399.26 40.2988 398.151C39.4462 397.061 37.8831 396.838 36.7666 397.69Z" fill="white" fill-opacity="0.5"/>
<path d="M37.0134 412.71C36.0052 413.474 35.836 414.916 36.5939 415.917C37.3585 416.919 38.7998 417.095 39.8013 416.33C40.8028 415.565 40.9787 414.124 40.2141 413.123C39.4291 412.121 38.0149 411.925 37.0134 412.71Z" fill="white" fill-opacity="0.5"/>
<path d="M37.2335 427.721C36.3402 428.418 36.1643 429.71 36.8613 430.603C37.5583 431.497 38.8439 431.673 39.7371 430.976C40.6304 430.279 40.8063 428.986 40.1093 428.093C39.4056 427.2 38.1267 427.024 37.2335 427.721Z" fill="white" fill-opacity="0.5"/>
</svg>
