<svg width="34" height="38" viewBox="0 0 34 38" fill="none" xmlns="http://www.w3.org/2000/svg">
<path d="M26.5418 15.0848C22.4676 14.6827 22.108 13.2731 21.8128 8.6445L21.4277 1.30864L20.881 8.66191C20.6027 13.5804 19.54 14.7224 16.0553 15.2275L11.6778 15.6939L15.9975 15.9963C19.7643 16.3219 20.6371 17.7242 20.8711 22.5094L21.1074 29.8489L21.5905 22.4335C21.9451 17.1635 22.9057 16.3835 26.5746 15.9353L30.8552 15.4541L26.5418 15.0848Z" fill="#ECECEC"/>
<path d="M8.66992 29.2757C6.63105 29.0745 6.4511 28.3691 6.3034 26.0529L6.11069 22.3818L5.83707 26.0616C5.69781 28.5229 5.16602 29.0944 3.42219 29.3472L1.23156 29.5806L3.39326 29.7319C5.27827 29.8949 5.71504 30.5966 5.83213 32.9913L5.95038 36.6641L6.19212 32.9532C6.36958 30.316 6.85028 29.9257 8.68632 29.7014L10.8284 29.4606L8.66992 29.2757Z" fill="#ECECEC"/>
</svg>
