<svg width="41" height="432" viewBox="0 0 41 432" fill="none" xmlns="http://www.w3.org/2000/svg">
<path d="M4.42113 49.5654C5.61884 48.6518 5.84214 46.906 4.92187 45.7016C4.00836 44.5038 2.26931 44.2873 1.06483 45.2008C-0.132879 46.1211 -0.349415 47.8669 0.564094 49.0646C1.50467 50.2691 3.22342 50.4856 4.42113 49.5654Z" fill="white" fill-opacity="0.5"/>
<path d="M4.38254 64.2116C5.49228 63.359 5.68852 61.7891 4.83591 60.6794C3.99007 59.5628 2.42019 59.3666 1.31044 60.2192C0.193933 61.0718 -0.00230128 62.6417 0.850306 63.7515C1.70291 64.8477 3.26603 65.0439 4.38254 64.2116Z" fill="white" fill-opacity="0.5"/>
<path d="M4.32158 78.859C5.32306 78.0944 5.49223 76.6531 4.73435 75.6516C3.96971 74.6433 2.53517 74.4674 1.53369 75.2321C0.525446 75.9967 0.356278 77.438 1.11415 78.4395C1.87879 79.4477 3.32011 79.6237 4.32158 78.859Z" fill="white" fill-opacity="0.5"/>
<path d="M4.26983 93.521C5.16304 92.8173 5.33221 91.5316 4.63524 90.6384C3.93826 89.7452 2.65259 89.5693 1.75938 90.2662C0.866168 90.9632 0.697 92.2489 1.39397 93.1489C2.09095 94.0421 3.37663 94.1977 4.26983 93.521Z" fill="white" fill-opacity="0.5"/>
<path d="M18.7342 34.8396C20.0402 33.8381 20.277 31.9638 19.2755 30.651C18.274 29.345 16.3997 29.1014 15.0937 30.1097C13.7877 31.1112 13.5509 32.9855 14.5523 34.2983C15.5538 35.6043 17.4282 35.8479 18.7342 34.8396Z" fill="white" fill-opacity="0.5"/>
<path d="M18.6848 49.5013C19.8825 48.5878 20.099 46.8419 19.1855 45.6375C18.272 44.4398 16.5262 44.2232 15.3285 45.1367C14.1308 46.057 13.9142 47.8028 14.8277 49.0005C15.7615 50.1982 17.4871 50.4215 18.6848 49.5013Z" fill="white" fill-opacity="0.5"/>
<path d="M18.0605 59.8255C18.365 59.954 18.6357 60.13 18.8726 60.3668C19.1094 60.6036 19.2921 60.8743 19.4207 61.1788C19.5492 61.4901 19.6101 61.8081 19.6101 62.1397C19.6101 62.4712 19.5492 62.7961 19.4207 63.1006C19.2989 63.4118 19.1162 63.6825 18.8793 63.9193C18.6492 64.1494 18.3786 64.3321 18.0673 64.4607C17.7628 64.5892 17.4448 64.6569 17.1132 64.6569C16.7816 64.6569 16.4568 64.596 16.1523 64.4674C15.8478 64.3389 15.5704 64.1562 15.3403 63.9261C15.1035 63.6893 14.9208 63.4186 14.7922 63.1141C14.6636 62.8028 14.6027 62.4848 14.6027 62.1532C14.596 61.8216 14.6636 61.4968 14.7854 61.1923C14.914 60.8811 15.0967 60.6104 15.3268 60.3736C15.5636 60.1367 15.8343 59.954 16.1388 59.8255C16.4501 59.7037 16.7681 59.636 17.0997 59.636C17.4312 59.636 17.7493 59.6969 18.0605 59.8255Z" fill="white" fill-opacity="0.5"/>
<path d="M18.5669 78.8125C19.5683 78.0479 19.7443 76.6066 18.9796 75.5983C18.2218 74.5968 16.7805 74.4209 15.779 75.1855C14.7775 75.9502 14.6016 77.3915 15.3662 78.393C16.1511 79.4012 17.5857 79.5704 18.5669 78.8125Z" fill="white" fill-opacity="0.5"/>
<path d="M33.6193 15.6231C32.5299 14.2224 30.5269 13.9382 29.1127 15.0344C27.7187 16.1239 27.4345 18.1336 28.524 19.5479C29.6134 20.9486 31.6164 21.2328 33.0306 20.1366C34.4246 19.0471 34.6885 17.0374 33.6193 15.6231Z" fill="white" fill-opacity="0.5"/>
<path d="M32.9797 34.7951C34.2857 33.7936 34.5293 31.9124 33.5278 30.6064C32.5264 29.2937 30.652 29.0569 29.346 30.0583C28.0333 31.0666 27.7964 32.941 28.7979 34.2537C29.7994 35.5597 31.6738 35.8033 32.9797 34.7951Z" fill="white" fill-opacity="0.5"/>
<path d="M32.9173 49.4425C34.115 48.5222 34.3383 46.7764 33.4181 45.5787C32.5046 44.381 30.7655 44.1577 29.561 45.078C28.3633 45.9915 28.1468 47.7373 29.0603 48.9418C30.0009 50.1395 31.7196 50.3831 32.9173 49.4425Z" fill="white" fill-opacity="0.5"/>
<path d="M32.8787 64.0896C33.9885 63.237 34.1847 61.6672 33.3321 60.5506C32.4863 59.4409 30.9164 59.2447 29.8066 60.0905C28.6901 60.9431 28.4939 62.513 29.3465 63.6295C30.1991 64.7189 31.7622 64.9355 32.8787 64.0896Z" fill="white" fill-opacity="0.5"/>
<path d="M4.12457 129.285C4.47644 129.4 4.78094 129.576 5.05838 129.812C5.33582 130.049 5.55912 130.333 5.72152 130.658C5.88392 130.983 5.97866 131.328 6.00572 131.694C6.03279 132.059 5.99219 132.411 5.87715 132.756C5.76212 133.101 5.58619 133.412 5.34935 133.69C5.11251 133.967 4.83508 134.19 4.51028 134.353C4.18547 134.515 3.84037 134.617 3.47497 134.644C3.11633 134.671 2.75769 134.624 2.41259 134.509C2.06749 134.4 1.75621 134.224 1.47878 133.987C1.20134 133.744 0.984808 133.466 0.822406 133.142C0.653237 132.817 0.558504 132.472 0.531437 132.106C0.50437 131.741 0.551737 131.389 0.660005 131.037C0.775039 130.692 0.950974 130.381 1.18781 130.103C1.42465 129.833 1.70885 129.609 2.03365 129.447C2.35845 129.278 2.70356 129.183 3.06219 129.156C3.4276 129.129 3.77947 129.17 4.12457 129.285Z" fill="white" fill-opacity="0.5"/>
<path d="M4.87867 148.714C5.98842 147.868 6.18465 146.292 5.33205 145.182C4.4862 144.066 2.91632 143.869 1.80658 144.722C0.696834 145.575 0.500599 147.144 1.34644 148.261C2.19905 149.371 3.76893 149.567 4.87867 148.714Z" fill="white" fill-opacity="0.5"/>
<path d="M4.82769 163.376C5.82917 162.611 6.0051 161.17 5.24046 160.168C4.47582 159.167 3.04127 158.991 2.0398 159.755C1.03832 160.52 0.862385 161.955 1.62703 162.963C2.3849 163.944 3.82621 164.14 4.82769 163.376Z" fill="white" fill-opacity="0.5"/>
<path d="M4.76283 178.024C5.65604 177.32 5.83197 176.035 5.135 175.141C4.43803 174.248 3.15235 174.072 2.25914 174.769C1.36593 175.466 1.18999 176.759 1.88697 177.652C2.58394 178.545 3.86962 178.721 4.76283 178.024Z" fill="white" fill-opacity="0.5"/>
<path d="M19.2271 119.384C20.533 118.376 20.7699 116.501 19.7684 115.188C18.7669 113.883 16.8925 113.639 15.5866 114.647C14.2806 115.649 14.0437 117.53 15.0452 118.836C16.067 120.121 17.9414 120.385 19.2271 119.384Z" fill="white" fill-opacity="0.5"/>
<path d="M19.1784 134.007C20.3761 133.093 20.5926 131.347 19.6791 130.143C18.7656 128.945 17.0198 128.729 15.8221 129.642C14.6244 130.562 14.4078 132.308 15.3213 133.506C16.2416 134.71 17.9807 134.947 19.1784 134.007Z" fill="white" fill-opacity="0.5"/>
<path d="M19.1227 148.67C20.2324 147.818 20.4286 146.248 19.5828 145.138C18.7302 144.022 17.1603 143.825 16.0506 144.678C14.9408 145.531 14.7446 147.101 15.5972 148.21C16.443 149.307 18.0129 149.523 19.1227 148.67Z" fill="white" fill-opacity="0.5"/>
<path d="M19.0617 163.318C20.0632 162.553 20.2391 161.112 19.4745 160.11C18.7166 159.102 17.2753 158.926 16.2738 159.691C15.2723 160.455 15.0964 161.897 15.861 162.898C16.646 163.906 18.0602 164.103 19.0617 163.318Z" fill="white" fill-opacity="0.5"/>
<path d="M34.38 100.545C34.583 100.917 34.7116 101.317 34.7589 101.736C34.8063 102.163 34.7725 102.575 34.6507 102.988C34.5356 103.394 34.3461 103.766 34.0822 104.098C33.8183 104.429 33.5003 104.7 33.1281 104.91C32.756 105.113 32.3567 105.241 31.9372 105.289C31.5177 105.336 31.0981 105.302 30.6921 105.187C30.2861 105.065 29.9139 104.876 29.5824 104.612C29.2508 104.348 28.9801 104.03 28.7771 103.658C28.5674 103.286 28.4388 102.887 28.3914 102.46C28.3441 102.041 28.3779 101.628 28.4997 101.215C28.6147 100.809 28.8042 100.437 29.0681 100.105C29.332 99.7671 29.65 99.5032 30.0222 99.2935C30.3944 99.0905 30.7936 98.9619 31.2132 98.9145C31.6327 98.8672 32.0522 98.901 32.4582 99.016C32.8642 99.1311 33.2364 99.3273 33.568 99.5912C33.8995 99.8551 34.1702 100.173 34.38 100.545Z" fill="white" fill-opacity="0.5"/>
<path d="M33.4694 119.3C34.7821 118.299 35.0189 116.424 34.0175 115.112C33.016 113.806 31.1416 113.562 29.8356 114.564C28.5297 115.572 28.286 117.446 29.2875 118.759C30.289 120.065 32.1634 120.309 33.4694 119.3Z" fill="white" fill-opacity="0.5"/>
<path d="M33.4271 133.961C34.6248 133.047 34.8413 131.302 33.9278 130.097C33.0075 128.899 31.2685 128.683 30.0708 129.596C28.8731 130.517 28.6498 132.262 29.57 133.46C30.5038 134.658 32.2226 134.881 33.4271 133.961Z" fill="white" fill-opacity="0.5"/>
<path d="M33.3613 148.611C34.471 147.758 34.6672 146.189 33.8146 145.072C32.9688 143.962 31.3989 143.766 30.2892 144.612C29.1726 145.464 28.9764 147.034 29.829 148.151C30.6816 149.267 32.2718 149.464 33.3613 148.611Z" fill="white" fill-opacity="0.5"/>
<path d="M5.42473 218.595C6.62244 217.674 6.83898 215.929 5.92547 214.731C5.01196 213.533 3.26614 213.31 2.06843 214.23C0.870721 215.144 0.654186 216.889 1.5677 218.094C2.50151 219.292 4.22702 219.508 5.42473 218.595Z" fill="white" fill-opacity="0.5"/>
<path d="M5.37277 233.257C6.48251 232.405 6.67875 230.835 5.82614 229.718C4.9803 228.608 3.41042 228.412 2.30067 229.258C1.19093 230.111 0.994694 231.68 1.84053 232.797C2.69314 233.886 4.28333 234.103 5.37277 233.257Z" fill="white" fill-opacity="0.5"/>
<path d="M5.32275 247.881C6.32422 247.116 6.50016 245.675 5.73552 244.673C4.97764 243.672 3.53633 243.496 2.53485 244.261C1.53337 245.025 1.35744 246.467 2.12208 247.468C2.88672 248.47 4.32127 248.666 5.32275 247.881Z" fill="white" fill-opacity="0.5"/>
<path d="M5.26847 262.545C6.16168 261.848 6.33762 260.562 5.64065 259.662C4.94367 258.769 3.65799 258.593 2.76478 259.29C1.87158 259.994 1.69564 261.279 2.39261 262.173C3.08959 263.066 4.37527 263.242 5.26847 262.545Z" fill="white" fill-opacity="0.5"/>
<path d="M19.7195 203.887C21.0254 202.885 21.269 201.004 20.2676 199.698C19.2661 198.386 17.3917 198.149 16.079 199.15C14.773 200.152 14.5361 202.033 15.5376 203.339C16.5594 204.652 18.4135 204.888 19.7195 203.887Z" fill="white" fill-opacity="0.5"/>
<path d="M19.6813 218.532C20.8791 217.612 21.1024 215.866 20.1821 214.668C19.2686 213.464 17.5295 213.247 16.3318 214.167C15.1341 215.081 14.9108 216.827 15.8311 218.031C16.7446 219.229 18.4633 219.445 19.6813 218.532Z" fill="white" fill-opacity="0.5"/>
<path d="M19.6143 233.175C20.7308 232.322 20.9271 230.752 20.0745 229.643C19.2286 228.526 17.6587 228.33 16.549 229.183C15.4325 230.035 15.2363 231.605 16.0889 232.722C16.9347 233.831 18.5046 234.028 19.6143 233.175Z" fill="white" fill-opacity="0.5"/>
<path d="M19.5729 247.835C20.5744 247.071 20.7436 245.629 19.9857 244.628C19.221 243.627 17.7865 243.451 16.7783 244.215C15.7768 244.98 15.6076 246.414 16.3655 247.423C17.1301 248.424 18.5647 248.6 19.5729 247.835Z" fill="white" fill-opacity="0.5"/>
<path d="M33.9149 184C34.26 184.251 34.551 184.555 34.7743 184.914C34.9976 185.279 35.1465 185.665 35.2141 186.084C35.2818 186.504 35.275 186.923 35.1735 187.336C35.0788 187.749 34.9096 188.135 34.6592 188.48C34.4156 188.825 34.1111 189.109 33.7525 189.332C33.3939 189.562 33.0014 189.711 32.5819 189.779C32.1623 189.847 31.7496 189.833 31.3368 189.738C30.9172 189.644 30.5383 189.475 30.1932 189.224C29.8481 188.974 29.5639 188.669 29.3406 188.311C29.1173 187.952 28.9684 187.56 28.894 187.14C28.8263 186.72 28.8399 186.301 28.9346 185.888C29.0293 185.475 29.2053 185.096 29.4489 184.751C29.6992 184.399 30.0037 184.115 30.3624 183.892C30.721 183.669 31.1135 183.52 31.533 183.445C31.9458 183.378 32.3653 183.391 32.7781 183.486C33.1909 183.581 33.5698 183.757 33.9149 184Z" fill="white" fill-opacity="0.5"/>
<path d="M33.9841 203.826C35.29 202.817 35.5269 200.943 34.5254 199.63C33.5239 198.324 31.6495 198.081 30.3436 199.089C29.0376 200.09 28.794 201.971 29.8022 203.277C30.8037 204.59 32.6781 204.827 33.9841 203.826Z" fill="white" fill-opacity="0.5"/>
<path d="M33.9207 218.465C35.1184 217.551 35.3349 215.805 34.4214 214.601C33.5079 213.403 31.7621 213.187 30.5644 214.1C29.3667 215.021 29.1501 216.766 30.0636 217.964C30.9974 219.169 32.723 219.405 33.9207 218.465Z" fill="white" fill-opacity="0.5"/>
<path d="M33.8644 233.129C34.9741 232.277 35.1704 230.707 34.3245 229.597C33.4719 228.481 31.902 228.284 30.7923 229.137C29.6825 229.99 29.4863 231.559 30.3321 232.669C31.1848 233.765 32.7749 233.982 33.8644 233.129Z" fill="white" fill-opacity="0.5"/>
<path d="M5.93279 303.113C7.1305 302.2 7.34704 300.454 6.43353 299.249C5.52002 298.052 3.7742 297.835 2.57649 298.749C1.37878 299.669 1.16224 301.415 2.07575 302.612C3.01633 303.81 4.73508 304.033 5.93279 303.113Z" fill="white" fill-opacity="0.5"/>
<path d="M5.86696 317.761C6.9767 316.909 7.17294 315.339 6.3271 314.222C5.47449 313.112 3.90461 312.916 2.79486 313.769C1.68512 314.615 1.48888 316.191 2.34149 317.301C3.18733 318.418 4.77751 318.614 5.86696 317.761Z" fill="white" fill-opacity="0.5"/>
<path d="M5.82647 332.407C6.83471 331.643 7.00388 330.201 6.24601 329.193C5.48137 328.192 4.04005 328.016 3.03858 328.78C2.0371 329.545 1.86116 330.986 2.62581 331.988C3.39045 332.996 4.82499 333.165 5.82647 332.407Z" fill="white" fill-opacity="0.5"/>
<path d="M3.25551 343.803C2.3623 344.5 2.18636 345.786 2.88334 346.679C3.58708 347.579 4.86599 347.748 5.7592 347.051C6.65241 346.354 6.82834 345.069 6.13137 344.169C5.43439 343.276 4.14872 343.1 3.25551 343.803Z" fill="white" fill-opacity="0.5"/>
<path d="M20.2238 288.406C21.5365 287.405 21.7734 285.53 20.7719 284.217C19.7704 282.905 17.896 282.668 16.5901 283.669C15.2841 284.678 15.0405 286.552 16.0419 287.865C17.0434 289.15 18.9178 289.414 20.2238 288.406Z" fill="white" fill-opacity="0.5"/>
<path d="M20.1641 303.052C21.3686 302.131 21.5851 300.385 20.6716 299.188C19.7513 297.99 18.0123 297.767 16.8146 298.687C15.6169 299.6 15.3936 301.346 16.3138 302.551C17.2476 303.748 18.9664 303.992 20.1641 303.052Z" fill="white" fill-opacity="0.5"/>
<path d="M20.1262 317.699C21.2359 316.847 21.4321 315.277 20.5795 314.16C19.7337 313.051 18.1638 312.854 17.0541 313.7C15.9443 314.553 15.7481 316.123 16.5939 317.239C17.4465 318.329 19.0164 318.545 20.1262 317.699Z" fill="white" fill-opacity="0.5"/>
<path d="M20.0646 332.339C21.066 331.574 21.242 330.133 20.4773 329.131C19.7127 328.13 18.2781 327.954 17.2767 328.718C16.2752 329.483 16.0992 330.924 16.8639 331.926C17.6218 332.927 19.0631 333.124 20.0646 332.339Z" fill="white" fill-opacity="0.5"/>
<path d="M34.9097 268.956C35.2007 269.268 35.4172 269.626 35.5661 270.025C35.7149 270.425 35.7758 270.838 35.7623 271.264C35.7488 271.683 35.6473 272.089 35.4713 272.475C35.2954 272.868 35.0518 273.206 34.7405 273.49C34.4293 273.781 34.0774 273.998 33.6782 274.146C33.2789 274.295 32.8661 274.363 32.4398 274.349C32.0203 274.329 31.6143 274.234 31.2286 274.058C30.8429 273.876 30.5046 273.632 30.2136 273.321C29.9226 273.01 29.7061 272.658 29.5572 272.259C29.4151 271.859 29.3474 271.447 29.361 271.02C29.3813 270.594 29.476 270.188 29.6519 269.802C29.8279 269.416 30.0715 269.078 30.3828 268.787C30.694 268.496 31.0527 268.28 31.4519 268.131C31.8444 267.982 32.2571 267.921 32.6834 267.935C33.1097 267.948 33.509 268.05 33.9015 268.226C34.2872 268.401 34.6187 268.645 34.9097 268.956Z" fill="white" fill-opacity="0.5"/>
<path d="M34.4632 288.347C35.7692 287.339 36.006 285.464 35.0045 284.158C34.0031 282.846 32.1287 282.609 30.8227 283.61C29.5167 284.612 29.2799 286.493 30.2814 287.799C31.3031 289.112 33.1775 289.349 34.4632 288.347Z" fill="white" fill-opacity="0.5"/>
<path d="M34.7943 298.971C35.0379 299.242 35.2206 299.553 35.3357 299.898C35.4575 300.243 35.5048 300.595 35.4845 300.96C35.4642 301.326 35.3695 301.671 35.2139 301.996C35.0515 302.327 34.8349 302.611 34.5643 302.855C34.2936 303.099 33.9823 303.274 33.644 303.396C33.2989 303.518 32.947 303.565 32.5816 303.545C32.2162 303.518 31.8711 303.43 31.5463 303.274C31.2147 303.112 30.9305 302.896 30.6937 302.625C30.4501 302.354 30.2674 302.043 30.1523 301.698C30.0305 301.353 29.9832 301.001 30.0035 300.635C30.0238 300.27 30.1117 299.925 30.2741 299.593C30.4298 299.269 30.6463 298.984 30.917 298.741C31.1944 298.497 31.4989 298.321 31.844 298.199C32.1891 298.078 32.541 298.03 32.9064 298.051C33.2718 298.071 33.6169 298.166 33.9417 298.321C34.2665 298.484 34.5507 298.7 34.7943 298.971Z" fill="white" fill-opacity="0.5"/>
<path d="M34.3559 317.635C35.4657 316.782 35.6619 315.212 34.8161 314.103C33.9635 312.986 32.3936 312.79 31.2838 313.643C30.1741 314.495 29.9778 316.065 30.8305 317.175C31.6763 318.291 33.2665 318.488 34.3559 317.635Z" fill="white" fill-opacity="0.5"/>
<path d="M3.06624 383.255C1.86852 384.175 1.65199 385.921 2.5655 387.119C3.48577 388.323 5.22482 388.54 6.42253 387.619C7.62025 386.706 7.84355 384.96 6.92327 383.756C5.98946 382.558 4.27072 382.341 3.06624 383.255Z" fill="white" fill-opacity="0.5"/>
<path d="M3.30028 398.287C2.19054 399.139 1.9943 400.709 2.84691 401.819C3.69275 402.935 5.26263 403.132 6.37238 402.279C7.48889 401.426 7.68512 399.856 6.83251 398.747C5.9799 397.63 4.41679 397.434 3.30028 398.287Z" fill="white" fill-opacity="0.5"/>
<path d="M3.53534 413.284C2.52709 414.049 2.35793 415.49 3.1158 416.491C3.88044 417.5 5.32175 417.676 6.32323 416.911C7.32471 416.146 7.50064 414.705 6.736 413.704C5.95106 412.695 4.50975 412.519 3.53534 413.284Z" fill="white" fill-opacity="0.5"/>
<path d="M3.76391 428.319C2.8707 429.016 2.70153 430.301 3.39851 431.201C4.09548 432.095 5.38116 432.27 6.27437 431.567C7.16757 430.87 7.33674 429.584 6.63977 428.691C5.9428 427.791 4.65712 427.622 3.76391 428.319Z" fill="white" fill-opacity="0.5"/>
<path d="M19.3035 367.591C19.696 367.639 20.0614 367.767 20.4065 367.964C20.7516 368.16 21.0425 368.417 21.2794 368.728C21.523 369.046 21.6989 369.391 21.8004 369.777C21.9019 370.163 21.929 370.548 21.8749 370.941C21.8275 371.333 21.6989 371.706 21.5027 372.044C21.3064 372.389 21.0493 372.68 20.738 372.924C20.4268 373.167 20.0749 373.336 19.696 373.445C19.3103 373.546 18.9246 373.573 18.5321 373.519C18.1396 373.472 17.7742 373.343 17.4291 373.147C17.084 372.951 16.793 372.694 16.5494 372.382C16.3126 372.064 16.1367 371.719 16.0352 371.333C15.9337 370.948 15.9066 370.562 15.9607 370.17C16.0081 369.777 16.1299 369.405 16.3329 369.067C16.5291 368.721 16.7863 368.43 17.0975 368.187C17.4088 367.943 17.7607 367.774 18.1396 367.666C18.5253 367.564 18.911 367.537 19.3035 367.591Z" fill="white" fill-opacity="0.5"/>
<path d="M20.2805 382.943C20.6053 383.112 20.8828 383.342 21.1128 383.62C21.3429 383.904 21.5121 384.215 21.6203 384.567C21.7286 384.912 21.7624 385.271 21.7286 385.636C21.6948 385.995 21.5933 386.34 21.4241 386.658C21.2482 386.983 21.0249 387.26 20.7407 387.49C20.4632 387.727 20.152 387.896 19.8001 388.005C19.455 388.106 19.0963 388.147 18.7377 388.113C18.3723 388.072 18.034 387.971 17.7092 387.802C17.3911 387.632 17.1137 387.402 16.8769 387.125C16.6468 386.841 16.4776 386.529 16.3694 386.178C16.2679 385.832 16.2273 385.474 16.2611 385.108C16.2949 384.75 16.4032 384.405 16.5724 384.08C16.7415 383.762 16.9648 383.484 17.249 383.254C17.5265 383.018 17.8445 382.848 18.1896 382.74C18.5415 382.639 18.8933 382.598 19.2587 382.632C19.6174 382.672 19.9625 382.774 20.2805 382.943Z" fill="white" fill-opacity="0.5"/>
<path d="M17.5542 398.202C16.4444 399.055 16.2482 400.631 17.094 401.741C17.9466 402.857 19.5165 403.054 20.6263 402.201C21.736 401.348 21.9322 399.779 21.0864 398.662C20.2338 397.573 18.6436 397.376 17.5542 398.202Z" fill="white" fill-opacity="0.5"/>
<path d="M17.7809 413.239C16.7794 414.004 16.6035 415.445 17.3681 416.447C18.126 417.455 19.5673 417.624 20.5688 416.866C21.5702 416.101 21.7462 414.66 20.9815 413.652C20.2237 412.65 18.7823 412.474 17.7809 413.239Z" fill="white" fill-opacity="0.5"/>
<path d="M36.0072 354.393C36.1764 354.785 36.2576 355.191 36.2644 355.618C36.2644 356.044 36.1899 356.45 36.0343 356.849C35.8719 357.242 35.6486 357.594 35.3508 357.898C35.0531 358.196 34.708 358.433 34.3155 358.602C33.9298 358.771 33.5171 358.852 33.0975 358.859C32.6712 358.866 32.2585 358.784 31.866 358.629C31.4735 358.466 31.1216 358.243 30.8171 357.945C30.5194 357.648 30.2826 357.303 30.1134 356.91C29.951 356.518 29.863 356.112 29.8563 355.685C29.8563 355.259 29.9307 354.846 30.0863 354.454C30.2487 354.061 30.472 353.709 30.7698 353.405C31.0675 353.1 31.4126 352.864 31.8051 352.701C32.1976 352.532 32.6036 352.444 33.0299 352.444C33.4494 352.437 33.8622 352.512 34.2546 352.674C34.6471 352.83 34.999 353.06 35.3035 353.358C35.608 353.655 35.8381 354 36.0072 354.393Z" fill="white" fill-opacity="0.5"/>
<path d="M34.5813 367.837C34.9264 368.026 35.2241 368.277 35.4745 368.581C35.7248 368.886 35.9075 369.231 36.0226 369.61C36.1376 369.996 36.1714 370.381 36.1308 370.774C36.0902 371.166 35.9752 371.538 35.7925 371.89C35.603 372.235 35.3527 372.54 35.0482 372.79C34.7437 373.041 34.3986 373.223 34.0196 373.332C33.6407 373.447 33.255 373.487 32.8625 373.447C32.4633 373.406 32.0979 373.291 31.746 373.102C31.4009 372.912 31.0964 372.668 30.846 372.357C30.6024 372.053 30.4197 371.708 30.3047 371.329C30.1897 370.95 30.1558 370.564 30.1964 370.165C30.237 369.772 30.3453 369.4 30.5348 369.048C30.7242 368.703 30.9678 368.405 31.2791 368.155C31.5836 367.905 31.9287 367.722 32.3076 367.607C32.6866 367.492 33.0723 367.458 33.4648 367.499C33.8572 367.539 34.2294 367.648 34.5813 367.837Z" fill="white" fill-opacity="0.5"/>
<path d="M31.5752 383.149C30.3707 384.063 30.1542 385.808 31.0677 387.013C31.988 388.211 33.727 388.427 34.9248 387.514C36.1225 386.6 36.3458 384.847 35.4255 383.65C34.4917 382.425 32.7729 382.208 31.5752 383.149Z" fill="white" fill-opacity="0.5"/>
<path d="M31.7948 398.158C30.685 399.01 30.4888 400.58 31.3414 401.697C32.1873 402.807 33.7571 403.003 34.8669 402.157C35.9834 401.304 36.1796 399.735 35.327 398.618C34.4744 397.529 32.9113 397.312 31.7948 398.158Z" fill="white" fill-opacity="0.5"/>
</svg>
