<svg width="107" height="144" viewBox="0 0 107 144" fill="none" xmlns="http://www.w3.org/2000/svg">
<path d="M26.5418 15.0846C22.4676 14.6826 22.108 13.273 21.8128 8.64438L21.4277 1.30852L20.881 8.66179C20.6027 13.5802 19.54 14.7223 16.0553 15.2274L11.6778 15.6938L15.9975 15.9962C19.7643 16.3218 20.6371 17.7241 20.8711 22.5093L21.1074 29.8488L21.5905 22.4333C21.9451 17.1634 22.9057 16.3833 26.5746 15.9352L30.8552 15.4539L26.5418 15.0846Z" fill="#ECECEC"/>
<path d="M8.66992 29.2756C6.63105 29.0744 6.4511 28.369 6.3034 26.0527L6.11069 22.3817L5.83707 26.0615C5.69781 28.5228 5.16602 29.0943 3.42219 29.3471L1.23156 29.5804L3.39326 29.7318C5.27827 29.8947 5.71504 30.5965 5.83213 32.9911L5.95038 36.664L6.19212 32.9531C6.36958 30.3159 6.85028 29.9255 8.68632 29.7013L10.8284 29.4604L8.66992 29.2756Z" fill="#ECECEC"/>
<path d="M0.0088744 73.7567C-0.120427 76.0674 1.17258 78.2207 3.27513 79.1877L51 92.5L64.8112 140.722C65.7332 142.724 67.7345 144 69.9214 144L70.2418 143.989C71.3701 143.926 72.4532 143.524 73.3497 142.836C74.2462 142.148 74.9146 141.206 75.2677 140.132L106.722 44.3753C107.379 42.3625 106.851 40.1418 105.355 38.6407C103.86 37.1396 101.645 36.6279 99.6213 37.2745L3.86542 68.7361C2.79155 69.0868 1.84872 69.7539 1.16052 70.6498C0.472331 71.5457 0.070905 72.6287 0.0088744 73.7567Z" fill="white"/>
</svg>
