<svg width="85" height="112" viewBox="0 0 85 112" fill="none" xmlns="http://www.w3.org/2000/svg">
<path d="M42.3908 112C65.8026 112 84.7816 93.021 84.7816 69.6092C84.7816 46.1974 65.8026 27.2184 42.3908 27.2184C18.979 27.2184 0 46.1974 0 69.6092C0 93.021 18.979 112 42.3908 112Z" fill="black"/>
<path opacity="0.86" d="M42.3908 112C65.8026 112 84.7816 93.021 84.7816 69.6092C84.7816 46.1974 65.8026 27.2184 42.3908 27.2184C18.979 27.2184 0 46.1974 0 69.6092C0 93.021 18.979 112 42.3908 112Z" fill="white"/>
<path opacity="0.1" d="M20.0744 70.2611L28.9109 82.8381L14.1364 85.2961L9.18799 78.6188L20.0744 70.2611Z" fill="black"/>
<path opacity="0.1" d="M76.9803 50.9203L71.0422 45.9762L64.4444 55.313L66.5083 57.7009L76.9803 50.9203Z" fill="black"/>
<path opacity="0.1" d="M16.2807 55.313L21.7411 51.2367L26.3466 58.7202L21.0325 61.5115L16.2807 55.313Z" fill="black"/>
<path opacity="0.1" d="M48.5067 100.52L54.7905 95.4065L58.6714 100.52L51.6734 105.303L48.5067 100.52Z" fill="black"/>
<path opacity="0.1" d="M23.3489 63.5722L29.0513 59.4059L33.5997 65.3866L31.1257 67.9137L34.8108 72.6675L38.2182 70.2611L42.1886 75.2833L34.8108 80.7265L23.3489 63.5722Z" fill="black"/>
<path d="M84.719 71.9245L63.4826 86.3027L73.2648 98.6562C72.974 98.9667 72.678 99.2721 72.3768 99.5723L62.4499 87.0362L45.2015 99.8941L52.841 110.702C52.4012 110.814 51.9586 110.919 51.5131 111.015L43.8133 100.12L33.0096 85.055L14.0958 88.8656L15.6091 102.468C15.1313 102.079 14.663 101.679 14.204 101.27L12.7975 88.6253L0.236056 74.094C0.160182 73.3886 0.103042 72.6781 0.0646362 71.9625L13.6405 87.6685L32.2003 83.9281L6.15103 47.6053C6.38709 47.2161 6.6297 46.8311 6.87887 46.4504L33.56 83.6541L33.7061 83.6246L53.1693 69.9293L39.3826 52.0314L41.3736 27.2316C41.7123 27.2232 42.0514 27.219 42.3909 27.219C42.4752 27.219 42.5595 27.219 42.6438 27.2204L40.6823 51.6464L54.2049 69.2001L80.3801 50.7822C80.5712 51.1644 80.7558 51.5503 80.9338 51.94L34.3314 84.7304L44.4676 98.8642L62.6789 85.2885L62.6958 85.3096L84.7738 70.3609C84.7654 70.8848 84.7471 71.4046 84.719 71.9245Z" fill="white"/>
<path d="M42.3897 1.80176C29.0467 1.80176 18.2731 12.5866 18.2731 25.8888C18.2731 30.0716 19.8609 34.783 21.2155 37.4359C25.6623 46.1498 42.1217 70.5152 42.1217 70.5152C42.1496 70.5618 42.189 70.6003 42.2361 70.6271C42.2833 70.6538 42.3366 70.6679 42.3908 70.6679C42.445 70.6679 42.4983 70.6538 42.5455 70.6271C42.5927 70.6003 42.6321 70.5618 42.6599 70.5152C42.6599 70.5152 59.1192 46.1498 63.566 37.4359C64.9201 34.7824 66.5084 30.0716 66.5084 25.8888C66.5084 12.5861 55.7346 1.80176 42.3918 1.80176H42.3897Z" fill="black"/>
<path opacity="0.12" d="M42.3897 1.80176C29.0467 1.80176 18.2731 12.5866 18.2731 25.8888C18.2731 30.0716 19.8609 34.783 21.2155 37.4359C25.6623 46.1498 42.1217 70.5152 42.1217 70.5152C42.1496 70.5618 42.189 70.6003 42.2361 70.6271C42.2833 70.6538 42.3366 70.6679 42.3908 70.6679C42.445 70.6679 42.4983 70.6538 42.5455 70.6271C42.5927 70.6003 42.6321 70.5618 42.6599 70.5152C42.6599 70.5152 59.1192 46.1498 63.566 37.4359C64.9201 34.7824 66.5084 30.0716 66.5084 25.8888C66.5084 12.5861 55.7346 1.80176 42.3918 1.80176H42.3897Z" fill="white"/>
<path d="M41.8715 5.57921C42.0446 5.57485 42.216 5.57921 42.3901 5.57921C45.0641 5.57923 47.7114 6.11073 50.1781 7.14282C52.6449 8.1749 54.8819 9.68699 56.7591 11.5912C58.6364 13.4954 60.1164 15.7537 61.1133 18.2349C62.1101 20.7161 62.6038 23.3707 62.5657 26.0444C62.4138 36.9116 53.5447 45.7816 42.6769 45.9322C37.3538 45.9944 32.2216 43.9509 28.3983 40.2467C24.5749 36.5424 22.37 31.4775 22.2637 26.1551C22.1575 20.8326 24.1586 15.6838 27.8311 11.8299C31.5036 7.97609 36.5501 5.72941 41.8715 5.57921Z" fill="white"/>
<path d="M48.5067 0.319824C48.5067 0.319824 54.3441 0.391202 52.3315 8.43586L51.7835 8.46256L50.6708 8.5168L48.5067 0.319824Z" fill="#0C0C0C"/>
<path d="M41.9888 16.8761C42.016 16.8736 42.1235 21.8913 47.956 21.6805C51.9938 21.5351 53.595 17.3193 53.6873 17.3228C53.2568 17.2137 52.5311 17.0512 52.3423 16.9409C51.7215 16.5755 50.9512 16.1907 50.7943 14.9517C50.7041 14.2375 51.0447 10.615 51.0111 9.89465L44.7776 11.0343C44.805 12.5539 45.273 16.0926 43.1305 16.6324C42.7741 16.7217 42.3915 16.8016 41.9888 16.8761Z" fill="#E98862"/>
<path opacity="0.52" d="M44.5272 15.2478C44.6361 14.9396 44.711 14.6204 44.7503 14.2959C44.8471 13.5557 44.8626 12.8071 44.7965 12.0635C46.0592 11.9427 47.2627 11.4702 48.2702 10.6996C48.3685 11.1279 48.9277 13.0039 48.7374 13.4002C48.3771 14.1492 46.7771 15.3352 44.5272 15.2478Z" fill="#0C0C0C"/>
<path d="M45.9422 14.3614C48.3857 14.187 51.3337 12.6987 51.4361 9.38808L51.5284 6.40073C51.6308 3.09007 49.9751 0.35241 46.8578 0.255881C43.7406 0.159492 41.3276 2.77098 41.2252 6.08206L41.1843 7.40452C41.1782 7.85882 41.203 8.31301 41.2586 8.76394C41.3969 9.95685 41.6117 11.7708 42.3968 13.0094C43.1388 14.1787 44.381 14.4724 45.9422 14.3614Z" fill="#E98862"/>
<path d="M51.2113 10.3906C52.1586 10.4199 52.9578 9.4302 52.9872 8.48289C53.0166 7.53559 52.2647 6.98943 51.3174 6.96021L50.8096 7.57985L50.3968 10.3654L51.2113 10.3906Z" fill="#E98862"/>
<path d="M41.3855 9.76364C41.5566 9.96658 41.7758 10.1235 42.023 10.2201C42.2703 10.3167 42.5378 10.3499 42.8011 10.3167C43.3643 10.2464 43.7382 10.477 44.2085 10.4305C44.6033 10.3916 44.6721 10.2093 45.3453 10.1694C47.9466 10.0149 49.8978 9.85146 50.025 6.58745L51.6801 5.11731C51.6801 5.11731 52.4199 14.162 47.5278 15.3643C44.5218 16.1031 41.7022 15.8328 41.3397 13.0094C41.0452 10.7153 41.3855 9.76364 41.3855 9.76364Z" fill="#0C0C0C"/>
<path d="M42.6178 7.87499C42.83 7.87499 43.0019 7.703 43.0019 7.49084C43.0019 7.27868 42.83 7.10669 42.6178 7.10669C42.4056 7.10669 42.2336 7.27868 42.2336 7.49084C42.2336 7.703 42.4056 7.87499 42.6178 7.87499Z" fill="#0C0C0C"/>
<path d="M46.0493 7.80333C46.2614 7.80333 46.4334 7.63134 46.4334 7.41918C46.4334 7.20702 46.2614 7.03503 46.0493 7.03503C45.8371 7.03503 45.6651 7.20702 45.6651 7.41918C45.6651 7.63134 45.8371 7.80333 46.0493 7.80333Z" fill="#0C0C0C"/>
<path d="M50.2962 8.85086C50.2962 8.85086 50.0616 4.15929 48.646 3.84399C47.7033 3.63407 45.3841 4.93462 43.2659 4.49033C42.3385 4.29615 41.4522 4.51014 41.355 4.94782C41.3162 5.12107 40.5822 3.58405 42.0735 1.71374C43.2605 0.224356 47.1202 -0.194218 48.8373 0.332407C53.5914 1.79074 51.5089 7.1701 51.5089 7.1701L51.2663 8.78173L50.2962 8.85086Z" fill="#0C0C0C"/>
<path d="M52.457 5.06785C53.8565 5.06785 54.9909 3.93338 54.9909 2.53393C54.9909 1.13448 53.8565 0 52.457 0C51.0576 0 49.9231 1.13448 49.9231 2.53393C49.9231 3.93338 51.0576 5.06785 52.457 5.06785Z" fill="#0C0C0C"/>
<path d="M44.2549 10.2799H44.2488C43.9436 10.2713 43.4324 10.2228 43.4386 9.99436C43.4442 9.8051 44.0199 7.77714 44.0849 7.54657C44.0873 7.53626 44.0917 7.52653 44.0979 7.51797C44.1041 7.50942 44.1119 7.50222 44.121 7.49681C44.1301 7.4914 44.1402 7.48789 44.1507 7.48651C44.1611 7.48513 44.1718 7.48589 44.182 7.48876C44.1921 7.49162 44.2016 7.49653 44.2098 7.50318C44.2181 7.50983 44.2248 7.51808 44.2298 7.52744C44.2347 7.53679 44.2376 7.54705 44.2385 7.55758C44.2393 7.56812 44.238 7.57872 44.2346 7.58872C43.9791 8.48671 43.5979 9.87016 43.5941 9.99872C43.6222 10.0535 43.9371 10.1155 44.2531 10.1245C44.2737 10.1242 44.2936 10.1322 44.3083 10.1466C44.3231 10.161 44.3315 10.1807 44.3317 10.2013C44.332 10.2219 44.324 10.2417 44.3096 10.2565C44.2952 10.2712 44.2756 10.2796 44.2549 10.2799Z" fill="#0C0C0C"/>
<path d="M43.325 6.18568C43.0096 6.09193 42.6746 6.08499 42.3555 6.16559C42.1986 6.20422 42.0484 6.26617 41.9098 6.34938C41.7727 6.43104 41.6463 6.52965 41.5338 6.6429C41.5242 6.65155 41.5163 6.66202 41.5107 6.67372C41.5051 6.68541 41.5018 6.69809 41.5011 6.71104C41.5004 6.72399 41.5023 6.73695 41.5066 6.74919C41.5109 6.76142 41.5175 6.77269 41.5262 6.78235C41.5348 6.79201 41.5453 6.79987 41.557 6.80549C41.5687 6.8111 41.5814 6.81435 41.5943 6.81506C41.6073 6.81577 41.6202 6.81393 41.6325 6.80963C41.6447 6.80533 41.656 6.79866 41.6656 6.79001L41.6717 6.78495C41.7765 6.69045 41.8927 6.60949 42.0177 6.54398C42.1408 6.47874 42.2731 6.4325 42.41 6.40684C42.6803 6.35393 42.9597 6.37332 43.2201 6.46305L43.2301 6.4667C43.267 6.48026 43.3078 6.4786 43.3435 6.46206C43.3793 6.44553 43.4069 6.41548 43.4205 6.37853C43.4341 6.34158 43.4324 6.30076 43.4159 6.26504C43.3993 6.22932 43.3693 6.20164 43.3323 6.18807L43.325 6.18568Z" fill="#0C0C0C"/>
<path d="M45.5887 6.46428C45.8391 6.34944 46.1154 6.30286 46.3896 6.32925C46.5284 6.34152 46.6645 6.37468 46.7934 6.42761C46.9242 6.48071 47.0478 6.55 47.1613 6.63387L47.1676 6.63809C47.178 6.64577 47.1899 6.65133 47.2024 6.65444C47.215 6.65754 47.2281 6.65814 47.2409 6.6562C47.2537 6.65425 47.266 6.64981 47.2771 6.64311C47.2882 6.63641 47.2979 6.62759 47.3056 6.61715C47.3132 6.60672 47.3188 6.59487 47.3219 6.58229C47.325 6.56971 47.3256 6.55664 47.3237 6.54383C47.3217 6.53102 47.3173 6.51871 47.3106 6.50762C47.3039 6.49653 47.2951 6.48686 47.2846 6.47917C47.1617 6.37733 47.0264 6.29141 46.8819 6.22345C46.736 6.15408 46.5804 6.107 46.4205 6.08378C46.0952 6.03463 45.7628 6.07404 45.458 6.19788C45.44 6.20535 45.4237 6.21629 45.4099 6.23009C45.3961 6.24388 45.3852 6.26025 45.3778 6.27826C45.3703 6.29627 45.3665 6.31558 45.3665 6.33506C45.3665 6.35455 45.3704 6.37385 45.3779 6.39185C45.3853 6.40985 45.3963 6.4262 45.4101 6.43997C45.4239 6.45374 45.4402 6.46466 45.4582 6.4721C45.4763 6.47955 45.4956 6.48337 45.515 6.48335C45.5345 6.48334 45.5538 6.47948 45.5718 6.47201L45.579 6.46892L45.5887 6.46428Z" fill="#0C0C0C"/>
<path d="M28.7437 17.0121L28.9103 12.8862C28.914 12.7956 28.8987 12.7052 28.8655 12.6207C28.8323 12.5363 28.7818 12.4597 28.7174 12.3959C28.653 12.332 28.5759 12.2823 28.4912 12.2498C28.4065 12.2173 28.316 12.2029 28.2253 12.2073C28.0582 12.2207 27.9021 12.2957 27.7871 12.4177C27.6722 12.5397 27.6067 12.7001 27.6033 12.8677L27.5676 13.7529L26.403 10.9184C26.279 10.6011 25.9238 10.291 25.577 10.4536C25.4396 10.5076 25.3246 10.6065 25.2506 10.7342C25.1766 10.8619 25.148 11.011 25.1696 11.157C25.1663 11.1574 25.163 11.1581 25.1599 11.1591C25.1575 11.1602 25.1558 11.1621 25.1536 11.1633L24.9625 10.6741C24.927 10.5834 24.8718 10.5018 24.8008 10.4352C24.7299 10.3686 24.6449 10.3187 24.5522 10.2891C24.4595 10.2595 24.3614 10.2509 24.2649 10.264C24.1685 10.2772 24.0762 10.3116 23.9948 10.365C23.8683 10.4515 23.7754 10.5789 23.7316 10.7258C23.6878 10.8726 23.6958 11.0301 23.7542 11.1717L23.835 11.3811C23.8301 11.3862 23.8261 11.3922 23.8232 11.3987C23.7356 11.2708 23.6054 11.1782 23.4558 11.1375C23.3062 11.0968 23.147 11.1106 23.0067 11.1765C22.8553 11.2532 22.7383 11.3841 22.6791 11.5432C22.62 11.7022 22.623 11.8778 22.6875 12.0348L22.8897 12.5518C22.8817 12.5465 22.8725 12.5433 22.8629 12.5422C22.8534 12.5412 22.8437 12.5424 22.8347 12.5458C22.8243 12.5504 22.8154 12.558 22.8092 12.5676C22.6995 12.4753 22.5626 12.4217 22.4195 12.4148C22.2763 12.408 22.1349 12.4484 22.017 12.5298C21.8948 12.6177 21.8059 12.7444 21.7647 12.8892C21.7234 13.034 21.7323 13.1885 21.7899 13.3276L23.4951 17.6912C23.7337 18.3016 24.1492 18.8269 24.6882 19.1996C25.2273 19.5724 25.8654 19.7757 26.5207 19.7835C27.0858 19.7902 27.6312 19.5763 28.0411 19.1873C28.4511 18.7982 28.6932 18.2647 28.716 17.7L28.7437 17.0121Z" fill="#E98862"/>
<g opacity="0.2">
<path d="M26.3079 13.9675C26.2932 13.9731 26.2769 13.9727 26.2624 13.9665C26.248 13.9602 26.2366 13.9486 26.2306 13.934L25.1265 11.2378C25.1234 11.2305 25.1217 11.2226 25.1217 11.2146C25.1217 11.2066 25.1232 11.1987 25.1263 11.1914C25.1293 11.184 25.1338 11.1773 25.1394 11.1717C25.1451 11.166 25.1518 11.1616 25.1591 11.1585C25.1665 11.1555 25.1744 11.154 25.1824 11.1541C25.1904 11.1541 25.1983 11.1558 25.2056 11.1589C25.2129 11.162 25.2196 11.1666 25.2252 11.1723C25.2307 11.178 25.2351 11.1847 25.238 11.1922L26.3421 13.8884C26.3452 13.8957 26.3467 13.9036 26.3467 13.9115C26.3466 13.9194 26.345 13.9273 26.342 13.9346C26.3389 13.9419 26.3344 13.9485 26.3288 13.9541C26.3231 13.9597 26.3165 13.9641 26.3091 13.9671L26.3079 13.9675Z" fill="#0C0C0C"/>
</g>
<g opacity="0.2">
<path d="M25.1322 14.4872C25.1175 14.4928 25.1012 14.4925 25.0868 14.4862C25.0723 14.48 25.0609 14.4683 25.055 14.4538L23.8227 11.4448C23.8197 11.4375 23.8182 11.4296 23.8182 11.4217C23.8182 11.4138 23.8198 11.406 23.8228 11.3987C23.8259 11.3914 23.8304 11.3848 23.836 11.3792C23.8416 11.3736 23.8483 11.3692 23.8556 11.3662C23.8704 11.3607 23.8868 11.361 23.9014 11.3671C23.916 11.3732 23.9278 11.3847 23.9343 11.3991L25.1665 14.4081C25.1726 14.4229 25.1725 14.4395 25.1663 14.4543C25.1601 14.469 25.1483 14.4807 25.1335 14.4868L25.1322 14.4872Z" fill="#0C0C0C"/>
</g>
<g opacity="0.2">
<path d="M23.862 15.0575C23.8473 15.0632 23.831 15.0628 23.8166 15.0566C23.8021 15.0503 23.7907 15.0387 23.7847 15.0241L22.8012 12.6239C22.7982 12.6166 22.7967 12.6088 22.7967 12.6008C22.7967 12.5929 22.7983 12.5851 22.8014 12.5778C22.8045 12.5705 22.8089 12.5638 22.8146 12.5582C22.8202 12.5527 22.8269 12.5483 22.8342 12.5453C22.8415 12.5423 22.8494 12.5407 22.8573 12.5408C22.8652 12.5408 22.8731 12.5424 22.8804 12.5455C22.8877 12.5485 22.8943 12.553 22.8999 12.5586C22.9055 12.5643 22.9099 12.5709 22.9129 12.5783L23.8964 14.9784C23.9025 14.9932 23.9024 15.0098 23.8963 15.0246C23.8901 15.0393 23.8783 15.051 23.8636 15.0571L23.862 15.0575Z" fill="#0C0C0C"/>
</g>
<path d="M43.5784 11.1221C44.4995 11.1832 45.4146 10.9357 46.1792 10.4185C46.2058 10.4009 46.2368 10.3912 46.2686 10.3905C46.3005 10.3898 46.3319 10.3982 46.3592 10.4146C46.3865 10.431 46.4086 10.4548 46.4229 10.4833C46.4372 10.5117 46.4432 10.5436 46.4402 10.5753C46.3788 11.1195 46.1098 12.1199 44.9685 12.2474C44.2315 12.3296 43.6974 11.7636 43.4284 11.3873C43.41 11.3612 43.3994 11.3305 43.3978 11.2986C43.3962 11.2667 43.4037 11.235 43.4194 11.2072C43.4352 11.1794 43.4584 11.1567 43.4866 11.1416C43.5147 11.1265 43.5466 11.1197 43.5784 11.1221Z" fill="white"/>
<path d="M61.5005 22.473C60.9475 20.9007 60.5008 20.1167 59.9327 19.4966C59.1552 18.648 57.9857 17.8124 55.8171 17.4331C54.4923 17.2027 52.4953 16.9953 52.4953 16.9953C52.4953 16.9988 52.4949 17.0024 52.4944 17.0058C52.4713 17.2142 52.0588 20.4202 48.1397 20.4524C42.7396 20.4975 43.1274 16.7879 43.1159 16.6363C43.1168 16.6334 43.1168 16.6314 43.1159 16.6314C41.4406 16.5662 37.2635 16.5287 35.5815 18.1742C35.4052 18.3454 35.2428 18.5303 35.0958 18.7272L35.0727 18.7132L31.2171 24.6409L30.254 16.7696L28.744 17.0116L23.843 17.7969L23.5598 17.842L21.8135 18.123L22.4222 22.8407L23.817 33.6564C25.1781 36.8483 27.3377 39.6363 30.0879 41.7523C31.226 40.1462 33.1089 37.3755 35.0639 34.4714C35.0945 34.4254 35.1253 34.3793 35.1569 34.3332V34.3342C35.1569 34.3658 35.1579 34.3984 35.1589 34.4311C35.1637 34.6385 35.1694 34.8737 35.1742 35.1328C35.2203 37.5127 35.2673 41.8751 35.3057 44.6563C38.7857 45.9597 42.5584 46.2747 46.2064 45.5664C49.8543 44.8582 53.2351 43.1543 55.9745 40.6434C55.9937 40.6271 56.012 40.6098 56.0307 40.5916C56.0672 40.559 56.1037 40.5254 56.1392 40.4918C58.0133 38.7436 59.5403 36.6569 60.6398 34.3418C61.8545 31.7824 62.5106 28.9938 62.5647 26.1614V26.1604L61.5005 22.473Z" fill="#613DE5"/>
<path d="M56.1383 40.4911C56.1029 40.5247 56.0663 40.5583 56.0298 40.5909C56.0117 40.6091 55.9934 40.6264 55.9736 40.6427L54.932 35.3425L54.931 35.3367L53.4417 27.7611L53.6298 27.7122L56.1383 40.4911Z" fill="#0C0C0C"/>
<path d="M35.1833 35.1331C35.159 35.1321 35.136 35.1221 35.1188 35.1049C35.1015 35.0877 35.0914 35.0647 35.0903 35.0404L34.8977 30.8049C34.8971 30.7922 34.899 30.7794 34.9034 30.7675C34.9077 30.7555 34.9144 30.7444 34.923 30.735C34.9316 30.7256 34.9419 30.718 34.9535 30.7125C34.965 30.7071 34.9775 30.7041 34.9903 30.7035C35.003 30.7029 35.0158 30.7048 35.0277 30.7092C35.0397 30.7135 35.0508 30.7202 35.0602 30.7288C35.0696 30.7374 35.0772 30.7477 35.0826 30.7593C35.0881 30.7708 35.0911 30.7833 35.0917 30.7961L35.2844 35.0317C35.2849 35.0444 35.283 35.0571 35.2787 35.0691C35.2743 35.0811 35.2677 35.0921 35.2591 35.1015C35.2505 35.111 35.2401 35.1186 35.2286 35.124C35.217 35.1294 35.2045 35.1324 35.1918 35.133C35.1883 35.1331 35.1856 35.1333 35.1833 35.1331Z" fill="#0C0C0C"/>
</svg>
