<svg width="29" height="27" viewBox="0 0 29 27" fill="none" xmlns="http://www.w3.org/2000/svg">
<path fill-rule="evenodd" clip-rule="evenodd" d="M27.8583 0H10.8308C4.87413 0 0 4.74422 0 10.5436C0 15.0053 2.88452 18.8432 6.92831 20.3755L0.290959 26.8381H17.3185C23.2752 26.8381 28.1493 22.0931 28.1493 16.2937C28.1493 11.8321 25.2648 7.99415 21.221 6.46186L27.8583 0ZM6.92831 20.3762L12.8341 14.6262H10.8308C8.5244 14.6262 6.63735 12.7893 6.63735 10.5436C6.63735 8.29802 8.5244 6.46186 10.8308 6.46186H21.221L15.3152 12.2111H17.3185C19.6249 12.2111 21.5119 14.0488 21.5119 16.2937C21.5119 18.5393 19.6249 20.3762 17.3185 20.3762H6.92831Z" fill="white"/>
</svg>
